<mxfile host="app.diagrams.net" modified="2023-10-18T00:40:12.939Z" agent="Mozilla/5.0 (Windows NT 10.0; Win64; x64) AppleWebKit/537.36 (KHTML, like Gecko) Chrome/117.0.0.0 Safari/537.36" etag="WBtJyCtradOqXkr37UNF" version="22.0.4" type="device">
  <diagram name="Page-1" id="QO4RSMcSoy0msqQ5qTh6">
    <mxGraphModel dx="2899" dy="2237" grid="1" gridSize="10" guides="1" tooltips="1" connect="1" arrows="1" fold="1" page="1" pageScale="1" pageWidth="850" pageHeight="1100" math="0" shadow="0">
      <root>
        <mxCell id="0" />
        <mxCell id="1" parent="0" />
        <mxCell id="t97eaOo3kyGEYDDg0i4q-28" value="port 22, 8080,8000&#xa;" style="rounded=1;arcSize=10;dashed=1;strokeColor=#ff0000;fillColor=none;gradientColor=none;dashPattern=8 4;strokeWidth=2;verticalAlign=top;" parent="1" vertex="1">
          <mxGeometry x="935.87" y="230.44" width="244.13" height="209.56" as="geometry" />
        </mxCell>
        <mxCell id="t97eaOo3kyGEYDDg0i4q-20" value="us-east-1a" style="sketch=0;outlineConnect=0;gradientColor=none;html=1;whiteSpace=wrap;fontSize=12;fontStyle=0;shape=mxgraph.aws4.group;grIcon=mxgraph.aws4.group_availability_zone;strokeColor=#545B64;fillColor=none;verticalAlign=top;align=left;spacingLeft=30;fontColor=#545B64;dashed=1;" parent="1" vertex="1">
          <mxGeometry x="890" y="170" width="330" height="300" as="geometry" />
        </mxCell>
        <mxCell id="t97eaOo3kyGEYDDg0i4q-14" value="Region us-east" style="points=[[0,0],[0.25,0],[0.5,0],[0.75,0],[1,0],[1,0.25],[1,0.5],[1,0.75],[1,1],[0.75,1],[0.5,1],[0.25,1],[0,1],[0,0.75],[0,0.5],[0,0.25]];outlineConnect=0;gradientColor=none;html=1;whiteSpace=wrap;fontSize=12;fontStyle=0;container=1;pointerEvents=0;collapsible=0;recursiveResize=0;shape=mxgraph.aws4.group;grIcon=mxgraph.aws4.group_region;strokeColor=#147EBA;fillColor=none;verticalAlign=top;align=left;spacingLeft=30;fontColor=#147EBA;dashed=1;" parent="1" vertex="1">
          <mxGeometry x="180" y="90" width="380" height="450" as="geometry" />
        </mxCell>
        <mxCell id="t97eaOo3kyGEYDDg0i4q-15" value="Availability zone us-east-1c" style="sketch=0;outlineConnect=0;gradientColor=none;html=1;whiteSpace=wrap;fontSize=12;fontStyle=0;shape=mxgraph.aws4.group;grIcon=mxgraph.aws4.group_availability_zone;strokeColor=#545B64;fillColor=none;verticalAlign=top;align=left;spacingLeft=30;fontColor=#545B64;dashed=1;" parent="t97eaOo3kyGEYDDg0i4q-14" vertex="1">
          <mxGeometry x="30" y="70" width="330" height="360" as="geometry" />
        </mxCell>
        <mxCell id="t97eaOo3kyGEYDDg0i4q-12" value="Public subnet" style="points=[[0,0],[0.25,0],[0.5,0],[0.75,0],[1,0],[1,0.25],[1,0.5],[1,0.75],[1,1],[0.75,1],[0.5,1],[0.25,1],[0,1],[0,0.75],[0,0.5],[0,0.25]];outlineConnect=0;gradientColor=none;html=1;whiteSpace=wrap;fontSize=12;fontStyle=0;container=1;pointerEvents=0;collapsible=0;recursiveResize=0;shape=mxgraph.aws4.group;grIcon=mxgraph.aws4.group_security_group;grStroke=0;strokeColor=#248814;fillColor=#E9F3E6;verticalAlign=top;align=left;spacingLeft=30;fontColor=#248814;dashed=0;" parent="t97eaOo3kyGEYDDg0i4q-14" vertex="1">
          <mxGeometry x="45" y="100" width="305" height="290" as="geometry" />
        </mxCell>
        <mxCell id="t97eaOo3kyGEYDDg0i4q-16" value="VPC" style="points=[[0,0],[0.25,0],[0.5,0],[0.75,0],[1,0],[1,0.25],[1,0.5],[1,0.75],[1,1],[0.75,1],[0.5,1],[0.25,1],[0,1],[0,0.75],[0,0.5],[0,0.25]];outlineConnect=0;gradientColor=none;html=1;whiteSpace=wrap;fontSize=12;fontStyle=0;container=1;pointerEvents=0;collapsible=0;recursiveResize=0;shape=mxgraph.aws4.group;grIcon=mxgraph.aws4.group_vpc;strokeColor=#248814;fillColor=none;verticalAlign=top;align=left;spacingLeft=30;fontColor=#AAB7B8;dashed=0;" parent="t97eaOo3kyGEYDDg0i4q-14" vertex="1">
          <mxGeometry x="20" y="40" width="350" height="400" as="geometry" />
        </mxCell>
        <mxCell id="t97eaOo3kyGEYDDg0i4q-4" style="edgeStyle=orthogonalEdgeStyle;rounded=0;orthogonalLoop=1;jettySize=auto;html=1;entryX=0;entryY=0.5;entryDx=0;entryDy=0;" parent="1" source="t97eaOo3kyGEYDDg0i4q-1" target="t97eaOo3kyGEYDDg0i4q-2" edge="1">
          <mxGeometry relative="1" as="geometry" />
        </mxCell>
        <mxCell id="t97eaOo3kyGEYDDg0i4q-1" value="DevOps&amp;nbsp;&lt;br&gt;Engineer" style="points=[[0.35,0,0],[0.98,0.51,0],[1,0.71,0],[0.67,1,0],[0,0.795,0],[0,0.65,0]];verticalLabelPosition=bottom;sketch=0;html=1;verticalAlign=top;aspect=fixed;align=center;pointerEvents=1;shape=mxgraph.cisco19.user;fillColor=#005073;strokeColor=none;" parent="1" vertex="1">
          <mxGeometry x="-40" y="335" width="50" height="50" as="geometry" />
        </mxCell>
        <mxCell id="t97eaOo3kyGEYDDg0i4q-59" style="edgeStyle=orthogonalEdgeStyle;rounded=0;orthogonalLoop=1;jettySize=auto;html=1;" parent="1" source="t97eaOo3kyGEYDDg0i4q-2" target="t97eaOo3kyGEYDDg0i4q-15" edge="1">
          <mxGeometry relative="1" as="geometry">
            <Array as="points">
              <mxPoint x="190" y="360" />
              <mxPoint x="190" y="360" />
            </Array>
          </mxGeometry>
        </mxCell>
        <mxCell id="t97eaOo3kyGEYDDg0i4q-2" value="Intenet" style="image;aspect=fixed;perimeter=ellipsePerimeter;html=1;align=center;shadow=0;dashed=0;spacingTop=3;image=img/lib/active_directory/internet_globe.svg;" parent="1" vertex="1">
          <mxGeometry x="80" y="340" width="40" height="40" as="geometry" />
        </mxCell>
        <mxCell id="t97eaOo3kyGEYDDg0i4q-6" value="EC2 instance contents" style="points=[[0,0],[0.25,0],[0.5,0],[0.75,0],[1,0],[1,0.25],[1,0.5],[1,0.75],[1,1],[0.75,1],[0.5,1],[0.25,1],[0,1],[0,0.75],[0,0.5],[0,0.25]];outlineConnect=0;gradientColor=none;html=1;whiteSpace=wrap;fontSize=12;fontStyle=0;container=1;pointerEvents=0;collapsible=0;recursiveResize=0;shape=mxgraph.aws4.group;grIcon=mxgraph.aws4.group_ec2_instance_contents;strokeColor=#D86613;fillColor=none;verticalAlign=top;align=left;spacingLeft=30;fontColor=#D86613;dashed=0;" parent="1" vertex="1">
          <mxGeometry x="260" y="270" width="230" height="180" as="geometry" />
        </mxCell>
        <mxCell id="t97eaOo3kyGEYDDg0i4q-10" value="Port 8080, 80, 20,5000,8081" style="rounded=1;arcSize=10;dashed=1;strokeColor=#ff0000;fillColor=none;gradientColor=none;dashPattern=8 4;strokeWidth=2;verticalAlign=top;" parent="t97eaOo3kyGEYDDg0i4q-6" vertex="1">
          <mxGeometry x="-25" y="-30" width="275" height="230" as="geometry" />
        </mxCell>
        <mxCell id="t97eaOo3kyGEYDDg0i4q-7" value="VSCode" style="shape=image;verticalLabelPosition=bottom;verticalAlign=top;imageAspect=0;aspect=fixed;image=data:image/jpeg,/9j/4AAQSkZJRgABAQAAAQABAAD/2wCEAAkGBxIQEBAPDxAQEQ8QEA8QEBAPDQ8XERARFhEWFhgRGR8YHSghHB0mGxUWITIiJS0rLjEuGB81ODU4QyotOi0BCgoKDg0OGhAQGi8mICY1LS83LTctLS0uLi0tLS0tLS8rLSstLS0yMi0tLS0tLTctLS8rLS8tLS0tLSstLS0vK//AABEIAOEA4QMBIgACEQEDEQH/xAAcAAEAAgIDAQAAAAAAAAAAAAAAAQcFBgIDBAj/xABAEAACAQEFBQIKCgIBBQEAAAAAAQIDBAYRITEFEkFRYTRxBxMiUmJzgZGysyMyM0Jyg6GxwfCC0cIVU2Oi4RT/xAAaAQEBAAMBAQAAAAAAAAAAAAAABQMEBgEC/8QAMxEAAQMCAQoFBAMAAwAAAAAAAAECAwQRBRIhMUFRYXGBsdEiNJHh8CMzocEycvETFEL/2gAMAwEAAhEDEQA/ALxAAAAAAAAAAAAAAAAAAAAAAAAAAAPParRCmt6pOMFzlJLH3mEvZeinYYYZTtE19HSx09OfKP6vhxap3ae0atpqOrXm5zfFvKK82K4LojdpqN0yZS5k68CfV17YFyW53dOPYvWjtehN7sa1Nt5JY4NvpjqZAoPYtsk5eKk8U03HHVNcO7A3DZl4a9nwSnv019yeLSXfr/HQ2JcMW1415L37mnFjKI60zbb07dvQswGA2beehWwjJ+KqP7s3lj36e/Az5NkjfGtnpYsRSslblMW6AAHwZAAAAAAAAAAAAAAAAAAAAAAAAAAAAAAAanfC90LFF06eE7TJZR1jTT0lLryieS+l9FZt6hZmpWjSc8nGj/uXThx5FVVKjk3KTcpSblKUm25N5ttvVlGkosuz5NGzb7deGmVXYh/x3jj07dnv0OdqtM6s5VKsnOc3jKUnm2dEjkcJFpDn73W569jfbx7p/CzYzW9jfbw7p/CzZD1D4l0gyey9uV7PgoTxh/25Zxfdx/YxgPHMa9MlyXQ+WPdG7KYtlLA2XeujVwjU+iqPhJ4wfdLh7cDYU8c1mno0U8ZDZm2K1nf0c3u8YSzg/wDX7kybDUXPGtty9+/qWafGXJmmS+9P2na3AtMGt7HvTTrNQqLxVR5LPGEnyT4Po/ebIS5InxrkvSxchnjmblRrdPmnWnMAAxmUAAAAAAAAAAAAAAAAAAAEAEleX2vvub1lscvpM41K0XlDnCPpc5cOGenjvtfjf3rLY5fR5xq1ovOXOMPR9Ljwy1r4q0lD/wC5E4J37EWuxG304l4r+k7+m7k3jm9WcQCsRAQySGD1D1bG+3h3S+Fmxmt7G+3j3S+FmynqGOXSQCQfVjGQCQLAhlkXTtzr2aLnnOEnTk3q8MGn34NFcG+XC7NP1svgiaGItRYb7FTsVcHcqVFtSov40GzgAgHTgAAAGiXrvt4uToWRxc1lOtgnGD82PBvq8v41iy3xttOW86zmsc4SjBxfTRNexo3o8Pme3KzJuXT84k2bFYI35Gdd6aPnAuIGBu5eWjbY4R8msljOlJ598X95f1meNN7HMdkuSym/HI2RqOYt0AAPk+wAAAAdFrtMKUJVaslCnBYylJ5JAHKrUUYuUmoxinKUpNJRSzbbeiKpvtfR2nes9mbjZtJzzUq3TpDpx48jyXzvhO2SdKljCyxeUdJVGtJT6co+18MNULNJRZFnyadmz36cdEGtxDLvHFo1rt4buvDTIIBRJBIIAPSTiySGAh6djfbx7p/CzZTWdjfbw7p/CzZj7afEukAA9MQAAAN9uD2afrZfDE0I324PZp+tfwQNLEPsLy6lPCPM8lNnABzx1JDK2vjfF1N6zWWWFPONSqtZ84rkuvHu12u+1SUNn2lw13YRy82VSMZf+rZThVw6ma/6js9lzJ+yJi1Y+O0TM10uq7tFk9PQkEAtHOHOjVlCSnCTjKLxjKLaknzTRY1178RqbtG1tQqPKNXLdn0l5r66dxWwME9OyZtneptUtZJTuuzRrTUvzd+UzH0ECp7rXwqWXdpVsalDRedTXo816L9nWzrDbadeEatKanCWko/s+T6M5+opnwL4tG35oU6qlrI6ht26daa07pvPUAY3bW2KNjpOtXlhFZRivrzlwhFcX/WYERVWyaTZVUal1O7aNvp2elKtWmoU4rNvi+CS4t8im723qqW6eGcKEH9HTx19OXOX6Lhxb815LxVrdU36nk044+KpRfkwX8y5swpbpKNIvE/+XT3+Ic/WV6y+Bn8evtu9SQQDeJhIIABIIB6CTJbD2HXttTxdCGOGG/OWKp01zk/41Zmro3Kq2vCrV3qVm13mvLqr0E+HpPLljwtrZ2z6VmpxpUYKEI6JcXzb1b6s0KmtSO7WZ1/CFOjw90njfmb+V7Jv9DULVdahYNn1nBb9dqkp1pJbz+khjGPmx6L24mqFlXz7DW76XzYFamTDnK6JXOW6qq9GmDFmNZO1rUsmSnVxIIBvEwkEAAk364PZp+tfwQNAN+uB2afrX8EDSxD7C8upTwjzPJf0bQADnjqDotNnjVhOnNb0JxcZLmmsGVDei7VSxTxznQk/o6mGnoPlL9Hw4pXKdFqs8KsJU6kVKElhKMtGjZpap0Ds2dF0p81mnWUTKltlzKmhe+4oMGz3uurOyN1aeM7O3lL71NvSMunJ/wBesHRxyNkblNXMcnNC+F6sellAAMhiBk9ibbrWSpv0ZeS/r05Y7sl1XPrqYwHy5qOTJcl0Ppj3McjmrZS1JX+sqsztEsVUWEf/AM/3nN8E9N3L6385FVbd25WttV1q0uahBfUpx82K/niGscnoeKvZms45rlxRqRUccKq5v+bijJXvqERr837XecEycTrUjkmZzXVDkCABYkEGR2LsatbKnirPDeeW9J5QprzpPgv1fA8VUal10HrWK5bJnU8VKnKclCEZSlJpRjFNyk3oklqyzLpXAUN2vbkpTycaGThDrPhJ+jp38NgurdOjYY7y8uu1hKrJZr0YL7q/V8TZCPU1yu8MeZNutfnqXaTDkZ45c67NSd+hCJAJxUMFfTsNf8r5sCtiyb6dhrd9L5sCtC9hn2F4r0Q5nGPMJ/VOrjkDiCiSrHIHEAWORv1wOzT9bL4IFflgXA7NP1svggaOIfYXl1KeE+Z5L+jaAAc8dQAAAddSmpRcZJSjJNOMkmmnqmnqisL5XPdn3rRZk5UNZQzcqX+114ceZaZGBsU9Q+B12802mtU0rKhmS7kutPmzWfPgN7vlczd3rTZI+TnKdGKzh6UfR9Hhwy00I6KGZkzcpq+xydRTPgfkv/3gcgQDMYCQQADor2ZPOOT/AEZ4808HkzJnCrSUlnrwfFHwrTMyS2ZTwpk4h0JKSik5OTSioptyb0SXPoWXc7we4bte3xxeThZ8clyc+f4ffxRrzTshS7/TWbkFO+dbM9dRr107m1ra1UnjSs2OdRryqnNQT1/FouuGBbuy9m0rNTVKhBQguWsn50nq31Z7IQSSSSSSwSSyS5HIhT1L5lz5k2HQ09IyBM2nb80JuAANc2QAADBX17BX/K+dArQsu+vYa/5PzoFZl7C/sLxXohzOMeYT+qdXEggFElkggAElgeD/ALNP1svggV8WD4P+zT9dL4IGliP2F5dSlhPmeS/o2gAHOnUAAAAArK/N+/rWWxT5xq2iL98IP/l7uZlhhdK7Jb/himmZC3Kceu/V+VR3rLY5J1841aqzVLnGPOfXRd+lY0LVwm8fSbz9p04HCSL8EDYW2b/pzdRO6oW7+SbDJg8VntG7lLTg+R7EzbRbk9zVauckEA9PkkEAA77LaZ0pxqU5OM4vGMovNMs66t9YWjdpWjdp18lGWkKj5ejLpx4ciqga9RSsnSztO3WbVLWSU7rt0bNXsu8+hwVbda/E6O7RtblOlko1NZ01186P6rrkiy7NaIVIRqU5RnCSxjKLxTRz1RTvgWzk56l+bDqKaqjqG3YvLWnzad4AMBsgAAGCvr2Gv+V86BWZZt9uw1/yfnQKyL+F/YXivRDmsY8wn9U6uAAKJKAAABYNwOzT9dL5cCviwPB/2WfrpfLgaOI/YXl1KWE+Z5L+jaQAc6dQDrnNRTlJpRSbbbwSS1bIrVFCMpyajGKcpSbwUUli2+mBT19r6ztbdCg3Cyp56qVZr70uUeUfa+SzwU7pnWTRrU16ipbA266dSHsvzfd196y2STjRzjUqLKVXnFcofv3a6ESC/FE2JuS05yaZ0zspxAZIMhiOEkdlCu45P6v7HFnp2bsuraqqo0IOdSXBaRXGUnol1YV2TnPUbleGx3qWOa0BYtk8GsI2VwlVbtTwkqix8VF4fZpcY+lrkn0ND2jYKlnqSo1oOEo6p8VwkuafM+YKqOa6MXR8vwPKmjlgsrkzL8su88wANg1QAAAZm7t461injTe9SbxnSk3uy6rzZdV7cTDA+Xsa9MlyXQ+45HRuymLZS8dhbco2ynv0ZZrDfhLKUH1XLqsjLHz/AGG21KE41aM5QnHSUX+j5ro8i0rq3yp2rdpVsKVoyWGe5UfTHR+i/Zjwg1VA6LxMzt/Kd03+p0lFiTZvA/M78Lw7ehtwAJ5TMHfbsNf8n50CsSzL79gr/k/OgVkX8L+wvFeiHNYx5hP6p1cSCAUSUSCAASWD4PezVPXy+XAr0sLwedmqevl8uBo4j5deXUpYV5jkptIAOdOoNb8Ie9/021bmOO7Txw13PGw3/Zu449MSjD6Sr0YzjKE0pQnFxlFrFSi1g0+mBTt97lzsTdegpTsreusqLb+rLnHlL2PhjUw6ZrbxrpVc28kYnA51pE0JmXdv7mng4klW5GJBBYdz/B7Ke7XtycIZONnzU59ZcYrpr3cccszIm5TjNDA+Z2S3/DXrq3Tr26WMV4uzp4TrSWX4YL7z/Rcetw7D2JQsdJUqEMFlvzec6j86T4/suBkKFGMIxhCMYwikoxikoxS0SS0R2kOoqnzLsTYdBTUjIEzZ12gwt49gUrbT3Knkzjj4uol5UX/MeaM0DA1yscjmrZUNh7GvarXJdFKE2xsqrZKrpVo4SWcZLOM4+dF8V/WeIvXbex6VspeKrR6wmvr05ecn/cSnrw7Dq2Kr4uosYvFwmk9ycea5PmuHub6GjrGzpkrmd13p89uYrqB1OuU3O3px7mLBBJuk8AAAAA9PLG9XUv1Knu0ba3OGSjWzc4/i4yXXXv4WTQrRnGM4SjKEknGUWnGS5po+fDN3bvTWsUvJe/QbxnSk/J/En91/1kuqw5H+KLMuzUvbpwLNFias8E2dNutOO3rxLPvv2Cv+T86BWRve2ttUbXs2tUoyxw8TvweU6b8bDKS/nR8DRD7w1qthVFSyo5ejTFizkdOipoyU6uIBIKBMIBIAILD8HvZqnr5fLgV6WD4O+yz9fL5cDSxHy68upSwnzHJTagAc4dODrqQUk4yScZJpprFNPJp9DsABU187gzpydewwlUpPFyoxxc6T9Fayj01X7ajY9g2qtNU6dmqyk3hnSlFL8Tlgo+0+hwb8eISNbZUvvz/knyYbG92Uiqm5LfjYaZdC49Kx7tatu1rTrjh9HTfop6v0n7MOO5gGnJI6R2U5bqbscbY25LUsgAB8H2AAADxbU2dTtNKVGtFShL3xfCUXwaPaD1FVFuh4qIqWUpK9F2qtiqYSxnRk/o6iWT9GXKX78OOGCPoG22SnWpypVYKcJrCUZaP/AO9So723UnYpb8MZWaT8mfGDekJf70Zeoq5JfA/+XX3OcrsOWLxx/wAendPimtAAoksAAAESJIkehDv2dJqokm0mpJ4PVa4Pnmk/YjMGE2d9rH/L4WZsHrgAAfIAAALC8HfZZ+vl8uBXpYXg77LP18vlwNHEfLry6lLCfMclNqABzh04AAAAAAAAAAAAAAAAAAOqvRjOMoTipQknGUZJNST1TO0AFR3yufKyt16Cc7M3i1m5Uej5x5P383qJ9ETgmmmk01g01k1yKwvrct0t602SLdLN1KSzdPnKPOPTh3aW6Kvyvpyrn1Lt479+vjpgV+HZP1ItGtNnDdu1as2jRgRiCsRicTiyTiweoduzvtY/5fszNGG2d9rH/L4WZk+g4AAHyACAeklieDvss/Xy+XArrEsy5FjdKyR3lg6s5VMHwi8Ir3pJ+0nYm5EgttVClhKL/wBi+5TYwAc6dMAAAAAAAAAAAAAAAAAAAAAAAAVzfW5GO9abHDPOVShFfW5yiv8Aj7uRXB9Gmi31uYq+NpssVGv9apTWUavOS5S/fv1r0Vfa0cq8F79/XdGrsOyvqRadabeHz3qwhnOUWm4yTTTaaaaaa1T6nXItEJDu2d9rH/L4WZswmzvtY/5fszMnoccgcT1bP2fVtEt2jTlN8cF5Me/HJe08cqNS66DxEVy2RLqeY77FYqlaW5RpyqS4qK06t6Jd5umybjwXlWme/wD+OGKXc5av2YG22WzQpRUKcIwgtIwiku/ImT4pG3NGmUv47r8zlWDCZH55FyU2aV7J+eBqGxLlbrVS1SUms1Shpj6T49y97N2AI808ky3epcgp44G5LE7rxUAAwmYAAAAAAAAAAAAAAAAAAAAAAAAAAA0++dz42tOtRwhaks+EayXCXKXKXsfDCpLTQlTlKnUi4Sg3GUZLBxfJn0WYvauwrPasHXownJLBSa8pLlis8OhRpK9YkyH52/lPbcTKzD0lXLZmd+F4799uRR+zKLct/gk8+bZsOzdk1rS/oacpLHBy0jHvby9mpYNC51jg01ScsNFKpJx92j9pnqdNRSjFKMUsFGKSSXJJG1LizbfTbfj7Z+hqRYQ5VvK63DuqJ+zUtk3IpwwlaX42XmRxUF3vWX6G10KMacVCEYwitIxikl7EdwJM08kq3et+noWIaeOFLMS3XmukAAxGYAAAAAAAAAAAAAAAAAAAAAAAAAAAAAAAAAAAAAAAAAAAAAAAAAAA/9k=" parent="t97eaOo3kyGEYDDg0i4q-6" vertex="1">
          <mxGeometry x="40" y="60" width="55" height="55" as="geometry" />
        </mxCell>
        <mxCell id="t97eaOo3kyGEYDDg0i4q-8" value="Terraform" style="shape=image;verticalLabelPosition=bottom;verticalAlign=top;imageAspect=0;aspect=fixed;image=data:image/png,iVBORw0KGgoAAAANSUhEUgAAAQMAAADCCAMAAAB6zFdcAAAAzFBMVEX///9fQ+lAQLJeQelTMuhbPemMe+5jRuoqKq00NK/p6fXUz/ioqNhdQOlQLehRL+hXN+g5ObD5+P5VNehYOuiIdu7t6vxNKOfw7v2nmvLCuvba1fnSzPgnJ6y9tPVsVOu1td4vL67k4Pt2YOxzc8ODcO3R0eqekPHLxPeyp/NmS+p9aeyXiPBoTupsbMG5r/SsoPLHwPZwWOtWVrkfH6qbm9O5ud9QULigkvGSks+Tg+94YuxFRbT29P5HH+fn4/uGhsrHx+VjY74VFapDYfotAAAFyklEQVR4nO2da3vaOBBGJQwEyILxhZK00EIbQsml7bbbTdJNmr38//+0kmOwsSVbTuwKaeb90g9tkvF5nh5mNCIQgsFgMBgMBoPBYDAYDAbTVE583RXoz2z8UXcJ2nPsuh/e6y5Cc47bdDj68aC7DK1hDCgN219016EzEQPqjDu/665EX54YMArtD29016IrWwaUa+FEdzV6kjBgWnBhaiHNgNLgCKIW9hlQxwWohQwDpoVpF5oWcgwo7UDTgoABpWP6WnddvzJCBqxb+ApIC2IGvFuAowUZA6aF9qnu4n5R5Az4EAFDCwUMwGihkAEQLZQwYFoYWa+FUgasW7BdCwoMrNeCCgOuhckr3ZU2FzUGfIg4tXYTocrAZi2oM6DOz5nuaptJBQa0fay72maCDJ7DYN3k6+Titwa/uSzVGXSnk6ba5/NvfxjCoMOm6iZeJwdnPa9vCgM2VQ/rf5383vNaLXMYNNA+/+n1Wy2zGNQ8VZ9/W7Za5jGocaoenM29lpkMWPsc1qAFPxKBsQyYFt69VAuxCMxl8OKpeicCkxlEWnhut8A7gpYNDPhU/fZZP/t7loDBDLgWqo9Tiz0RGM+Aa2FVTQvnN8s8AbMZ8NXcrboWmAhEBExnwLsFVS3c5UVgCQNVLSz6AhHYwkCpW8h2BNYx4N1CoRZSo4G9DCgNA6kW/LtiAtYwYFq4FmtB2BEcAgO3dgaSbkHSERwAg0caOLUz4FpY72th8EnSERwAA0K+tMP6GTAthJ+Tn+HLO4KDYEAefkzVHqsSA66F7W6uqCM4DAaEvP/LVfkPUY1BpAX+Bf69ggi0MyDko4oWqjKgDuVfMJgrI9DKgJCNW6qF6gyOIgZKNjwEBuThalTydPYzYFq4LNYCBAZMC0dFWoDBgGkhkGsBCgOmBVf2kGAYRN3CEDoDpoULoRZAMZBoARgDpoX8EAGNAZuqL7NagMeAkFlGCxAZZIcImAyInx4igDKIhoitFsAySGkBMANCPo9D8AzIw5oPEbAZ8G5hNITOgGnh+id4BqxbQAZxkAEy4JkEDTKYm8FANFXXxMDrmYGAiKbqWhh4vb9Nehvp7FppY1+JQe9f095OvFHZ2FdgsLz/R/cjVY9fupqrwKBvyOvBNrvfPFq2mlNmYJgIWFbJXaNZycZejYF5IiDdYJpcQSxazakxMFIErE8cJ3eNfPlqToWBaSKIw3vl9M1kPlU/k4E3N00EcZ7mheHoMtHCdVushRIGvU8DfY/xomxnpo6bXEGMD9sqMVjeGCiCOMncmLqC6K9FQ0QBg35voe0JXp7U7Jy6gkherfJakDLw5ndmiiDO3vnBcLR63P7F7F1WCzIG5oogTuYMJX0zOasFMYPl/bm+6utJ7hwpbCdauN0bIkQM+v2FttJrS/4szQkudlp4XKXOFvIMvJ7ZIogjOk9Ma+H4YqeFHAPjRRBHfKbama53H+LwNgyFDJY3xosgjuxcORxvtv/Ev30aIvYY9L2FtprrjvRs3Qmy3UKKgekdwX4K9gtsiEi0wLqFhMH8zA4RxCncsXTcq5QWgpiBPSKIU7Jn2tcC/2Pw30JbsQ2lbNfGuoXdRz5F47VvkQjilO8bh+6l5R/5pLJz7YyurP7IJ7W9c+huyr+VsVHcvTvBkb2fBKd8/8CxVwsV7mB0At3FNpTK91AsDDJABjzIABnwIANkwIMMkAEPMkAGPMgAGfAgA2TAgwyQAQ8yQAY8yAAZ8CADZMAzQQZkU/4+JusZCG8mQ2PwdNcIOgN+12gMnsHuCiJkBkpasJ6BghYAMGBa6BRqAQQD4p8W/TIEGAyYFiZyLUBhUKQFOAzk3QIkBoSIuwVYDMRaAMaAkDd5LYBjQMjrbLcAkAHrFva1AJFBVgswGTAtfE20AJUB08JwDJ4BIdshAjIDctKNtACaQawF4AyYFsIxeAZMC+5Qdwn6c9LVXQEGg8FgMBgMBoPBYDAYTCr/Ayt3f9/A4PxrAAAAAElFTkSuQmCC" parent="t97eaOo3kyGEYDDg0i4q-6" vertex="1">
          <mxGeometry x="140" y="60" width="69" height="51.68" as="geometry" />
        </mxCell>
        <mxCell id="t97eaOo3kyGEYDDg0i4q-32" value="" style="shape=flexArrow;endArrow=classic;html=1;rounded=0;" parent="t97eaOo3kyGEYDDg0i4q-6" edge="1" source="t97eaOo3kyGEYDDg0i4q-8">
          <mxGeometry width="50" height="50" relative="1" as="geometry">
            <mxPoint x="240" y="80" as="sourcePoint" />
            <mxPoint x="550" y="70" as="targetPoint" />
          </mxGeometry>
        </mxCell>
        <mxCell id="t97eaOo3kyGEYDDg0i4q-33" value="&lt;font style=&quot;font-size: 18px;&quot;&gt;Create Infrastructure&lt;/font&gt;" style="edgeLabel;html=1;align=center;verticalAlign=middle;resizable=0;points=[];" parent="t97eaOo3kyGEYDDg0i4q-32" vertex="1" connectable="0">
          <mxGeometry x="-0.0172" y="-2" relative="1" as="geometry">
            <mxPoint x="-1" as="offset" />
          </mxGeometry>
        </mxCell>
        <mxCell id="t97eaOo3kyGEYDDg0i4q-29" value="Deployment 5 VPC" style="points=[[0,0],[0.25,0],[0.5,0],[0.75,0],[1,0],[1,0.25],[1,0.5],[1,0.75],[1,1],[0.75,1],[0.5,1],[0.25,1],[0,1],[0,0.75],[0,0.5],[0,0.25]];outlineConnect=0;gradientColor=none;html=1;whiteSpace=wrap;fontSize=12;fontStyle=0;container=1;pointerEvents=0;collapsible=0;recursiveResize=0;shape=mxgraph.aws4.group;grIcon=mxgraph.aws4.group_vpc;strokeColor=#248814;fillColor=none;verticalAlign=top;align=left;spacingLeft=30;fontColor=#AAB7B8;dashed=0;" parent="1" vertex="1">
          <mxGeometry x="860" y="140" width="730" height="370" as="geometry" />
        </mxCell>
        <mxCell id="t97eaOo3kyGEYDDg0i4q-31" value="Region" style="points=[[0,0],[0.25,0],[0.5,0],[0.75,0],[1,0],[1,0.25],[1,0.5],[1,0.75],[1,1],[0.75,1],[0.5,1],[0.25,1],[0,1],[0,0.75],[0,0.5],[0,0.25]];outlineConnect=0;gradientColor=none;html=1;whiteSpace=wrap;fontSize=12;fontStyle=0;container=1;pointerEvents=0;collapsible=0;recursiveResize=0;shape=mxgraph.aws4.group;grIcon=mxgraph.aws4.group_region;strokeColor=#147EBA;fillColor=none;verticalAlign=top;align=left;spacingLeft=30;fontColor=#147EBA;dashed=1;" parent="1" vertex="1">
          <mxGeometry x="821" y="91" width="809" height="469" as="geometry" />
        </mxCell>
        <mxCell id="t97eaOo3kyGEYDDg0i4q-35" value="D5 Public Subnet 2" style="points=[[0,0],[0.25,0],[0.5,0],[0.75,0],[1,0],[1,0.25],[1,0.5],[1,0.75],[1,1],[0.75,1],[0.5,1],[0.25,1],[0,1],[0,0.75],[0,0.5],[0,0.25]];outlineConnect=0;gradientColor=none;html=1;whiteSpace=wrap;fontSize=12;fontStyle=0;container=1;pointerEvents=0;collapsible=0;recursiveResize=0;shape=mxgraph.aws4.group;grIcon=mxgraph.aws4.group_security_group;grStroke=0;strokeColor=#248814;fillColor=#E9F3E6;verticalAlign=top;align=left;spacingLeft=30;fontColor=#248814;dashed=0;" parent="t97eaOo3kyGEYDDg0i4q-31" vertex="1">
          <mxGeometry x="470" y="120" width="270" height="240" as="geometry" />
        </mxCell>
        <mxCell id="t97eaOo3kyGEYDDg0i4q-36" value="us-east-1b" style="sketch=0;outlineConnect=0;gradientColor=none;html=1;whiteSpace=wrap;fontSize=12;fontStyle=0;shape=mxgraph.aws4.group;grIcon=mxgraph.aws4.group_availability_zone;strokeColor=#545B64;fillColor=none;verticalAlign=top;align=left;spacingLeft=30;fontColor=#545B64;dashed=1;" parent="t97eaOo3kyGEYDDg0i4q-31" vertex="1">
          <mxGeometry x="454" y="80" width="296" height="300" as="geometry" />
        </mxCell>
        <mxCell id="t97eaOo3kyGEYDDg0i4q-34" value="D5 Public Subnet 1" style="points=[[0,0],[0.25,0],[0.5,0],[0.75,0],[1,0],[1,0.25],[1,0.5],[1,0.75],[1,1],[0.75,1],[0.5,1],[0.25,1],[0,1],[0,0.75],[0,0.5],[0,0.25]];outlineConnect=0;gradientColor=none;html=1;whiteSpace=wrap;fontSize=12;fontStyle=0;container=1;pointerEvents=0;collapsible=0;recursiveResize=0;shape=mxgraph.aws4.group;grIcon=mxgraph.aws4.group_security_group;grStroke=0;strokeColor=#248814;fillColor=#E9F3E6;verticalAlign=top;align=left;spacingLeft=30;fontColor=#248814;dashed=0;" parent="t97eaOo3kyGEYDDg0i4q-31" vertex="1">
          <mxGeometry x="89" y="113" width="291" height="247" as="geometry" />
        </mxCell>
        <mxCell id="t97eaOo3kyGEYDDg0i4q-54" value="port 22, 8080,8000" style="rounded=1;arcSize=10;dashed=1;strokeColor=#ff0000;fillColor=none;gradientColor=none;dashPattern=8 4;strokeWidth=2;verticalAlign=top;" parent="t97eaOo3kyGEYDDg0i4q-34" vertex="1">
          <mxGeometry x="58" y="33" width="232" height="207" as="geometry" />
        </mxCell>
        <mxCell id="t97eaOo3kyGEYDDg0i4q-18" value="d5_instance_1&lt;br&gt;" style="points=[[0,0],[0.25,0],[0.5,0],[0.75,0],[1,0],[1,0.25],[1,0.5],[1,0.75],[1,1],[0.75,1],[0.5,1],[0.25,1],[0,1],[0,0.75],[0,0.5],[0,0.25]];outlineConnect=0;gradientColor=none;html=1;whiteSpace=wrap;fontSize=12;fontStyle=0;container=1;pointerEvents=0;collapsible=0;recursiveResize=0;shape=mxgraph.aws4.group;grIcon=mxgraph.aws4.group_ec2_instance_contents;strokeColor=#D86613;fillColor=none;verticalAlign=top;align=left;spacingLeft=30;fontColor=#D86613;dashed=0;" parent="t97eaOo3kyGEYDDg0i4q-31" vertex="1">
          <mxGeometry x="160" y="164" width="183.5" height="170" as="geometry" />
        </mxCell>
        <mxCell id="t97eaOo3kyGEYDDg0i4q-22" value="Build | Test | Deply" style="shape=image;verticalLabelPosition=bottom;labelBackgroundColor=default;verticalAlign=top;aspect=fixed;imageAspect=0;image=data:image/png,iVBORw0KGgoAAAANSUhEUgAABLAAAAGCCAYAAADwqzrOAACAAElEQVR42uydB3gU17325eTe+Kbd5N7cfElcdmZ3VnXVewXREb0KEMUUgemmd4wwGEzvYMBUU0IXvYPoTTRRBBJd7jbYVMdx4v83Z1SsZXdnZ6Xd1czq/T3P+zj3Sjv1zLDnp3P+x8sLAAAAAAAAAAAAAAAAAAAAAAAAAAAAAAAAAAAAAAAAAAAAAAAAAAAAAAAAAAAAAAAAAAAAAAAAAAAAAAAAAAAAAAAAAAAAAAAAAAAAAAAAAAAAAAAAAAAAAAAAAAAAAAAAAAAAAAAAAAAAAAAAAAAAAAAAAAAAAAAAAAAAAAAAAAConBiNxlcFQXhTr9cHi4k26Aw1jW/qGxl1+pZWw37G81WNHBfmo9MZ3njjjf8VN/MLXEkAAAAAAAAAAAAAUCZ8fX1/b+S4cKNOnypw+lGCjl8ucPwhMdeMHP9Q/C+VP9yPYgrE/33SyOk3Cjw/08Dz/Yx6fW2DwaDDXQAAAAAAAAAAAAAAEn6vv/4nJo2MHDdC4PhNYu45R1CVO08Enj8rZqGYjt4c5y8e7iu4YwAAAAAAAAAAAAAejsFg+AOb0ifw/CyB46+qRFYpStHor90Cpx9s1OlMuJsAAAAAAAAAAAAAHoLxdeMbBh3/jsBxxwSO/5eWpJWd3BV0/AKDztDAZDL9CncaAAAAAAAAAAAAQEMIgvD/CqUVf0LMvz1IWtkcnSVmvsBx8V6YaggAAAAAAAAAAACgTiIiIv7TyPONBR2fKXD8Pz1dWsnklkHHD+V5/o9oFQAAAAAAAAAAAAAqQNDpItgqfgLHf1mJpZW1lQ6fipnto9MZ0EoAAAAAAAAAAAAA3AybImjk+f4Cz+dUpCQK8PamqnEx1LBODUptVI86tGxC3Tu2oXYtGklJa9aQ6tdIprjICPI3elfUcf7LyOlX6fV6Di0HAAAAAAAAAAAAwMVIo604bqXA8T+4UwIF+vpSi4Z1KWNwL9qwZAad27+OPsk5RN9/ct6hfH3zOF0+soV2rllAC6eOoZH93qbUxikUEuDvjvMQr5l+KqYWAgAAAAAAAAAAADifXxh1+pYCpz/uTmmVEBUhCaYDm5fQk3tnHJZVjuRFQTbln91F21fPo4whfahJ3ZrkIxhcVvBd0Om7eaHYOwAAAAAAAAAAAEC5eUXg+SYCx19zl7Ty1huoY6tmkrRiUsmV0speHuWfoIObl0pCq261JOefr47fIwjCm2hmAAAAAAAAAAAAAGXAoNPVMOr4M+4SV2y006CenenGqR0VKq3kcu/CPlo6azy1blKffAxOG531naDTd0CLAwAAAAAAAAAAAFCIUacLEDh+tztHXPXu0o6un9yuWnFlLZ9eOUTL5kygZvXrOGvFwkVGo/FVtEAAAAAAAAAAAAAAG3Ac9zcjxy8ROO5Hd8mr9HYt6dKRzZoSV9Zy7cQ2mjxmkLTSYTmvyUnfN998Da0RAAAAAAAAAAAAoBRvvPHGrwWOGynmqaPCJSYykgb3608LF8ynZo0aK/5c/VrV6Oj2lZoXVy/n6f2zlLlijrSqYTkk1qeGNw2RaJkAAAAAAAAAAAAAhSsLthM4/r5DKwPGxtGwwYNoR2Ym5d/IpVs3b0jJu36dqiXKFzqPDQ+j1R9OpucPznmcvHo5lw5vpF6d20pTJMswnfCpgePqoYkCAAAAAAAAAACg0mLk+WSB4y8oFSoBPr7U8+3utHPbthJh9XJOHjsm/Z61z5t8fGjSu4PoYd4JVUkmtsrhiwdn6cX90/T83ikxJ+n53ZP07O5xenanKHd/zvO7J8T/ir9zT/z9B2fo+wIm4uRXSmRF6Qf3TpeK1DsosX4UdPpuaK0AAAAAAAAAAACoVAhvCEaB4zcrlShV4xNo8gcT6dL5bJviiv1s9vQZ0nRCa9vo0LIJ3Tq7qwIEVaGcYmKKiaint4/Qk7xD9PjGATH76Lvru52Wxzf20pObB+jprcP07PYxSYQVyq2fj4cVqe/esQ0Zeb1DIsvI8xlouQAAAAAAAAAAAPB4DAbDHwROP1Xg+B+USJO01Fa0fu1asymCLyf36hXq0bUr+Rm9rW4jKjSENiyd4aaRVGcLR07dPkZP8g85XVCVWWzl7pWk2bM7x+jF/TPSsZ7es4ZSqldxcDSWfqp4G19BSwYAAAAAAAAAAIAn8oqB5zsJHP+ZElHStlUq7dq+3aa0Ks6F7HOUUqu2jRFDehrcqwt9cf2Ia4RVwTlpVNXT20elUU+Pc/eoQlYpSu5eenori767fYxmjh9O/jbkn9Xo+A/F+/kLNGkAAAAAAAAAAAB4DIY3DVECx59SIkfatEyVrW9VnGNZWTRtylSKiYyyXuA9KoKObFvh/BFW989Io5ge3zygHVmlQGZdOriaqsfH/lvxdEJOv0q8tb9E6wYAAAAAAAAAAICmee21134jcNxsgePtipHGDRrSzq2ZstIqL/c67di2jd4bM5batmlLJl9/q9ti9Z2+zHXeqCtWv4rVrXqcu89zpJWVFJzbTG2apnzvwEis5V6QWAAAAAAAAAAAANAqBp0hUeC4fHsSJDI0lBbOmydb44qJq61bNtPokaOoT68+VK9OitUC5EH+frR6wSSnFV5/dvcEPb6536Ol1ct5eGUnjRmQ/qNSiWXg9B95oSYWAAAAAAAAAAAAtATP8/8lcNwUe6OufAwC9e/bR3ZVQSa1tm7ZQiOGDZfEVfdu3SkuKsbq9hrVqUG5p7Y7pa4VG2313Y09lUpcvZyZGf3JAYk11wsSCwAAAAAAAAAAAFpAeFMIFDj+mj3hUb92Hdq7c4fsdMGsQwfpvYz3JHHF0i29G4UFBVvd3qCenenx3dNOEVeaKsTu4iz8YKjVkW5Wa2Lp+Il4AgAAAAAAAAAAAKBqBJ5vJXDcUznJ4SsYafx7Y+nm9Ws2xdXl8+dp1owZJeKKpWuXrhQSEGhlFJeBFkweU776Vmyq4O2jEFc2smjSUOWrE3L63ngSAAAAAAAAAAAAoEZeETj9eHtyo1qVqrRv10756YKbN9OgAYPM5FXP7j0pLCjEYnshAf60d8Picsmr56zG1Y29EFV2MmPMO0ol1k8GjmuLRwIAAAAAAAAAAACqIdkr+T8EHb/Mntjo1qkzXb10yaa8upidTZMnTjITV8WpllTVYnvJ8bF05diWcq0q+CTvEOSUAxnRp6NSifWDwHHV8XQAAAAAAAAAAABADfxS4PjN9gq1z5gyWbbW1d7du2jwwMFW5VXb1mmW9bNqJNMnOYfKLK+e3T2O6YJlyLfXdlHXtKZKJdZ3hjcM3nhEAAAAAAAAAAAAUJEwebVGTmKEmAJpw9/X2hRXebnXaelHS6hv775W5VWvHr2kbZTeZtN6tenL3CNlLtL+JP8wZFQ58vn5TKqTHK9UYl0zGAx/wKMCAAAAAAAAAACACkHguNly8iI+KpoO7t1rU15dzblMkz+wPmWwOPXqpphts0lKLfr65vGyTRm8f4Ye39gHCeWEXDmwksIDTcoklo7PFJvLK3hiAAAAAAAAAAAA4FYMHNdZTlokxcfRiWNHbcqr82fP0JhR78rKq65d0slHEEq2mVK9Cn1xLavshdqvY8qgM7Nn1XRpBUglEsvI82Px1AAAAAAAAAAAAMBtGDkurLBIt42VBhOT6OzJEzbl1enjx2no4KGy8oolKS6hZJsJURFUkHOwTPLq6e0jEE4uyvz3BylfmVCnq4GnBwAAAAAAAAAAAC7HaDS+KvB8ji1RERMZKQkqW/KKjcoaPGCQXXnVplXrn+toBfjT5SNlW23wKepduSSPb+yVru2zO8ep39vtlU4lfKDT6f4HTxEAAAAAAAAAAABcisDp37clKMKDQ+iATM2rk8eO0SAF8qpH9x4U6OdfNPVMTzvXLiiDvMqmp/mHIJucKa1y99CzW1n04v5ps2v97e1T1KB2daUS6+94igAAAAAAAAAAAOAyfDlOL3D8P6yJCR+DILvaYPbZMzRk0BC78oqlakJSyXbHDe9bppFXT/Igr5yZp/lZ0gqOtq53/tldFGpSVtTdwHFpeJoAAAAAAAAAAADgEgSOW2lLSox/b6xNeXXl0kUaMWyEInnVpGHjkm02rFODntw7U4Zpg1mQTk4cdfX83klF133nmgXSiDkFEutzo9H433iiAAAAAAAAAAAA4FS8Oc5f4Ph/WxMSqc2aU/6NXKvyKi/3Ok0cP0GRvGreuFmJAPE1CJRzNNNxeXUL8sp5YfLqlEPXn42YU7QqoY6fiKcKAAAAAAAAAAAATkXguDnWRASrVcVqW9kafbVk8WLq1aMXderYidJat6H2bdtTeud06t2zd4m46pbejWpVr2G23fdH9iuDvDrq8sLlj3P30Xc39lQKgcUKtDt6D57dO0ctG9ZVIrH+waak4skCAAAAAAAAAACAUzD92fQ7geMfWxMRM6ZMtiquDu/fRwPf6UcRoWHkrTdYjsDh9RTg40u+BqPlSobhYT89yj/hmDi5c8I1tZ9uHaZnd0/S9wXZZvt7UXBOEjyPb+zzzKmDNw/YveYFOQfp4OaldGjLMinHdqykL3OP0INL+ykqJNi+xOL5FXi6AAAAAAAAAAAA4BQEnu9oTUAkxsVT3vXrJdIq69BByhg9mqpVqapsRTobWTR9rEPyiq2Kx6a7OU3eiNt6dvuYbNHyn0VWNj3JP+xxAsvW1MHsA+tpYI9OFBMWavP+JcfHUvXEWCX3+geO4/6GJwwAAAAAAAAAAADlRuD4LdYExJSJE2jV8uU0ZOBAqlOzZrmkVXEiQ4L//e1tB+ouFZxz6igoJqOUiCuPrr11Y4/F+X118xgN6N5RaZF2B8KNwxMGAAAAAAAAAACAcmE0Gl8VOO6pc6WF7YQHBzm08uCTmwedtNrePkUFyx/mnaBTu1fThqUzaOW8D2jz8ll0+cgWev7gHD3JO+ARAkuSeKXO+YtrWVS/RrKL7jn39RtvvPFrPGkAAAAAAAAAAAAoEzzP/1Hg+ZmuFFbeBsv6WDvXLFA26un2EecIm7yDsqOuWGHyTctmUvuWjaTVEa2dR0JUBM2ZOJK+vLjdA4q3HzM7/7dSm7pWXOr0XfG0AQAAAAAAAAAAwFFeETh9b4Hjv3WGoPAxCFQzOZl6vt2dZk+fQevWrKXDBw/Q9Ss5NKj/AIvf79W5rYK6V2ecVKQ9i74vsDG6694ZWj53AlWNi1F8rsnx0XRx7zJt17+6+3MB/X0bF7t81J1Rx5/BIwcAAAAAAAAAAADF+Lzm838Cx+0vr5QICw6mHl270splS+nqpUtWVypk2bZls8VnI0KCpOLocgLr8c39zpFXNrZ/8dBGqlstqUznHhFsovyjaz2igHvPzmlumToqvCEY8fQBAAAAAAAAAADALkwiCDyfV+bpgHoDpaW2orWrPqab16/ZlFalk5d7XZJdL2/r0pHNLi2Y/nKdp5LpgvfP0dSxg21OFVSavp1baXgK4fGS65EYHWk+VTIynNLbNKExA7rSuMHdaESfjtSpVSOKjQgt1/Uy6PgxeAIBAAAAAAAAAAAgi/F14xsCxxWUdYpgv1696djhQ4qkVenk38il5o2bWGxz3eJpNqYOni5/wfab+62O8HqUf4K6pDV3zmqKwYGaFVhP87NKrnVIgD956/XU662WdCLzQ9nP5exfQTPGvEPV4qPLUsw9H08hAAAAAAAAAAAAbBL8l7/8VuD5HIdrF/F66tzhLTp66LBiWXX65AnK3LSJPpw3n8aOyaB+fftRnZq1LLY9cWR/KwIrmx7fKOdKf7m76fl9y1UOP8k5RI3r1nTeaopB2hVYj3P30PN7p+nx9T3UqFZVOrJxrkOff3R1F21d+gHVSopz6Jrp9fpoPI0AAAAAAAAAAACwiqDjlzsqaOJjYmnLhg12pVXu1Su0a8d2WjBvHg0bPJT69OpjkWaNmyoq5M6mtpV7dNHtIxbb/ezqYaqe6Jhs8RMESoqJpAY1q0pho46C/f1Kft6jfQuNr0a4R/rvl5e2lXkbD6/spNnvDXBgOib3Hp5GAAAAAAAAAAAAWGDk+caOyis2XfDKpYuy4oqtMjhvzlwa0G+AVWlVOm1atbbYR7sWjcynDhZk03e5e8s9suj7l6YOPrp1kpqk1FIwTdIg1XpaOnUkXd6/QpIz1vZx68Q62rNqOl05sFLjAst5OZm5kJLjopQIrHN4IgEAAAAAAAAAAGAGz/P/ZeD4O0rFlb+3Dy2aP192iuD2zK3S1EB70qp03urwlsW+GtSubl64/fYRp686yKRY1/apsucc4ONNGQPS6daxtZBR5cin2VuoQ/P69trYvwVB+H94MgEAAAAAAAAAAFCCkef7K5VXUaFhtCMz06a82rtrF707arRD4qo4XTp1tthfSvUqpUTTOakeU3klyvN7p8wE1vK5E2TPObVhbbp+eBUElJPydc4O6tiqoXxdNZ2+HZ5MAAAAAAAAAAAASBiNxlcFjv9UibyKiYy0Waj9QvY5mjJ5cpnEVXHSO6db7LN+rWo/1766lVV+gZK7l74v+Fle3Ty9kwL9/GwWp/9geE+pGDnEk3PzxcWt1Lh2sm2BxfGr8XQCAAAAAAAAAABAgo10USKvoiMi6cihQ1bl1Y6tW2lA/wHlklfSCKyOXSz226Zpg0LZ5KTRV0/yDpqNvurYqpnNWlerZ2dANrkwN46spvBAk606WAV4OgEAAAAAAAAAACAhcPxhe/IqOMBEh/fvsxBXebnX6aNFi8otrorTvm17i32/3aF1Ye2rW0ecIk3Ydorl1cVDG6VRVtbOedXsMZBMbsiKmaNtj8J63fgGnlAAAAAAAAAAAKCSIwjCmwLH/2RPYK1evsJCXt24dpVmTJvuNHklrUKYarkK4cj+3QtHX+XucYoweXbneInA6tW5rdXzHd2vC+SSm8KmZ9ZKirNVB6sFnlIAAAAAAAAAAKCSI3D63vbkVbdOna2OvJo6abJT5RVL86aW0/kWTX+Pnt0+5jRh8uzOMUlePcw7QSYfH4v9tWxQix5e2Qm55MYsnjzMhsDiZ+ApBQAAAAAAAAAAKjmCjt8jJ6/8jN509uQJM3mVfyOX5s2e43R5xdKovuXKdHs3LKLHN/Y5T2DdPioJrG2r5lrsKzI4kO6cWg+p5OZ8fj6TAv18rQmsM3hKAQAAAAAAAACASkyyV/J/GDj+mZzA6tuzp8Xoq/Vr/+4SecVSt1Zti2PIPb7FqbLkSf4hSWCNGdTTYl8rZ42GUKqg9OmUaq0N/hAREfGfeFoBAAAAAAAAAIBKil6vj7Y3fXDvzh1m8urE0aP0Tp93XCawqsQnmu3f1yDQdzcOOFeW5O6l7z/JpnYtGpntq3m9GvTttV2QSRWUtfPG2phGqDPhaQUAAAAAAAAAACopBp7vLievkpOqWEwdfG/MWJfJK5aI0DCzY6hXM9klsoRNI2xa7+fRXt56A53duRgiqQJz/8xG8T7orRVyb4mnFQAAAAAAAAAAqKSwAtlyAuud3n3MBFbmps0ulVcsft7mRdWH9u7kMmHStV3Lkv283b4FJJIKUjc5waIdGnT8GDytAAAAAAAAAABAJUXg+N1yAmvJooVmo69GjhjpUnnVvVt3i2NYMWuMy2RJ5rIphSN8eD2d2/kRBJIK0j89zbIt8vw6PK0AAAAAAAAAAEAlReD4e3IC68ypkyUCa3vmVpePvurQtoPFMWTvXOpSYbJ+8XR6d8DbkEcqyYKJQ6y0Re4KnlYAAAAAAAAAAKAS8tprr/1G4PifbMmrmMhIs+mDGe+OcbnAatakqdkxBPr50sMrO10qTJ7dyqLHN/ZViKx5dHUXfXEh0+Ol1LHN8+nsDmX1xQ6tm211JUKxyf4CTy0AAAAAAAAAAFDJ0Ov1vnKjrxqkpJTIq7OnTrpcXrHUqVnL7BhSG9bxaLFzZvsimjd+oMcLrMVThlP7ZvUV/W7e0bVW26Pvm2++hqcWAAAAAAAAAACoZBh5PlZOYHXu8FaJwFrz8Sq3CKyEuDizY3hvYFePFjsbF75PsRGh9HXODo8XWKzOmJJVHtmoND9BsFyJUGyveGoBAAAAAAAAAIBKhsBxKXICa9jgQSUCa2zGWLcIrNDAILNj2LRogkeLnfUfji8sVD9jlMee4+Pre2jt/Pel8+zdMVXRZ6rFR1sKLJ0+FU8tAAAAAAAAAABQyTDq9O3kBNb7770nyavrV3Kob+++LpdXvXv2Jm+9wewYbh5d42FCZw89zT9Ez+4cp+f3z9CBDQul86weH03fXtvlWeeau4ee3T5G3xeco0Nblknn6WMw0PXDq+x+tkX9mlbapH4QnloAAAAAAAAAAKCSYdDx78gJrBnTpkoC6+ihQ24ZfdWlcxez/UeHBHuQzNlLz+4UypzvPzlfkkuHN5ac7+6Pp7nteC7sWUqfZm9x2faf5B82O9frJ7eXnOeIPh3tfr5L68bWViKcjacWAAAAAAAAAACoRJj+bPqdgedvyAmsWdOnSwJrw7p1bhFYbdukme2/bdMUj5BXT28fpRcF2WbiqjjP7p+TVlqUao61auyeelSTh0n7q5EQQ19e2ub8VR2ZqHvpPJ8/+Pk8A3y86d6pjbLb6J+eZq1NbsKTCwAAAAAAAAAAVBJ4nv+rwPHn5eQVy6IFCySBtVD8rzsEVvPGzcz2/27/dG3XfsrdQ8/vnbQqrkonrVnDkul1N46sdvlxzX9/UMk1XjN3rHPl1e2jNs8ztVFKyX4/GN5TdjtjBnS11iYP4+kFAAAAAAAAAAAqAXq93tfA8XfsyavSAmvmtBluEVj16tQ12//Hs97VtMB6fu+0XXnFMn/SuyXnPNYNqy6yFQGL96e0qLqiaYN5B2TPc9b7w0r2Gx5oos/PZ9rc1vQxfa1NIbyCJxgAAAAAAAAAAPBwBI6LN3L8QyXyimXB3LmSwBo/brxbBFa1KlXN9n9q64fanTZ4K0uRvGK5e2FfSfH60AB/l9amYtm06P2SaxwT6rw6Yy/un5E9z4tZm8zu7/wJg21ua+nUkdba5Gd4igEAAAAAAAAAAE+WVzzfROD4F0rlVeki7qNGjHKLwIqLijHbv9wIHdWPvnpwRrHAYmnVuH7JeU8d3delx3Z8ywKz63x2x+Lyj766sV/RedarlvSzPAsPpS8vbrMh2SZYa5P/wJMMAAAAAAAAAAB4KEadPlXs/P/TEXnFMm3SZElgjRg23C0CKzI0vGTfJh8fDU8f3OOQvGLJXDGn5NyD/f3o7qkNLju+gnObycjrnTqNUOmIswWTRpi1sXnjB1rd3p5V0622SX+O+xueaAAAAAAAAAAAwMMwcFxbseP/L0flFcv4jAy3CqzQoKCSfVeNidB08XZHBdaze+coMTrSJbWprKVqbFTJvljx+Mv7Vzh95UFreXBhB/kahJJ9RwUH0RcXLEfaHd00z2qbNHL8RZ7n/4gnGwAAAAAAAAAA8BAEnu9YVnnFMmTgQElgjXbTFMJAP/+SfTepnqTpAu7fF5xzWGJ9OGWM2fVft2Ccy46vT8dUs331S2/jstUHC5NNz+6epMc3D1B6myZm+56Z0d9ie9k7l8i1zfN+r7/+JzzhAAAAAAAAAACA1uWVTt9V7Oj/u6zyiqVnt25uLeJeWmB1aZKiaYH19PYRhwXWo/wTFB0aYjaNko1EcsXxrZk31uxes1FY5amFxcSU1fMqyJZGZz2+sb/kd3eunGq27/CgQLp/ZqPZ9nKzVttrn5eNRuOf8aQDAAAAAAAAAABalVeFI69+UiKpjDI/a9u6tSSwZkyd5haBFeRvKtl3j2b1NS2wvsvdTc/vnXRYYi2almF2D0IC/F0ise6cWi9Jq9L7alG/Jn17bVfZpV3+Iemcn989Sc9uH6MneQekemAv/96jq7soKTrCfLRf9/Zmv3Pv1Eb7kpXnczCdEAAAAAAAAAAA0KK84rimSqcNNvLxpvpGb5s/b5CSIgmsxR8udIvACgv6efRR96baHoFVXMydFTd/oWRFwoJz9PzuCfrqyi5Kiok0uw9sJBYbteTs42vfrL7FPV87b6xbrs3kkX3M9uut19OxzfNLfv7lpW2KRgkaOP70a6+99hs8+QAAAAAAAAAAgEYw6HQ1xE79D0o6/k18fKggIY6Gmkw2fyc5IVESWJvWbyiRTJ3e6kSNGjSkpIQEadXAoAAT+Xv7SKOnQgODKCE2jurWqk1t26RR7x69HRJYMRE/FxZvX6eaBwisUlPsbuyjJ3mHpFpRbHTSs7vHpal1T/MPF41U+vl3M5d8YLn6ntFIh9bNduoxrX1pGiFLbEQofXJus0uuwYOzm2j/2pmUMSBdGln28r5TqiXSwys7S37/5RFitsPtN5lMv8IbAAAAAAAAAAAAUDnePB8jduafK+nwN/fxoU8T4+jbpHhaVKrm0ssJDw6RBNbunTupUf0G4v8d6lANLT+jN1WvWk2SXkoEVlJcQsln68ZGeZTAcjRtm6ZYXM+Y0GD6NHuL0/bxdc4Oig2zvP8DuqY5vK0vLm6l3R9PoznjBtK7/dOlovAdWzWk5vVqSCPKAny8FbWZ5dNHlWzTmuSyPRVWv1F8DH6JNwEAAAAAAAAAAKBSDG8YgsRO/LdKOvqtfH3p84RYSV6x7I2KsPm7PgaB5s6eRZFh4VSeYvBGXk/JiVWoa3pXWYHFRm4VfybYx6dSC6yLe5eRr3j9X76Ws98b4NT9TB3d1+o9c2TKIiv+zqY5lqeNFI8yy9m/omS7cRGOCVMDp/9IfBxewRsBAAAAAAAAAABQGTzP/1XguAIlHfzWTF4VjbwqzrmY6HKLB6XxFYzUsmkLmwKrZbMWZr+fd3StpiXU9cOr6O6pDWX67OfnM6l21XhLAdmojlOPka3+F2YKsNgPk0cFCqcSnt+1pNxtg9XAWvNS/a3EKMfFqYHnh+GtAAAAAAAAAAAAqAhWvJoVsVbSsW/s7WMhr1iOvVQw3B2pUa2aVYHVpWNns9/b8OF4zcqrWyfWlYxKMvn6UsNaVaRpdWwEFRvdlJu12urnbp9cR0umjbBYpa84dZLjnX6ss8b2t7qvXm+1VPR5VnA92N+vzO0h0M+Xtnw00WK77FzLsL2fjDp9Kt4OAAAAAAAAAACAOnhF4Pl1Sjr1dbyN9KDUtMHSmRUS7HaBJRWIT6piVWKxovDFvzOyT0fNCqwZY96xew2C/Hypenw0Na6dLAmuhMhwaSSS3Gda1K/p9GNlAio+Iszq/lbMGKVoG8N6vVWmdpDasDZdPbjS6jbrVU8qa/t6zmrC4RUBAAAAAAAAAABUMEYdP1GRKDIKdCveurxiqxDGWqmz5K6k1K5rIbBY0ffinzOBoVWB9Xa7Zi65ZuOHdHfJ8X48612r+2OjyFg9Lnuf/+x8JtWqonzEFJN225ZOkt0mKwD/8ue6+/sq3cfnxteNb+BNAQAAAAAAAAAAVBAGjktjU6XsdeLjBANdi4u2Kq9YegcEOCxQAry9Kb1dS1o+dwKd3b+OPr+aRc/un5PyxbUs6f83f9K7VLdakqLi7mmt2pgJrFYtU38uIq83SGJEiwKrrCOS7I3YYnW1XHG8j67uosa1km1OW2SrDCqp25UxIJ1CraweyEaWsZpe7w3qRiczFyo6JmsCa0VYEA0zKWy3PJ8T/Je//BZvDAAAAAAAAAAAwM3o9foQNkXKXuc9RK+XCrTbklfLw0IckiehJhPNnjBCElbff3Lebl4UZNP6j6ZTWGCg/HEGBlHvHr1LBFbP7j2l1Q+Lf77742maFFjndn5EfoLzRrexkVC7Pp7q0mO+sHuJtBKgtf337dxK8XYeXtkpFXbfu3qGlNPbFtInCgvC2xNY68JD6EpsBKUrHIll5PSr8NYAAAAAAAAAAADciMFg+IPYKb9pr9Puw+tpa0S4TXn1eUIsheoNiuVJ3/T2isXVy7mYtYmiQuVlWZOGjc1GYcVERLl8ypw7krnkg3IVNy9OTGgwHV4/xy3HPH1MX5vHMW/8QLdeP2sCa2tEocC6KKaJt7dCicX1xNsDAAAAAAAAAABwD68YOf1GJR32+SEhNuUVy+rwMEUdfx/BQKsWTC6TuCqdq8cyKUhG5IQFh5gJrJTadUp+1iylhmYFFsvNo2toeO+OFGJlWp29sGl3Pdo3l1YmdNfxstFTDWpWtd4eDAbas2p6hQqsXZGhksBiOREdTomCIhH7g+FNQxReIQAAAAAAAAAAgIsROG6gEukx1GSSlVcsab4+drfjJxhp97pF5ZZXxfl4/iTZ/XXq0LFEYLVObVXqOARF9ZfUnq8ub6cDa2fS3HEDqNdbLaVVB6vERlJ4UCAF+HhTZHAgJcdFUZM61WhA1zRaPHmYouLpLplKuGepNGXR2n0KDzTRlQMr3XIc1mpyHYoKKxFYLPsiwyjYzsqNRbnn9/rrf8KbBAAAAAAAAAAAcJW80ukSxA74P+110tv4+tI3iXGy8uqzhDjyU1BcfeOymU6TV8VJa9bQ9qp0DRqVCKy32ncw+xmro6R1gaW1rJ6dYfNesaLun7uhuD7bz8v7PhltLrBYVocHkzevSGLtEh+nV/BGAQAAAAAAAAAAnIyvr+/vxY73XXud83iDQHcSYu2OvtoeGW63o58xpI/8lMDjW2jiiL7UqXUTal6/FnXv0JKmjhlIV45spO8LbH/uxM7VNvdZNTGpRGC1b9vO7GeTR/aCVKqA9EtvY/N+dU1rSt9e2+XS/SfFRFrsNzsm3EJgsYwNVLgyoY7vi7cKAAAAAAAAAADgZIwcv9TudD8xR6Mj7corlnFBQbLbSoiKoEe3TloVUA/zT9DwPp1lP5/asDad3bmMnt1l28i22EZq4xSrn4uNjC4RWDWrmdc+Sm/TBEKpAsKmbtaqEm/zXk8e2cel+48JDzXbnz+vtyqvWHLEtPHxUSKxXnhznD/eLAAAAAAAAAAAgJMQOK6pklElC0JDFMkrlva+8qvi2Zo6+Oz+OUprWk9x8fGpo/vSt9d309NbWfTi/pmS7axbPM16IffAYGrTqjVVq5IsTWEs/TNWGwpCqWLC6l2F2ihAz+7TmnljXbbvlwvfRxkMNgUWy+nocGkkov02qs+OiIj4T7xhAAAAAAAAAACAcsLz/F/FzvZX9jrjPfz9FcsrlliD7VXbGtWpQS8Ksq0KrAkj+jq8il7fLq2Kppntoaf5h+j5vdP0Td4JCvT1dWg7bPW7R1d3QShVUFgNMh8b7YYV2d+/dqbT98nazcsis6bRKCuwWLZGhEgjtRRIrPF4ywAAAAAAAAAAAOXEyHHb7XXCk40CfWqnaLt5AfdY2WLXbHSUNXn12dXDNlels5d3+6ebiYkneQepa7uWDm/nzqn1kEkVmAUTBtu8N2ykVPbOJU7d3/3TGyz209TH267AYpkSbFLSpv4lPmNxeNMAAAAAqqC3GFJZ/HBb0F7QXgAAwJ680unb2R2VxOsV171i+Soxlo7EhNncnr/Rmx7mnbAqsKaNHSr9Trtm9ejw+jl0Yc9S6t6+uWL5tH3pZDM5sXjKcIcF1oXdSyCSKjgDuqbZvD9xEaGUd3St0/aVs3+FxT7a+/koElisHlYrZcL1utFofBVvHAAAAABCAkIC7QXtBQAAHMTv9df/pGTq4PtBQYrl1TdJcXQ9NpJ2RITa3F67Fo1srh6Y2qgeDe7Rnh5e2VkiGJrXq6FYPsVHhNEXFzJLPnv14EqH5FX7ZvXN9o1UTL7O2SF73+skx9Mn5zY7ZV/Htyyw2H5vfz9FAovlaHQYhentTyU06Ph38dYBAAAAICQgJNBe0F4AAMBBjBy/xF6nu4G3D32tUF49TIynG3GRUqd+XXiI7RXlxgyyKq+e3j9L08YOLqplZXt0TJgpgHp3TKWeHVqQyUqNKzbqymyFudBgu3KB1VfKGJBOX17aBoGkktw9tUEabWXrnrVuVEcSXeXdz7Zlky22PVJsY0oFFsvi0CAlgvQfBoPBB28eAAAAAEICQgLtBe0FAACUyiueryp2qH+S63AH8Hq6EBulSF49EpMfH1XSoZcTWLZWH2RF3Z/dOWYmF1bMGGVeXDsxlm6dWFfyczbFMCbcXHLUrhpvto30Nk2sHkdUcJAkQWZm9DfbJqKenN2xWLYmWte0puWWWEunjrTY7oxgk0MCi6Wrn6IFAw6Jj98reAMBAAAAEBIQEmgvaC8AAGBPXhmNr4od6Rv2OtuzQ0IUTx28Ex9t1pmXE1hZW5fbnEL4JP+weS2kbm3NPrtn1XQLAXHw77MsVpFjI7dKj+Jiq9uxsFXsLu5dRl9exEgrrWTb0kk2VyZk6diyodm0UUfzwfCeFtv8ODzYYYF1NiacomWOsyQ83xFvIQAAAABCAkIC7QXtBQAA7CBw+tH2Otn1vL3pm0Rl8qogIcaiM78pwrbAOrFztU2B9fjGPjO5wEZIlR59VXp6Yen0est8tcGPZ70L+eNBWTV7jIWkLJ3GtZLLPIquf7plwfhdkaEOCyzlUwm5r3U63f/gTQQAAABASEBIoL2gvQAAgA04jvub2IF+am/VwRMxyqYOfp4QS1etdOT3RYY5LLBePDhrIRdqJcWVfG547442JcSlfcvJu1Qh7VHvdIb48bDMyOgnK4aqxUdTbtZqh7fbtmmKxbbOxISXSWCxtFGwKqGB46fjbaRpTqvwy2xxZuL2AAAAhARAewEAAM2jpHD7qCCTInn1dWIcXYuz3om/EBNhc/s71sy3KrCe3z1hIRcSIsNLPrd8+ihZEVF6FFbfzq0gfTww/dLbyLZdVv/smyuO1cSqkRBjto0gXl9mecWSFRVGJr3dWlg/CG8IRryRILAgsAAAAEICQgLtBe0FAABeQq/Xh4gd53/LdazjBAN9mhinqGj7zaIVB20lXG99yteyOROsr0J464iswDqwdqasiDi/a0nJKKxubZtB+LgxT/MOWUz/dEVYwfY6yfGycmjfmhmKt/fwyk7yNQhmn68hCOUSWCwTgkxKCrpvwlsJAgsCCwAAICQgJNBe0F4AAOAlBE5/wF6nelNEmKLRV/fiY+x24usYBav7GDOop/UC7nkHLQRDldjIks9l71xiV0h0a9tU+t2eHVpALLkle+jF/dMl9/DZ3eP0OHePS/d5dNM82Ta8dt5Yxdu6cmClxefb+/qUW2BdjgmnmkajXYnlrddXwZsJAgsCCwAAICRwW9Be0F4AAKAIo07f0F5nuqWPj7K6V4mxijrxbX2t1wJq1bi+VYH1nRXx0bRu9ZLP3Ty6xq6QYL8TEuBP4wZ3g1xyx8irW0csp4LeO+3y/davUcVmO7a2UqWt7FgxxeLzQ0z+5RZYLKvDg5UUdD8nPp6/wBsKAgsCCwAAICQA2gvaCwAAiB1kgedzZEeCiDkZE2lXXj1MjKPrsZGKOvAjAv2t7ivQz4+e3DtjLj4enLMqGPp0TC353CfnNiuSEofXz6H1H46HYHLH6KsHZ21MB81y6b6ZoLS6AIHBQPfPbFS8nQUTh1hsY1ZIoFMEltKC7kadPhWvKAgsCCwAAICQAGgvaC8AgEqP2EFuaa8T3TfAX9Hoq/y4KMWd9xVhQTb3d3zHKvMVCO+fsSoYpozq47DAQtyTJzcPWpVX7hiFNfu9AVbbVfN6NRzazsC321psY314sNME1t6oUPKxNwqL53O8MAoLAgsCCwAAICQA2gvaCwCgkmN39JWJ19PNuFi78uoTBXWvSudkdBgZbexz4sj+LwmPU1YFQ9aGuRBYKs2zO8dsCqwXBdku3feodzpbbVczxrzj0HYa10q22MaJ6HCnCSyWfgF+GIUFgQWBBQAAEBIQEmgvaC8AACAH6xjb6zxPDA60K6++SYynq2XovFcRrBdyT46PNRMez+6esCoYvrmyg0IDCqciFkBgqSrPH5yxLq/un6bHN/e7dN+NalW12q5YUXZHViAM8PE2+3yo3uBUeVUsckNsrMiJUVgQWBBYAAAAIQEhgfaC9gIAAApGX7EO+4ME+6Ov8uOjytR5f9vf9uiTU7tX/yyw7hy3KRoyBqRLv3/jyGqII5WErTRoTV49u33M5fs+v2sJGXlLIcRGUzmynYt7l1lso6m3t9MFFssoUwBGYUFgQWABAACEBIQE2gvaCwAAWEPsELew12meHBxkV159qnDVQWv5KNR2Haz+3TsqElhsZUGTjw8ElkrCRsLNGT/YXF4VnKMneQfdsv/epQr7l87MjP4Obefv89+zbJMBfi4RWGdiwu2PwuK4K+Jj+wreXBBYEFgAAAAhAdBe0F4AAJUKsVN8Sq7DHKY3UEFCnPyqg0lxdC0usswd9/Nixz2Qt95xD/D2pk9yDhVNITwpKxvWLRgHgaWSjO7XhcKDAun5g3M/TxnM3eeWkVdDureXVhq01p72r51Z7jpazlyB8OWMDlQwCovn6+DNBYEFgQUAABASAO0F7QUAUGkQO8Kxzhh9dSc+utwd905+vjaPYezQvoVF3B+csSscvr22CwKpgsNqkoUVTYfLPrCentsRj87InlXTqXWjOrJtuU5yPOUdXevQdhvWqmKxncyIEJcJLIWjsPbj7QWBBYEFAAAQEgDtBe0FAFBpEHh+XXlHX32ZGOeUjrvcNEI2NbAg5yB9X3Cevru+B5JI5dm3ZkbJvftwyiiX7efR1V20efEEm8XaS0bx+XhLKw8ysebI9r+4uNViJJc3z9OFmAiXCSzFo7A4LgxvMAgsCCwAAICQAGgvaC8AAI/HYDDoBI77Ua6TPEHByoN5ZSzcbm0aYZjMyJO+6e2lUVhPbh6AJFJ5Fk8eVnLfurVt5vTtf3lpGy2dOpKqxUfbFT1pTeo6tOpg6RxeP8diezUFwaXyiuV0dDiZ9Ly9FQlX4C0GgQWBBQAAEBIA7QXtBQDg8QgcN0Wug+wnJj8+RlZefVaOwu3WMtzkL1P3R0/HdqykZ3eOQRKpPO8P6VFy31gdrK9zdjhlu/fPbKTpY/pSVHCQXXGVEBlOmxZNKNf+pozqY7Hdnv5+LhdYLH0D/Oyd4w8cx/0NbzIILAgsAACAkABoL2gvAACPxfRn0+/EDvC3ch3kvgH+svLqkZgbsZFO7bQfiQ4jf972KKwqsdH01fUsTCNUedh0vdL3be28seXaXvbOJTSyT0cy+fraFVf+RiNNGNqDvriQWe7zaFG/plsLuJfOvsgw8rZzrgLHvYe3GQQWBBYAAEBIALQXtBcAgMdi5PTp9kTA6ZgoWYH1SUKMSzruPfzlJUXPzmn0+OZBiCIVZ8WMUWb3LDYshPIdLJ5+69haWjBxCDWoWdWutGJhtaoGdE1z2iqUn5/PJF+DYLGfPZGhbhFYLG18fOwJrALxcf4l3mgQWBBYAAAAIQHQXtBeAAAeidj5PSnXMU718bU7+uq6k0dfFWd3ZCj52JEVk0YPoO9yIYrUmnM7P7K4Z9EhwVLdqnunNlr8/leXt9Pl/Sto+9LJNLpfF6pdNV6RtCqeWvp2u2Z0ce+yMh/vnVPr6dPsLWb/vx0rpljsK1RvoBw3ySuWteHBCq4Bl4I3GgQWBBYAAEBIALQXtBcAgMdh1OkC7HWKMyPDZQXW/fgYl3bcBwT425UWS6a/6zThwuQJm/Y2sFs7Or1rJT25sQ8iqpyrAyZGhdu8fxHBJqkAOxtdFRMeKt1PpcKq9MqUQ7q3L5e4YjJt3OBu1KF5fYufjerbyWKfLcV9XnGjwGKpZTTKXgcDx23AWw0CCwILAAAgJADaC9oLAMDjMHD6aXId4liDQN8k2pZXD8WfXXPR6KvinIkJp0i9wa7EmJHRr1yi5fbJddTrrZZmAmVon/TC1Q7zD0NGlSOTR/ZxWEopCRNjTDbeP72hzMf24OwmqU5WkJ+vdO+PZy6w+B1rAm5sYIDbBda04EC7xdyNRuOf8WaDwILAAgAACAmA9oL2AgDwGEwm06/EDu9Xch3icUFBsqOvHiREu6XjzoplKxEaPdo3t5j+pSSH18+h2IhQy+mTjVMkgfWiIJu+y0Wx+LLms/OZVq9vWVIlNpLGDuwqiaZvr+0qV10rJtZCSo3w69Mx1eL3zu5cbPU4tkSEul1gMZkbYGeEmpHn++PtBoEFgQUAABASAO0F7QUA4DEYOK6ZbEdYTE5sTIXUvno5rNZQmq+PIsGREBlOf5//niK5waa3TXu3r1T029q2enVuKwkslqe3MAqrPNmzajr5CYLDwopNL+zdMZUWTBhMZ7YvKvdxsBpb88VtRb40mik0wJ/yj//d4venjLIcPRai19PlmHC3CyyWdH97qy9yV/B2g8CCwAIAAAgJUGGkislWWTjcFgCApjFy+o1yHWFW40du9FWBi2tfvZxT0eEUZzAoFh91kuNp/vuD6ObRNRZS4uGVnbR/7UxqUb+m7DYOZy77WWDdOQ4RVc5sWzaZhvXsQD07tKC2TVMorUndkrDi6wO6taX3h/SgJdNGSMLr/pmNTts3u+crZo6WBKe1e832ae1z9WtUsfjdtr4+FSKvWNaFh9hv/28KgXjDQWBBYAEAAAQWAAAAoHmC//KX34od3edyneA14WHyo6/i3N953xERSmF6x4t8hwcFSrKKiRL2X1bvyN5n+qa3L5FXLM/vnax0wmn17AyaOrqvVB9Mq+fw5aVt0oqH1eOjbd7r5vVqWB2xd2nfcusrXwabKkxgsdGIiYLB3jTCDLzlILAgsAAAAAILAAAA0DxGnb6lXAc4iNfTF4lxNgXWJwkxFdaB3xQRQiY975Ki4CWjzxrVpUe3TpoJrBf3T1c6gVVwbjOFmQLI32ikvp1b0aZF75epxlhF5OrBlfTB8J4UFRwke6/Z+V0/vMrqNiaN6Gn1M3siQyus/bOMDgyw14av4S0HgQWBBQAAEFgAAACA5hF4fr1cB7inv7/s9MHcuMgK7cBvDg+hUL3BJfKqeYO69E3eCTN5VVjI/ZzmhdTjG3ulFRWf3joiJoue5B2k78T/n9xnVs4abXZ9WB2r1o3q0MyM/tI0TCa51CStFk8eJo2oMvL2R+qx39m+dLLN7SXHRVnWWBPPvyLbPsveKPsF8Y06XQDedBBYEFgAAACBBQAAAGiW11577TcGjn8m1/ndFGF7+iAbmVXRHXgWNgqmahmKgsulfq1q9NXNYxbyqjjfXdfuSoTP7hy3eV4vHpymp/lZ9F2u9c92b99c9rolxURS17SmNH5Id1o2bRTtXT2DrhxYSV/n7HDJubDi+2zUFKuTtWDiEBrQNY2SoiMcvt/vDepmcx/HNs+3+pkBAf6qaP817LR9g44fg7cdBBYEFgAAQGABAAAAmsXAcc3lOr6Bevnpg7fjo1XRgWc5Fx1BnRXUs1KSIH8/yj+7y6bkYXl8Y582BVbuXtnzen73pOy5MRHFRl2V5bqGBPhTldhIalwrmTo0r0892jenwT3a0Yg+HWnc4G7SKn9sNFfpsKl77GfFmTC0h3ltrjkZ5b7fbEokE2G2zplJMeu14YJV0fbtTyPEaoQQWBBYAAAAgQUAAABoGEHHL5fr+PaQmT74MDGOrqpEXpXOktAgh1YotJbhfbvJSh6WJzcPalJgPbmx3+Y5Pb19RFkx9IvbqFvbpi6tPSaX/KNr7damUho2WoytSihX+8vk62u1NtwllbT53ZH2pxH66HQGvPEgsCCwAAAAAgsAAADQIq+IHdvP5Dq9G2WmD96Pj1GdvCrO+ZhwyggKoIgy1sbasHSGXYH17FaWR43Aen73hEPbYSv1zRjzjlQHy90Ci01LLD4ONvWvrNvp1KqR3amNiyYNtf5ZP19VtflqRjvTCHm+B155EFgQWAAAAIEFAAAAaA69Xh8i1+H15/X0uY3pg4/EXI+LUK3AKi2ypgabqKG3kbwdEBsr5k20L7DuHNdsDazvC869dD7Zktgqy7bO71pCzVJquFVgsWmDxfsf1rODw59nBduZ+JIbeVUs6eokx1vdxryQQFW19eEmf3vnvQVvPQgsCCwAAIDAAgAAADSHQccPlevwtvXztTn66vOEWNXLq5eTFRVGU4JN1FU8ryqCQEaZc39/ZD+7AuvF/TOaFVjs2OVGXx1eP4e6tG5MKcmJVK96En11ebvdbW5d+oH0++4QWPPGDyzzCKyo4CDavnyyouu0++NpVrfhx/N0OjpcVe17Q3iwvXN/HBER8Z9480FgQWABAAAEFgAAAKApxA7tIbkO75yQYJsC61Z8lOYE1suJkple2CWtuX2BVZCt2ZUIn901X4XwSf5hs5+zAuulr8dHU4cr3vb+tTMpvU0T8jcaXSawZmT0K9nf9DF9FX3Gx2Cg4b07SjWtlJ5L26Yp1uWur4/q2vPlmHAK1utlr4G3Xl8Fbz4ILAgsAACAwAIAAAA0g+nPpt+JHdp/yHV2z8VEWy/enhSneXnFUtfbtmCJCQu1K7C0vBLh0/ws2fPYs2o6kx0l1yMxKpy+uLjVoX3cP7ORlk0bRR1bNaTQAH+XCSxbNaqKE+zvJ00zvH7oY4eO/8z2RTa3uTA0SJVtur2vj51rp38fbz8ILAgsAACAwAIAAAA0g8BxKXId3RiDYHP01ScJMR4hsNpbWVmudB5c2m9/JcKXRi6VJ19cyHSbwHp8c/9LI8ksf2f+hMFSraji68EkUFn3x2pNndr6Ic0dN4A6pTaUpvGVR2CNH/x2ybbXzB1r8fP4iDB6p0trWrdgnLRiYlmOuU/HVKv7ZqsPstpqamzT04ID5Qu5c/xpvP0gsCCwXMZ/iHlTTJyYlmL6i5kmZr2YLDFnxOSIyRfziZiHYl6I+beY52K+FnNfTK6YC2KOi9lSdE/YtpqJCRfzJ1xq4ACviokU01nMBDHrxBwtameszT0V808x/yr631+KuSvmqpgjYlaIyRDTUUySmN/hkkJgAQDwjgZm/G/Rd7TmRd/Z2KCBBUX3c7+Y82JuiXkg5gsxj8Q8K7q3PxX9l30XfCzmGzGfF31fZJ87LGarmI/FzBAzTEwnMfWL2s7rYn5RCQSW/n25jm7/gACbAisvLtIjBNYgk59sZ3/n2gUKCrkfc5pUYlPv9q2Z4fZC7i8+ybb5OwtKSSz238wlHzht/2wq3/HMBVJB9glDe1DvjqmU1qQuNaxVharGRlF4oMlsFJgtgZWzf4U0xXHDh+PpyMa59ODspnIf24U9S23uu7e/n2rb9KGoMDvyj/vxtdde+w3+jYHAgsAqN78VE1/UkV0q5lLRlw933Scmv3YXfWlNgdQCpfgvMXXETBaT7YJ2+a8iwTpPTFrRl3YILAgsAADe0ZUB9n2rppjBYtYUff97rIJ/A1g7ui3mkJhlRd8P2xYJrt97iMDiD8p1dP8eEWZVXn3jIdMHWdg0MLlrkDG4t12B9fz+KacJncv7V1BsWAjdO7XRLQLr+d2ThQLrwVnZ32MSq/iamHx86ODfZ2m2eL3SvN2umfXVC8XsigxVdbtOMgiogwWBBYHlfJj4bVj017TrXoWjptR279hf6haLqSfmV7hlEuyvkskqiyv+iMAW6GgiZq1X4V/o3f2leZdX4V///wiBBYFlp+M+Qsx4DaQ63kN4R+MdDYra6FtiVnsVjp4ijebTIrk1X0x3r8LZApoarfdLgeOeynVyr8XFWBVYDxKiPUZgZdkZrVK3WpKiOljOKuT+5aVtUqFxVjPq22u7XC9qcvfSk7yD9PRWlv3pdJ1SzSQWW53PU+UVq31Veupk6TT18VZ9u2arbMpOI9TxQ/FvEQQWBJayv/WI6Stmj5h/aOyLyuOiL8otvSr3dAJPFw3sizWbcvKFSs7tH0WS14B2BYFlRV7t0cj7c6OT/wiA9oJ3NN7R2oJNBZwq5pqGhZWSsKmL7I+fm8SM9iocGfg/qrwj3jwfKtfBjTYYbE4fvBkX5TECiyXWYJCvg3X5gP1C7jcPOE2eNEupIe2XFSZXk9T57HymNK2v1Cge+mB4T6m2lacJrJdXYCydpaHBqm/TU4NN8gKL57fh3yUILAgsm7CpgV3EnPWgLyiszhYbmRUIgeUxnSMmVz8S84NK29y/iv5a7Yd2BYFVJK/2auR9yaaE/xLtBc8S3tGVDlbDdFglkFZKpFaemFVi+oiJ9iocQVixGDmul1wHN93Pz/r0wcR4j5JXLH0C5Otgrf5wsl2B9fT2UafJk8kj+0j7DfD2puydS1Qldli9Kt+XpqfVq57kUVMKty+fbLMtNBDvSY4G2vTOyBB7RfC/wr9REFgQWBaEeBUOq37s4V9MWCFRVvTzFQgsTXaO/k/MbC/31lsr79SVcUUCA+2qcgqsX4vZp5H2OsNF70a0F7yj8Y5WL0FehbWs/lXJxZVcWHH5g16FdbVqFP2x170YOO5juQ7unJBg66sPxsd4nMBaHR4s29nv0raFXYH14v5ppwkUtlJf8b5rJsbSFxe3qkrwzBjzjtXr1L5Zfdr18VR6dHWXZuXVN1d2ULX4aJu1rzZFhGiiTV8WE2RjCmTJKKw3DN5wSBBYEFgStcScrIRfRthf19pAYGmmc8Q61W+L+VbD7a0a2lWlE1i/LpLmWmijGWgveJbwjq5UsGmCbGW/nyCoHM6PXoUzFdyH2IG9Jte5PRIdaVVg5cdHeZzAuhwTTmF62519f6M3Pcw7YX8aoZPqYLE0rp1csv93urRWleRhUwZbNapj83pViY2kicN60PEtCzQns+aOG2DzvDr7+WqqXbfw8ZYfhcXzreCQILAqucCK9SosZlnZv4QweRcNgaXqzpFRzHEPaGts4YOhaFeVRmAxeXVAA+2SdV7fQXvBs4R3tEe9o+X4g5i5XupcjEdrcQ8mk+lXAsf9aKtj68Pz9GVinIW8epgYT1c9TF4Vp3+Av2xnf8uK2XYF1pP8Q04TKatnZ5jtf9XsMaoSPflH11JkcKC9aWrS73Ru1Zimj+lLe1ZNp9ys1aqVWuzYAm0UPzfpeToSFaapNj0y0N/O/dGPh0OCwKqkAovVgcrElw6LDtzHXoXFZiGw1NU56uzl/hWrXB1Wd+W/0K48WmAxeXVQA22RTRnqhPaCZwnvaI97R9siVczn+N6nMYFleMMQJNexrWn0tjr66tOEWI+UVyz7IsPIW+aadG7T3K7Aen73hNNkytc5OygpJtJs1b8Le5aqSviwuld+gmBXYlmOaDNSjYQYalG/JvVo35xG9ulI4wZ3kwrCz8zoL42CWjp1pNV8+MFQ6XdY2FRG9jkWto3BPdrRgbUzy3QubMXHtk1TbB5zRlCA5tr0wtAge/diMxwSBFYlE1ivipmEv7jZrXHQDQJLFZ2jXxdJRU9ta+wd+N9oVx4pJH6jEXnFims3R3vBs4R3tEe+o1+GFSGfi+95WhVYHJcm17Ht4e9vVWDdjo/2WIFlb8qVj2Cg+xf3ydfBKsh2qiDauPB9s2OolRSnunpYbGSY0U6tJXclyM+X7p3aWKbz+HjWuza3myTe+wsx2mvPeyJD7VwzLh8OCQKrEgmsSC+sKuNINoj5IwRWhXWOODEXKkE7O1YkO9CuPEdIsPuphanZTNbXRnvBs4R3tMe+o0vzFzFH8d1OwwLLqOMnynVsp4UEWRVY1+IiPFpgrbFTzH3OB6Psr0boxGmEbFQQG6VU+hj6dEpV3dS7xVOGq0JisRFaZTn+W8fWUpgpwOZ2F4cGaba2m7/8ffl38F/+8lsvAIHl2QKL/cWNra7zI75kOJz7YhIhsNzeOYoQ80UlamdsdbpX0a48Qkiwju5hDbQ5VmQ7Hu0FAgvvaI9+Rxfzppi7+E6ncYElcPodsvWeIsMt5NVXiXEeLa+K097Px+Z1qZEYL42yctc0QpYLu5dQgLf5yLB54weqTmJtWjRBmuZYUfKKTR8s67F3Sm1oc7spRiPlaLg91xaPX+666fV6Ty7cDIEFgfVmJfkLqavrwwyDwHJb5yhFzLNK2M5WoV1pXkiwP4hlaaCtfSkmFO0FAgvvaI9/RzP+6lW4uiK+z2lfYPF35Tq1ObExFgKrICGmUgisQ1FhFCAzauXEztV2R2F9l7vXpSvj+RgMUkF0tUmsi3uXUfN6Ndwqrlg9rUkjekuj1Zw9dZBlSViQpttzVxtF6UutRPgWPBIElocKrCgvFOl0ZljdiF9AYLm0c9RMzD8rcRvrinalWSHB5NURDbSxB2J80F4gsPCOrhTv6P8VcxXf3zxAYCV7Jf+H3AqEJl5PD61MH8yPj6oUAoslI9D2dLKBPTrZn0Z4K8upYujhlZ2U2rC22XGEBvjTlQMrVSex2AqDmxdPkESWK6cV1queRFNH96Xrhz4u87HmHV0rXUdb+4gyGKRpeFpuy2Nl2jKLkefHwiNBYHmgwGoh5gW+VLikLhamermmc9TKC9Nc2TMbhHalOSHxOy9t1JZhozB0aC8QWHhHV5p39HZ8b/MQgcWLyHVoa1lZgfCRmKuxkZVGYF0Sk2xjdb0gfz96mHdCvpj7/TNOF0O3T66jmPBQi6Lun5zbrDqJVZzrh1dJ9bH6pbeRjtVb77jQ8jUIVC0+mjo0r08ThvagbUsn0Z1T651SX6xds3qy++4t3mutt2W7KxHy/Ap4JAgsDxNYw8X8hC8ULgurb/MHCCyndo6aoGNUkutehXXr0K60ISS0Iq8ueRUWcUZ7gcDCO7pyvKP74V55kMAy8nyyXIe2g5+fhcD6spLUvyqddeEhZLRxjT6aOc7uKKzHNw84XQhlbZhLfi+JNVa/6eucHaqVWKXz+flMaZrh4fVzaP2H46Wi64smDaWZGf2lLJgwmFbPyaAdK6bQsc3zJQHGRp+5qvC8PXk2Odik+XacGREie44GHX8EHgkCy4ME1iR8kXBLzov5PQSWUzpHNcT8A23KLIPRrjQhJJi8OqaB9nTSSx0rqkJg4R2Nd7R7CBHzA+6TBwksQafvINehHWoyWQisBwnRlU5gsbTztV6UvFpCLD1/cE6+mPu9ky4RLytnjbY4nj4dU6Wpe1qQWGpIzv4VZPL1tSuwhpj8Nd+GT0aH2TvP+/BIEFgeIrBG4UuEW3NAzK8gGsrVOQoT8xRtySJPxPwN7UrVQoLJq+MaaEts9bTfor1AYOEdXane0YdxjzxMYBl0/LtyHdqZIcEWAutWXFSlFFhbIkJtXqcda+bbGYWVTY9v7HOJgBk/+G2L4xnWswPklIJ8c2UHNalTTdH0xWC9nk5Eh2u+HQfK1iLjfmR18eCSILA0LrD64gtEhWStmFcgGsqUmmI+RRuymY/RrlQrJH6vEXm1WWWSHQIL72i8o11PPdwbjxyBxS+T67SvDw+zEFjX4iIqpcBiqWKjFlaTlFp2pxE+u3PcJRKG1W9io65ePqb3h/SApLKTYb3ecqgGVxNvb7qo8TZcTTDKniOriweXBIGlYYHVyQs1ryoy0yEayhSskCkf9kz7oF2pTkgweXVCA+1nuZhfor1AYOEdXane0Wyl5BzcG8+sgbVPrjN7LCbSTF59XQnrX5VOH38/m9fqwOYl8sXcpVFYe10iYljdq9aN6lgc09xxAyCqbOSjqcPLtOLh22IbyNFwG27l4yN/jjpdAlwSBJZGBVZtMf/Cl4cKT1+IBsQFWYh2pSoh8d9ehfWk1N5uZnmpc2QoBBbe0XhHu5YU3BNPHYHF6bPlOrPX42PMBNanCTGVWmCNMgXYvFbNG9StsFFYLGwFwjrJ8WbHZOT1kFhWcmDtTIsC+JVFYr0tI2EL2wzfGC4JAkuDAus1MV/hi4MqwoqlhkE0IE7O92L+jHalCiHB5NUpDbSZ99BeILCQSvuO3oR74qk1sDj+jlxn9vOEWDOBdTc+unKPwAqQ7/zbG4XF8uTGfpeJmbyja6lqbJTFcU0a0RPiqihsRcPQAP8yy6vidPXzpcsx2mvDg03y527guM5wSRBYGhNYbGrIUXxpUFVueKmnWDI6R56TDAiJChcS/63yf6+KpzP1V/m/WxBYeEfjHe06mEj7J+6Hx47A4p7a6sj683qL+lc34yIrrbxiBbwj9QbZzn/9WtXsrkj4zEUrEhbnyoGVFGul4PyQ7u3p4ZWdlVpe7V09g4L8fMstr4rT2tebzsdoq7D7uCCTnfPSD4JLgsDSmMCaiC8MqsxH6DgiTs5dCIkKFRJ/0IC8YtPItfCHOAgsvKPxjnYdWMzHUwWWyWT6lVxHNsYgWAisq7GVU2AdjAqjmgqnnK1ZOMX+KKybB10qarJ3LqHwoECLY2vbNEWaaljZxBUrdD9n3EDyMRgU3EO9QxKrnrdRU6sTzgg22ZtC+AFcEgSWhgRWHS/tFm3/t5iLYpaKmSJmmJiuYpqJqS+mo5ghYqaKWSnmmgbPsTk6joiTEwshUSFCgsmrMypvG2z6cguN/JsPgYV3NN7RrmO7Rq7Vd2LOeRWu4swWwRlc9D2wtZiGXoV1vGoVfSdk36faikkvekbGivlQzBavwnqEt8X86PECi+f5v8p1ZOsajWby6qtKWsB9dnAgheoNioVGbEQ4Pcw7IV/Q/cFZepy7x6XS5viWBVZHG9VKiqOLe5dVGnnFRqSlNqyt8P7pKTH1bYqs0dghiZUgCLQ7MlQT7fmj0CA758MthkuCwNKIwPq1mHsa+2J3tUhIsS8mfyzDOevEvF30heWFBs73q6KOLzqOiKe/jzxZSLBn+KzK28Xzoj9oaAUILLyj8Y52DaysxGOVXpsvxSwRkyZGcMG5/4dX4WqQTHixadTzxRwX88xjBJZRpwuQ68i28vWt1AXcD0SFUnMf7zJNLcsY3FtBQfdjLpc3RzbOtVrvKdDPl9bMG+vR4opNl2SjrgIcuIexDdtSyoApUuIadSAjr1xchuj1tDY8WPXtel14iL1z2QSXBIGlkQ7jWA19oTvogs4VK1y/UCV/cZPLFHQcESfmU6/C5dEhJNwjJP5YNEJA7aMYEjX2bz4EFt7ReEe7hmgVXpMDRVLplxV0Tdj98BfTTsyMIqn1gyYFlqDTJch1ZDv5+5kJrHvxlUNgsZpG7wb6UwCvL3NtJDZV7czetXYl1uObB1wucs5sX0QRNqaNDeiaRp9mb/E4ecXOuWGtKsrvGW+g+KYdS+RVcZLa9CSjoFyA+YqZFRKo6va9w0p9tJeyCy4JAksDAov30sYIpG1iwl18Ldhf2zao+Br84KK/NKJzJN+BYF+YV4lZUCQR54pZISZLzDcaP78ICAm3CIn/EZOt8rbARnmqedVTCCy8o/GOdi9qqn91z0u9I0N/I6ammPFOFlquxaAzJMp1ZHsF+JsJrPz4KI8WVzli5oUEUqzB4JQC33WrJdGjWyftTyW8vsflQodNGYwJty4uEqPCpeLmniCubhxZTf3T08hbr1w++nj7UXKH/hbyqjjVOg4Sf8exwu/DTf5Se1JjO98bGWZvCuExuCQILA0IrM0q//LG5Nrbbr4mbH9qHY2lppGdntg5KhAzz6twaup/K7wO3mLYoh2XNHi+AyAkXC4ktCCvHojx1ei/+RBYeEfjHe0a5qrkGjAp9L8aeicxodXAq3Bk/6dqFlg1HRFYuR68AuGmiBBKMRqdtjpdcQb26GR3FNZzF69KWJxrBz+mpOgIG4W79dS3SyvKP/53TYqrgnObafyQ7g5NF2QJCImimt3ftSmvilO98xDy8fFzaNsdfX1VuULhoSgILAgszQusGir/4saKrQdW0LWp7VU4nUaN16UqOkdOzyExTbzKPy2BtZtzGjrvTAgJlwoJJq/Oq7wN5IvhNPxvPgQW3tF4R7uGPSo4/xtifq/xfgmbPTCmDP8WuFhgcVx9uY7sYFOAmcDyRHHFOvOd/HzJ6GRxVTrTxg61K7Ge3spyi+i5fXIdNUupYfNYg/39aO64AfR1zg5NiCs2/XHe+IE2p0jKJaxKXar7zgd25VWJxOoyjHx8/B3aRwNvbzoZHaaqNn/EjsAycPxFuCQILJULrMMqvlb7i/6KVZGYxHymwmtzEJ0jp345buDk68JqZLwj5h8aOP+HYl6BkHCJkGAjBi6o/P5fFvMXjf+bD4GFdzTe0a7htgrOP9bLs2CjAd8Vk1vhAsuo0zeU68gONZk8dgVCNjKGTfPyL0edK0cl1ouCbFmJ9eTmQbdIn68ub5em2ckdb3xEGC2dOpK+uaJOkZWbtZoyBqRLwq0s9yMwoTZVTR+hWF4Vp0bXEeTr65gsqyIIdDBKPSsUnhHbvnw9MD4HLgkCS8UCK1zF14lNt/mdSq5Tgph/qvAaBarg2mi9c8SmobzqwusTJ+YLDVyHQJW9wz1BSGhBXp3yKhwhpnUgsPCOxjvaNVR0KYWDXp5NqJhJXoXTYitkBFaaXEd2ZKDJI1cg/DAkqFx1rvwDQyiuUXuq0+d9imvYVpp+p+Rz73TtQN/knbBdD+uTbHpyY7/bJNDqORl2BVBSTCQtmjSUvriQqQpxdTxzAfXs0EIqkl/W+xeYUJOCqzWiwLjqFFKlDsU370y1e493UGIFOLTPSL2BtkaEaENgcfxNuCQILBULrNUqvUZsOsv/U1mb6qfC67QYnaMyh/3VvbWbrhEbxfdI5dcjDULCqUKCyauLKr/nrOj1bz3k33wILLyj8Y52Pv+lgvPuVUn6LWxaLFtZMfMlaVixAmtcUGCJwLrvASsQbo8Mpcbe3mUUH3oKjk6iKm16Ud3+k82ERmJqNzLyyoRKlbgYOrJthe2RWA+y6fGNfW4TQlcPrqTWjerYPe7QAH8aO7Cr9PvullasAP2kEb2pZmJsuUfCGfUCGQ2Wtc68Dd4UUz9NvJ+TXSaxTHqeVoQFV/hzcDk2wt6x3odLgsBSqcB6w0udo4rYl0i9StvVepVdK1bc/v/QOSrTdavt5uuUJOZfKr4m4yAknCYk/uSl/kLRW7xcO6oF7QUCC+9o7b+j/6SC846vhH2Yv4oZLuaWqgTW7TjtrkDIahD19vcjb74swsNA4dXqS8JCTmjENXnLoe12a9+KLmZtsj4Sq+CsWyUWy/oPx1NCZLj968HrqUX9mrRy1mj65Nxmlx1Pzv4VNDOjP6VUS3TLFM/SdbEcklg+jkksHzGzQgIr9Hm4EAOBBYGlWYE1WaXXp6eK2xWbavNYZddrBDpHDoX9ZbNmBV2rcSq+LptU9qxpVUgwoXxZ5c/ASq/yF8GGwILAwjva89/ROhWct3cl7su4vu6ZwPOtlNbAytOgwLocE06Tg00UpteXWVwpWaGuONF1Wzi2D15Pb6U2pc3LZ9GjWyfNJdYD50msLy9uo3ULxtGYAV2pbdMUql+jClWJjZTC/ndqw9rUL70NfTC8J3VNayqNtlK0gp+PN73VogEt/GCoNErq0dVdZTo+Vmfr9LaFtHz6KGklRFZ/y53S6uXENExzbDqhv2M1sdiCAaMDA9Q8hfAqXBIElgoFFuu8fKXCa8NWZ/mFytvWRJVds7voHGlGkP6nmHsqvS65EBLlFhJakFdzvNRXsB8CC+9ovKPV+Y72U8F5h6NL40LsrUJYWmBdj4vUlLxaGx5MtYxGxwUGb6Dw5HoOiavSiajWoEzSJMjfT6qRtWPNfPr8alahyCo4R49vlr0m1peXtknSKiTA3y3iJ9DPlxrXTqYBXdMkGcbEFhvZtXHh+1I2iP97ybQRNCOjH416pzN1bNWQaleNJz9BqFBhZdkG9FSlfT/F97zW26PJNyDY4f30Eu85k6zufjZORaOIOwSWJgVWNRVel5+8tLHSDKvN9Vxl1y4MnSNFWaqC9tPDS72jHtQ0KkdrQoLJqxyVt//xHvxvPgQW3tF4RzsfbxWcd2N0aSpQYPULCJDk1SMxWhFXh6LCqJOfrzTKxdHRUGz6GJMRZRFXxanbfxIFx1UrX50m8VhqVU2kwb260Kr5k+jYloV0/8xGh+RV3tG19P/ZOw8wqao0/ZcTdnZmd2d2Z/+zM6PYdSvn2DnRgaa7CU3OkqPkIElAopLGLKgYUcGMoo5hjChmRQEFJCMIIiAgOX//c241TVdX3Vuhq6pvdb3v87zPuEtX9bnnnvrqfr/+zncqivOUBYaSyGZnBhX1n0yVYd738qEzyWKPvHKsP1uriYZY/DMSAmB9jugIgKVAgLVIgfPyRBKtrzsVNnezkRyFND/h548KWDt8G+o5hc7R3wEkogISf0kCeHVDI//OB8BCjEaMjr2uUcA1L0ZKE0fpBaFItkLEahEB1sGCXMWDq6+ZZ9qtZBUi3y5oz8in0v4T6wWuarti9DyyubNiDlUynHbq2LIZjezXRWyoft/cCWJl06rnFolb+HZ88iz9/M2rdGTDa9ShRTOAqHraXd6JcruPoIox88ODWMPnkM0T+X0fbDbReiUBLLV6NaIjAJbCABbfPrJXgfOSm0Try6WwufsGyVFIt1TQ+vmXQufIDSARMZD4S/XnT6nr/iLzwBT4zgfAQoxGjI69/qyAaz7K/J9Ia+IkbZq2QC6RHWrxAawfC3IUv12wKIptaGabiwq7DY0ZuPLbVnb9zIh6Ixm1sdtGl6gtgw1pr1ZL7gjmzMibzxuNNMthpyVuF93PfIPNSi6Z/mjW9HxKb9ePMjsOomZDZ4VXgTd6PnmaVkR8PYnsifVahjvUeN5DdATAUhjAylfgnHyXZOuLQ8BDCptDPZIjSb+lsPUzTaHzVAEgERGQ4NuJv1XwuudVJF1S5DsfAAsxGjE69vqdQq57OdKaOEmj0WTJJbK9zWYRYO3Nz1YkuPowy0sDotguaNAbKaeqB1WOWRAXeHXZpQMmk0Ebug/XoAED6Ptdu2jc6DFkMRhR/VSn4XmxyUTDivJo8eDu9MH9c2jXqmU0r2uVeKJfqNcXaHV0t8tF2/Nzavq51fYPBbnUh63zoL9bZ6D0tn1FiJXerj817Tsx7BMKc9v2Fvuphb0mmR/3OBPyuXkp3RViPJp/IjoCYCkMYN2mwDmZlIRrbIXC5nA8kiNJZyhs7ZQqdJ76AEiEDSSUDq9OMbdIoe98ACzEaMTo+OiIQq59rkr5h/wkn7RNtAa5RLatwSgm+bvzlAWw1jHf6rSRM4rTBV35zcR+RfEEV7XdtNsw0ocAGQ8ueYAu6/jx4/TySy/R9Gk3Ucd27cnjcMYMBnFI0s1kopvsNprM3MNkJJtGG3PoZBCif62V3dP2LgfNaFdJK2aMpp3vLfPr7fXdKw9QW6c95Puka7V0r8tFB4JAq7reW5BLmRLz4GrWthpg+ZzbfTiVj5ob1r0v7j2WjMbwq+FytTpak4B+WMs9IdZUmvA0oiMAlsIA1hqFzccF5quTcI0NV9g8voLkKKhfU+Da+atC52oigERYQILfvw0KXvO/MBem2Hc+ABZiNGJ0fLRWQdf/OnMTpDgxlPmaa/5XLpEt1enFBH9XXpZi4NU7mW5qYzBEvl3Q4qDC7iMSBq548+9mQ6aLwMPRtFJ2bD26dqNLly6RlI4dO0abv9tMn37yCb3+6mu07Ikn6J677qbZM2fS9YMGU9vWVZTlTZf9HYU6HX2SnRkAbw4V5NHq7Ay6y+UUK5EcUfQQq+s7+3SmTx9ZSDPaV1Ibp41cQeAQh2mZbH11cDtpTLOmdHf/rvTevbPo0LpXJBvTv3HrFEoPsW3QKAjiNsHdEhVXUubbCoO9ny2ryA9giVsKOwykZtfPCHsraSR9sW5xxH8r4RKXI1QPrHsQHQGwFASwfq/ynWSjpPn4MEnXmNL6YP2E5CioWyt0/RxV4FzNVtD8KBVI8MR2o4LX+0FVah47D4CFGI0YHR+9pLA5OM18v6phT19uVLqKJawX5apYeHK/PS+zwcEVb3J9m9NO9kgBi0ZDGc3bU2WYVTP1BldjF1LxwCmU1XmIH/Sw58k3VZ938y106uRJqo/OnDlDRfkFgU3q2Rx8nZMVFsj5qSCXVmZ4aYTVSs4oYRavwJrTqTUdWv/PGvi096NnaePLS8QKKv7fkZyoyM2hWKjKrkq9PiikC8d8K6ElyPUara4AgHV5S2Fh3wnUYmx4fbGcOcVhzV2VQR/3z9JCpy3EKZjCTIRGACwFAawCBc7HrUm6xpT4F1oByZGfv1cpd8vBGgXO10IACVkXKxxe7VEQNMF6AcBCjG4cMfpOBa+fzcx3MLdS+U6PhKKRTq0+KLfl7DBL7rfmNizAej/TQ52NkVddWV2ZYh+qRIArfvJg034TKbPjQAng0Y+cRa3FvkpS4x07aiRt/W4THTpwgM6cOR0VxMrJyAx437lOe1RQ5zLM4s38zVGArHKrhd65e3rEsKq2f/zseRpUkCNfXce8wOmgg1FcY20PtgTphSVoavXBCnRO12HhbSkcu4CcuSVhwD+NeKJmPD9PvGF8iC2EoxAZAbAUBLDGK3A+OifpGvsN8yWFzWVXJEd+XqDg9fOyAufrLgAJWR9Q8Frf1kAAG+sFAAsxunHH6N4qZVfwXfalaqD1jMrXhL8Ts5P5j0iJQgIsYbNcMrsrL4c2NyDAWuyyy54UF9SClrJadBGhQbzBVfMRcyi/51jKaN9fEnLUtrd1T7K4pLeUFebl0mOPPEzbNn9H3+/cQYcPHaKzZ8+GBa/27t0bFEJuzcuuF9jh3sbWwe0uh9gUPdIm7L2y0untu26KGF6tf3YRNbeYZd+/tcFIX2SHri77ucB3mubu/Czawdbz1twMcV1vYv+7MSeDvmPmay3Y73BXdpG9pxkdBlLpkJtCV2KNmksWhzfknH0W5z5YY63yc6pVq69DZATAUhDAel6B85GWxOvsiMLm8jYkR37OVfDaeUiB87UEQCIpvZ75byn+nQ+AhRiNGB0fGRtBjDzM/LnKd5rhLOaezNnM/4t0yQewPpFLZtflZNMmltwnvteVh7qbIj+Rz+rMoNIBk+IMrhaKPZByuo8IC1oFs6ukDRkM0iChfVUbWrlihQiyRJi1Yzsd/OknOnniBF28eDEowFrx/POSjfhj5UMFufRyhpe6GE0R35tidj95X6xX5k6k7z94UhZevTh7LLm10g3mrYKG7nA5xR5eUmPl1YM/5GeHDWDfznQH/V3O4tZh3NP+VNjnBnELqdzaKel7Az/lT3ae+Oma8fxs8ZM7Q2whrEBkBMBSEMDarbC5+DHJ19lWhc3naiRHfmvrKgWvnQUKnLOlABJJZ/5dh60zAFiI0YjR8dJV1QCoscZQ/ofIL1W+yi1+0mGfarD651QCWC/KJbNvZqbThtzEgavPs73iFierEEXVVWXn+FZdjV1IJYOmUnaX66MGV37VWG36kDWriPQyJwFWljWnJYsX03cbvq2BWdy7d+2kgz/tp6NHDtOJ48fpzOnTNHrkyIDXz3TYYgqwavvdrAzxVMNom717tFpqZjFRhc3qb6tFrByTeh2HZ2tzQ1ddbc6NHLx6glT72XJLw76nOV2HUsVI+S2FjswC2ZMi18W5AqttiEMQtNdqM/FcCYClEID1BwXOBe/ZcmsSe7/C5nM/kqMaP6XwGDUVcwaAVU+/w/yf+LoHwEKMRoyOs1akaIzlz1Rvq3xbNweofAdk/K7RRU+tWrNILpld6nXTtwkAV3zb1HS7hdwyMEfKFpubSvpNjG9/q/68v9WgmICruva06kEWT47Yb0kS9tgdNHLYUHrhuWdpy6aNfjDrsvn2w7qve8jjDgl6DhfmitVK0YKs97IyoqrIitStDAax+iucse7Oy45qHfIm6gHVXpkFEd3PUFsKc9r0lLzGDLb+4/1Zy9XKf8b0ev1f8FwJgKUQgGVBwtfozXtA/DuSI9EjkHBH7KcxP0njlY0ykQLAQozGmlJijO6BmFtjfpL3VyrfSYj9mE1JHz11as14uWR2vtMR12T60ywvTbFbIu9zVW1vccu4nTDYfMTNVNB7HKWH2d+qvnZXdCJTGD2SMtxuGjxgAN23aBF9tPqDGoBl1gdW1ryemR4Ad/YX5ND2vCyx91Owe8KB5Qb2b9x8+yhv4r8rP4v2sdcdKsyV3K73pNdDWVpt3ADWs+z9w4VqW3Kj2/Y6IkjPLbMrK6r7WdBrnFi1V3dd5XcaIL111GCI6+dtXXa67GmOWrVwAs+UAFgKAlgt8OCREjbiIV+0V+Exqh+SIwCsKP2EyneIBASAhRiNGJ0I/RfzGcRe2QM+Xqj+rCXfSbD6NE0nOWgw0mqJTyLNfIfTRt4owRXvH1XYbWhcwFXZ0JmU22Ok2NcoEeAq4LTC0nZkNDvCnguHxUrNS5tJ9jCrDXb25GfX+97xxue78rLop4KcwMqn/ByaZLPJbgGM1p2N4ffz+i5KgLXAYQv4vSa7J+p7md1lKJWPvNlvfeW26yN9EmWcPm+X/W6mJ9Q8f4tnSgAsBQGs6/GQkRJujuRI/AvpbxUeo7oiOQLAisKLVcruG4T1AoCFGN04Y/RziL9hm/eb5RVaVarEV8VHLl1aWrpcQtvRaIx5Ev1Jlpc6GQ1RgwzeQ6h86MyYQivefLtk8FQRODQEtApw277kKG5FRpOtXtCn7gmEse5nxk/v2xcEZH2Wk0kjrFYyhzHGSr2e5jgctNzrprtdduptNkoCsA1h9L6qD8Ba7nUGAiybq173MqP9ALa2ptWstexW3STnYok7vhWPz3hdoe7Hq3imBMBSEMCaj4eKlPBAJEeqLUkQo6qQHAFgRei5+GoHwEKMRoxuIOUiBkflY8xPMrdWKbVylve7kUto87W6mCbQqzI9VKCLbpuZnjdqb9E15ElvEYGrMfOpab+JlNlpkDLAVbCKrJKqiCqyantPfq7f1sF4QBG+5fBnia2F2/JyaKnHRTfYrNTJ6H+qZKlOTy9keP1+/vK2xuUeZ9BG/o+E0dPLt4UwM6preSsj8CRCo9kWk/uY32uMuHY9TSuCr+8EnEB4t9Mu/xlTC/fimRIAS0EA62k8SKSE5yA5Ur2SBDGqAskRAFYEnoCvdQAsxGjE6Aaekw8Ri+u91ZAfAKRX3GrnfW+kElqjoKE1MToVjZ+uVhmkSXY4NpmsVNRrTMzAVfnIW8T+VhkdBigWXAUFWZbIQNbBWlDnhxhsH5Ty3vzskFCJV4PVHttTQXpa1e7LdXsQ2NLGaKB+FjOV6Q1UwdZSlcFAw60WWuR20tc5V6qztkUJsL7ISo8bwBK3FHYeQlZXZtB71Vyvj3sD98k2q/yaSRMm4pkSAEtBAGsVHh5SwvcjOVLdkQQxqhjJEQBWGL7IPBhf6QBYiNGI0QqI0RWIyTE7cOefzE0Vs9r1amGtXFK7Mt0Vk+T5Hpc96i2DzYfNik1/K/Y+eT1GUUaSQKvgPbLaiNvawpm7A7Xg0Pf5WXEDIz+EAbA+yMqQBVi8QXzdhuOZIZrC8wpBfgLiCKuFZjpstDo7Q3wv3qQ+2mux1Kn8iiXA8rbtSzo25mDXMtVuiTvA6m4yhlgz6vZ4pgTAUhDA+hwPDSnhx5AcqSYnQYzKR3IEgBXCF5i74escAAsxGjFaQTH6BcTmmJr/cTlPCQBruVxSe5fLHpPkmZ+w1jBbBhdS6ZBplNN1WNJCq2B2lXUgsyM97C2Eu/PiV4F1oCD4FsJ97Pe/kuEVq6SMdU6/e9zrrtMAPhA69TcHApccrY7udbkC+nvVPhFR6oTFcJxbBzAZrc7YnTRZ2UXyXr0UI1As5zwJeFZzCqFWa8QzJQCWggDWt3hQSAk/h+RI1T8JYlQWkiMArDA8Bl/nAFiI0YjRCorRTZiPIzbH3MuZ/95gd1UrCJPlktpYnYwWrKdRPLcMVoyZT0X9J1Nmp8GNClwFQJGKTmR2Z5IuyPzyHlRXAFF8ABbfrlezTbHAB6xudjiog9FIJpl7PN/pqHkd76EVrMH8RLb26r7utcx02Uqv+m6VLNXr6jRxd8fsXjmaVgadixytNu7w6stsb6jTIU+xcPBrPFMCYCkIYO3AA0JKONGHRygxOWqdBDHKg+QIACtMD8NXOgAWYjRitIJidF/E5bj4MHOPhgFYanUrOZjETwysb/L8OUuew94ymJFfry2D5aNuocI+NyRVf6vYwJEWAXO5qVaV0p78+DRx52Bsc24OzXbYya0Jv0H/YIu5pmJqs0TPqrFBANa3QU4iPFyYSwcLcmlXfpbYVD6WAMvszIzZPbKk5wedi1FWc9wB1or0UNtONV/ieRIAS2EAaz8eDlLC7yE5UlBfCWk5kRwBYIVp3i9loAoCwEKMRoxWju5GbI6blzD/NrEAS6tNk0tsM2NQHfJlGABLL2goq7ITVY5dEF1/q+GzKe+60ZTern9KgasrlViB29O+rgV79sapAosDox8LrlR6bc/PoX9meGmB00HtjUbJqp9cnZZ+LpCGV9ztgmw7vQzlfirIFau/NuRmxPR66gIsa0Z+zO6RyRq8Cf9yrzPuAOsOpy1UA/dH8TwJgKUwgHUMDwUp4c+QHKmykyBG2ZAcAWBFYN7MvTe+2gGwEKMRoxWi3zC/hdgc15M6f5fQO8oS2KNyye1HWfU/idCmke93VdRzVJT9rW6inG7DUxJa+Zk3CK+zjfCL7CsA68eC3LgCkh15WfSzxOmDi90uaqoLPIHyA5l19a8MT1D4tTY3S+y59W2crqOpzh9g2XKbxe3+cHs0GvGEzngDrJFWszxAVqvH4XkSAEthAOs8HghSwuuRHKncSRCjLEiOALCigFjd8fUOgIUYjRitEP2e+TXE5rj5TeY/JBBgqVfLJbcPexz1TqBb6PWyCXRxhD2vSgZNpaxOQwCuapmfmFd7Tt/LyqgBSQcKc+MOSXg1FN9SeChIU3cOt6bZ/ce3xB18XX2VnU6tJJr+f5aTWe8+V5GAVmdRq9g03W/eIej1DLHEf/sgd3mIz59eoynH8yQAFgAW3AD+FsmRmHgoXSYkRwBYUZifTNgJX/EAWIjRiNEK0b8xP4/YHDc/mziAJQh3yiW3E2z1b+Q+zCJfAeLKKYkIYOX3HANoVbfHkjfPb06fT/deAUgFuQkBJZe9KTeDtuRm0lb2v5vFrX7pNNNh9RvfILOJPq1VhbWO+Wmvk8pkYMvH2RnilsV4jJmPpe7vc7foGpN7Y88rC3o9j7idiWngLshu4b3UpEmTP+N5EgBLYQALWwgBsJA4KkdGJEcAWFH6HHMbfM0jDmFuEKMVoquYJ+MPpXHz5ITcRX2appMcXKoy6OudRN/lsofsgVU2eFr4FVgDpwBa1W3kXljhN6f3uJy1Gp3nJRRgBfONNkuQrWsCFei0lKfVhdUE/pvcLPFaNsRhfMs9zjpVSTrytu0bk3tjdmUGXAuv9lqTgO2DvMdWiHn9Ds+SAFgKBFho4g6AheRIOTIgOQLAqofPMrfEVz3iEOYGMVpBymPeifgcl+3j8T/4QH+NvolcgmsVNLS2nkn0qkxPSDiR3qwqbIDVfMTNgFZ1G7lXdqlzup3FbxvfhpyMBgVYE4IArEjd3WSkO1wO+me6V9xqGMvxTaxz6qHJ5onZvTHojQHX0oNdSyLmfYbdKjunWrXmITxLAmApEGDtwEMAABaSI8VIj+QIAKuePsPcHF/3iEOYG8RoBYn3bJrFfAoxOubPdr+J+93TqdV75JLcFemueifSRXUaZAdU4+gMVD7y5rAAViVzZoeBAFd1GoXzObw8n+UGvR/A+i63YQHWiBDbSCM1B6u8OpCDMV7ht5Kt0S+jrGhaH2R92vNi08Dd06Jb0PHzMSdi3rsYjaEauA/AsyQAlgIB1rd4AADAQnKE5AgAq1GZJ4kl+MpHHMLcIEYrTGnMy1W+vn2I1bHx+PgDrDThabkk9xaHtf4VLmFU4ORWXRd2FVZuj5GAVgFb1bL8tufxUwAvA6zNDQiwnvA6xRP3wgFTNrOZeve4jiaNv0H8X4fFGjbU4icX5ut01M1kEIHZdLsPbi3zOOm1DDd9nOUJeuofP6gg4ITAyi6x2dpZUBl0nB9mxX/7IL9WV4h516elWfEsCYClQID1Ob78AbCQHCE5AsBqdD7BXACAhTiEuUGMVqC0zItVqMiKhX9h/mN871aaMFouye1sNNQ7mX4p3RUSQFjsnrABVtN+EwGtAmCJfx+sRz3uGoC1LTcz4eBqXXXvK0MY8CnT7aFbZs2itWu+pG2bv6vxV19+QRPGjCVDGD2yIqneSmfvx/tv8RP66vbfMtncsWuu784K+P38lMVEzP+KEJ85vVr4WeVrZggBYCkNYK3Clz8AFpIjJEcAWI3S/JCOHAAsxCHMDWK0QvUX5okq7Aaor2+I76pXq72yYIkl/LFoOJ0fYhshd3HvcWEBrLKhMwGtQmxX62821wCsHXlZCYVXH2V5qaPBELRh/4ypU2lQ//7UuX17un7gQHrkgQdo07ff+IGrul65YgUV5ObFdBuilO2FlTG7J7W3dV72zBhUNIbjaTZrqO2Dr4AdAWApFGA9iy9+ACwkR0iOALAarY8ypwNgIQ5hbhCjFS4ep+5i3oe4HbF3q+LcC+tXLKH9SS7Z5dvAEtHI21NYEV4frLELKb1df4Crug3DjRa/SqP9BbkiwNqVQID1eoZbElbePHuWLKiS84Z1a2nc6FExrcYKWqHlzYtLY/3L5vOTiPvQOghA9LdmBNgRAJZCAdZCfPEDYCE5QnIEgNWozavAXQBYiEOYG8ToJBDfsZLBPJP5S+ZLiOFhuW18V75aWC6X7I6zWuqdUK8MYxuhQaun8hFzwoJY2V2HAlrVsTWzqd98Pp/uEQHWnvzshPW7cgjB+y6NGT4ianhV22++8Tr16dmTLAZjyPWUodOR25VO3vxm5MopJKvTS3ptiEpANn53Red63wveCL7ue3Owl4j78GmWlwyCfP8rbROtAewIAEuhAGsYvvQBsJAcITkCwIraDydJDDjIbAfAQhzC3CBGJ5n+ytyF+W7mr1RoAC/lpfFd+WmaXnLJbok+Nol3URjbCHPb9AoLYBX2GQ9oVceusnZ+c9nHbBIB1t78nLhDk4VOGxkE6ebs675aEzak2vP9Lvrxhx9ox9YtshVZLzz3LC19+GH/LYCChvqVltPUmbfSrJUfBnjaM29T57EzyJXdVBqk6k3kbd2zXvfCZAsEtmNjAILD8RK3PdTnbDu4EQCWggFWSwXORX8sVSSOSI6QHCXRupqXJAnOT0nyOUAcwtwgRgNgSem/mJszT2J+inkToFZNpW38thFqNJq/sqT2klzS+06mp96JNe//E/IkOndWWACrdMh0QKu6btuX9Fr9FRAjCLQtL4d+jCPA4v3RhljMIe8r73sVClzt2r6NTp86RZd18cIFOnzoEO3YtlXyNbx/Vu3f09rpCgqugrnPzDvIbHMHHa/R4iRvm95R3QcOv/RBKqCejMFW3HAc6n7o1cK9yGUBsBQMsGyYCwjJEZIjAKx6r6t7kyTJ2Ve9zhCHALAwN4jRjUW/Z85k7st8M/MzzGtUvhP6UgliFcd1llli+5Vc0ntLDJpPr8r0hHUqXbNB00ICrIrR8wCsgtjszvSby7tcTjpQkBsXUPJelocqDfqw+0vde889kiCKV1udPXuWgunixYt05OefaWcQkMVPKqz9OzplZIUNsC5XZGUWVwYdr8nuEaFgxCdCNm0R8F78tMN12fGHV2uZ3aH6hAlCO3yvAGApGNr8hwLn4l0sVSSOSI6QHCXZuvoV8/IkSXL28L+nIw4BYGFuEKNTQP/HnMvcg3kK84PMbzPzHTLnGhnAmhLf1Z8mzJNLelsa9DFJsDsaDSFBR1Zl57CqsLI6DQa0qgtPilr6zWWZXkc/xwFgLfM4yavRRNYg3WSm9956MyjAOnrkiB+0+vqrr2jS+PE0ZfJk2rRxo/j/u3TpIh09fFis1Lr8uo9Xr/b7HT3yCiMCWJedW9kueEVgTnHE98Diygp4n35mU8L6kIW4D2f1ev0f8d0BgKVSdtXRjwqbi4NYqkgckRwhOUrCdcW3b7ycJInOLuY0xCEALMwNYnQK69fMAnMJ82Dm25lfV+Bzcbh+Ma6zpb1Wmxli25FYQVXfBHuRyxESdJhtLmoxbmFIgJXXczSgVd3ta1W9xEbktedzdVZGTLcMjraaxfUQ7N5VuTw0Zepcckk0Sy8rLqbNGzcE9LyqrbVff02aa6+la//+d9EGjYa2btlS8++XLl2io0cO085t2+jtf/3LHxQVN48KYM144QNKb9o8sB+WwRzhNs4+pAty7UvYuk8EwLreYgr1+XoV3w0AWEkAsJSYcP0dyxWJI5IjJEdJuK7+nfm9JEl2tjFfgzgEgIW5QYyGAsQrt/jJfgtUvubxyXAa4t54T8pVLLndKb+N0FbvBPvLbC9ZhdCVOyV9bwgJsIr6TwK0CtpA3BPQPHxDTv0h1sNuB+VKgCnePH1M974084UPRCA0aeh4Scg1d84cP4B1+OdDfgCLV15dhleXfQt7TbCthavfX+X33oNbVEUFsLinLP8XmS3+gNVRWBlZI/3StgHXa2Fz80VW/OEV36LoCVEVpxWEfoj/AFhJALBuVOB8VGC5InFEcoTkKEnXFW8y/HmSQKzNzH9DHALAwtwgRkOyupp5tMp3qrOSY/r/xnUWdGrNrXLJb2uDISaJNt9OFQpgpZe1Cwmwmg2dCWAVxPa85gH9l76JEmCtZ17qcVBbg/TWzyqXi6bfvTQACPUuKpU8lfCTD1fXAKz9+/b6gSm+bbAuwJo/d27Q/lgff/SR33sPb98laoDF7ckrrtXI3RFxDyxren7A9XYzGRJSfcW3dYb4XJ1LS0v7H8R7AKwkAFglCpyPf2C5InFEcoTkKInX1Z+TING57A3Mf0EcAsDC3CBGQ2GJV2btVGg898T1yg2CkC2XABtidBohByIhtxFaHCG3EVaOWUAZAFYB9rTsFjCfKzPcEd2jz7K9dJvTTqV6neQ94lVXo2tVXQX46beo2BT8RLy+PXv6NXDn2wIvi/e80gtCDbyymkz0/a5dQQHWO2+97fe+Y3r2jxpe9Zz6D7/3cpV1iHjuDYZAOHuH06aI0weZX0d8B8BKEoD1nyrlHUHMy6B/hSWLxBHJEZKjJF5XfCv09iSBWOtV8f7LPdYLABZiNABW49H/Y35fgeuhbbwvnG8j/F4uCZ5qt8Rkq1M4DcBL+k0M3ci98xBAqyA2mu1+cznZbqXNuRkhq62e8bpokNlENo38vSmzWmn6bQ+GPuVv5m1kkNgy+uyTT9ZArOPHfvEDU9u2bqW5N99MC+bNo93ff09SemnlSr/3HD9oVHQ9sF58nyz2K1svLe7siOfcXd4pEPqya/8oyxt3eMW3KIa6Z1q1uj9iOwBWkgAsrnUKnJNyLFkkjkiOkBwl+brSVAP5ZIBYvM/LfyMOAWAhRiNGQ2GJ9zxUWqXtyLhftVYt3C6XBOdqtbQuBgn3SGvIahHKLO8YEmDl9xoLYBXGNkKXRkOb8rKCgo+HPQ4abjGL9zbUPeF9rfqXVdDM598NGw7xxupSDd23bNooAqy9e3ZTNHpy+XJ/UDd2SlQAq2XfEVeuUaMjT8seEc+5Lbs44BrbGhKzfZBXeYXaPmi+5pr/RVwHwEoigHWvAufkCSxZJI5IjpAcNYJ1ZWU+lCQQi/fu+iPiEAAWYjRiNBSWXMwXFbQe5sT9ig2C4A4FMZ7wOuudcD/vdYWEJRabO3Qj9wGTAayCnUbYumfAaYRlegPNtFtpgdMmNnZvZzCQKcQ9qG2rRkMThoyOHBAte42ydPqg7/nQkvtrqrDOnTsXMcB66IEH/CsEb5of8fgmPfEqGXTGKz26ckqimnOD0RJwffMcidk+WGXQy98/QXgJ8RwAK8kAVrkC5+SEyre9EULiiOQIyVGyr6sM5mNJArE+aiSxF3EIc4MYDSVCbytoPdyWkCtmCe8auWS4j8kYk6S7QBe64qd0wI2yAKts+Owk7FHVndKresX991i9uWHDqZDVcHodTZt9e9T9pSYMHRf0fYvy8mnLRl8V1s8HD0YMsO66406/95t+x8MRjy2vssOVLX8GC3nb9Il4rl3lHYNWq72X5Yk7vHojwx26cu5aTRvEcgCsJANYv2H+WYHzMgbLFokjkiMkR41kXRUxn0oSiMV7u/wBcQgACzEaMRoKqYEKWg/3JuaToFYPk22wLgj0cQwS86k2a8jEO7tVd/lG7mMXUHr75IFXttxmvhPuTNYEgLIe4na4+sKrfKOBpi9eVq/T/birnMFBy+K77/Y1c9+2lS5evBgRwJp78y1+78Ubx0cyputve9ivUs1Z1Do6WJhZEHBdFXpdQqqvJtgsoe7h/mJV8W8QywGwkgxgcT2iwHn5ReU7uhgKLd4w+u7qBykkR0iOALCUua5aMZ9LEoj1jsrX4wUACwALMRoxGpJWgYLWw6MJueK0tLT/YUnvKbmkeE4Mtka9meEJCU8cGfkhtxFmdxmaHJVXrXr4wZKC7sPZ/79/fIFZTnG94dWMRfWHV2JD95vvEk+yrPs78rJzaqqwjh45HBHAmnrjjVfgk0Yb8ZhcWVfAk8nmiW67Ztu+ZNAbA65rht0ad3i1JttLnlAHIgjCAsRxAKwkBVgtFDo3z2Lpyur/VL6S8cuVHSOQHCE5AsBS9LrqplJWzxQ5v8H8OwAsACzEaMRoSFIaBa2HZYn7NKiF5XJJcQ5v5p5d/wS8ZcjePVqqGHmLLMAq6D0uKQCWo6DSHw51GhD/Hl5t+5LJ7ol622Cs4NVl98grDPq7lixeLAKsXdu306VLl8IGWGNHjb4CBA3GiMbSeeyMWutMQ+6KLlHNsbO0XdBrej3DHXeAdZvTHvI+ajQaE+I4AFaSAqzfMh9R6Py0wPIN0J+Z56l8vcJqzxUAFpIjACzlr6vBSQKwuF9h/jcALAAsxGjEaCiomihoPTyQsKvWqdWloRLj+12ORJyeRoVdrpcFWMWDpiQFwLJ4cvxPdGzXx3eSYs8x8W3o3qY3mT3ZwedXoyNrRmFAA3Le3H3KlFtiCq+4py9aRhYhsGKoeXEJbf1ukwixjv/yix+kOnTwIL3z9tu0ffv2AIA1sF//mvdo5XSFXw32zLtkslxZe3wOor+vgb3GinTx3z64nrlYF2qLqOZDxHAArCQGWFz3K3R+tjP/F5ZwzYPSQpVve2WwuQLAQnIEgJUc62piEkGsF1S+XokAWABYiNGI0Vy8knQS83/jsUzlUdB6uC2RF34VS4A3yCXHLfT6eifhX2Slk12Q3wLlLWohC7CaD5+TFADLaLIFBVgtxi6knG7D4v773RWdxRP2rOn5ZMsuImdJaxFuuVt0C5jzER26xxxeXfaAssqg9/np5ctEgLVn184aQPX+qlVkMRjo2r//ndKuvpruvP12P4DVrXOXmtd3y84NewwlnXpfaXCuN4nzEB0c7BO0z9iNNkvcAdbjHmdI+KsVhO6I4QBYSQ6weAXhJYXOEQfEqXwqoVflKw0/H2KeALCQHAFgJc+6mptEEOsZ5l8DYAFgIUYjRqt8h+zw33+8+hlWSOHns34KWg+zEnrlujTNoFAJ8op0V70T8aEWk+zvMJnt8o3cxyygjCQAWHqdITjAYi4fNZcyOw1qkHGZXZl+46q0O+IGr7hnPPQ8WYP0bWpf1UYEWNwnT5wQAVVxQYEIry5bfc019MOePTUAq6plq5rX9ystD+v3j77vadJrr0AnZ3GrqOfOWdw66Jp9JQHbBzsZDaEA1vdo3g6A1QgAFtfLCp6nD5j/I4XW7FXMrZnfi2COALCQHAFgJde6WpxEEItD9F8BYAFgIUYDYNUZx4VqyF2QgvnFiwpaD+MTeuVNmjT5vU6tPiiXJPcymeqdiL+Y7g5ZSdJs8FRZiJXVeYjyAZZWH9ADq/Y1lA2bTRntByR0THUBjJ556k3z4wqwuPuXVQS9z6++/LIIsPbu2S0CKrb+/AAW96effFIDsJoVX2lSP6xdl7B+d3pB2ZUTNe2emPsD1hIAAD1HSURBVMK/RG0f/Cf7zOhD9jHTjFdBAFiNA2A1VXgCxWHOHxr5WuXbBKepfFsnI50fACwkRwBYybWurqoGQ8kCsR6pHjMAFgAWYjQAVjB/p/Jtkf5bCuQWfE2cV9B66JLwGdCp1XPkkmR+qhxPpuubkJfp5Zu5165WCua860YpHmDp6myVLOga2NurZNC0xJ2K2LJ7AFTrlJkVd3glVmE9+CxZg2wdHTJwYE0V1pkzZ6hf795+8MrjdNLx48drAFZ2ekbNa8f1HRLy9/ac+g+/AwL49smoe4tV9SK9RhtwDVPt8d8+2MtsDAGv1McFQcAecACsxgKwuD5TeAL1UfVDQ2PS76ofPPipX/U5oQwAC8kRAFbyrStewf1SEkGsJUkAsRCHMDeI0Q0DsC6bg52VzG1UyXkQRDh/fHhdYevBmfBZUKvVf2cJ8Vn5KixjvRPyuQ75Zu6u/GayAKtp/4lJB7CKeo4OuA6+lTARY/Hy0wmtroB5njbztoQALG6+5S9gu6hOT5998rEIsPbv2ys2cOdQy2YyUdvWrWnt11/XwKuLFy+SsdZWwMk3TJOHZs+9TxbblWu2ZRfXaw7tBeXBq8gyXHGvvjKErL5S3w02BIDVyABWxyRIoE5V/4Xv10m8JnnSWsq8iPlQjOYFAAvJEQBWcq6rf2d+N4kg1j0AWABYiNEAWGGaHzyznLmDqvFU0c9X2FrgPWx/3yAzoROEx+SSZX0Mev58lOUVT76T+h1Go5kqxy6UBFilQ6YrHmAZdP5VM6X9JzYYwLLlNguY42KTOWHwSgRK9zxOxiD3+qYpN4oAa/uWzXTu3DmS0qFDh/zh2z/ul/19zXsMulI5aLBE3bi9pim/xREw9hJ9/LcPcmAcYsvtRV0TXWOrBAHAAsDiWpUkSdQale8EmGQRf7hoy7yU+ec4zAcAFpIjAKzkXVf8oIrPVMkDsW5T8OcJcQhzgxitHIBV2yeZn2fuxXx1EuYTv1Ups3fhrob7ZKSl2cSkOM5VWNeFSMxLB0ySBFjlI29RPsCqcwph+dCZDQKwvK17Bj05b2B5y4QCLO7uuXkB4+DbBDesXydCrAP790sCrM3fbb4CpAQNzXr2bcnfc8MjK8lQa7ukq6RN/U50LO8UdI3eZLc2fPVVmvC0CgLAapwAy65S1r7+UGXqzzFXqpTXYJiXmPOS7lEqX6PPk3GeCwAsJEcAWMm9rv7M/E0SQax5AFgAWIjRAFj18EaVr6KzHbPSW7LwJvXrFBqLG/b7miXGT8W7Cutht0O+D1abXtInETInugF6pDbZ/LfsVY6Z3yAAy55XFnR+e+QW0MylLyUUYE2bfXvQsdy/aFFNFdZ5iSqsjz78sObns/V62d+TWXylabzZmVHvObSm5wcd9xtxPn0wnOorDpzBhQCwGinA4ro9iZKoy96t8h0jLDTQnPE+D7wibDTzC6rYbQ0EwEJyBICVOuvq78zbkijuzlLg5wlxCHODGJ0cAKvuaYbrVb7DIoYxZ6l826sbUr+thmtvKzwO92/YT0cYVVidjfWrwlrL7A7SFPuy3fnNZftg5XQdpmiAVfvEOoPOELySLAEAy+LOku41ptXR8PZdaNbTbyUMYrV0OAPGUd6srKaZ+4GfgldhrXzhxZqfb+V0Sb5/jxvnXQGtGp3YvL5eFWxtegc0v+cui/Ppgy94XaFPHkT1FQBW4wdY/8W8Lwkh1uVeAF8y3888qBoq/TaGc8P7V6Uxt2CepPL1duBVE+ca+LoBsJAcAWA1jnWlYd6bRDF3CgAWABZiNABWHMyr7L9mfop5NnNv5lzmv8Tp2njlvIW5H/OTqvi0e4iHmzT4JyRUFRb3Ex5nvZL0QWaT5HubzHZZgFXQe5yiAZalVtWO2eZqMIBldqSHquKhbJ2exvYeRLNeWBV3gDVh6LigY3jhuWevVGGdPx8AsBbdfc+VLayFRcErvJ55m62bK1s3bbml9Z4/R9MWQcc7I47bB9cztzYYUH0FgAWA5VOXJAVYwXxG5esvw4+s543Tb1H5GsEPYe5WDaO4eZPRntXgi2/9m1x9j56vfj1PKi8q9BoBsJAcAWA1nnVlVSW+irM+Ho/1AoCFGA2AlUAfY97C/KHKV/V+fzXk4s9ug6thV1eVr4KKP981V/naTbSufr4dVP0ceAfzs9Wg7KQq+Z5vNyjjE5KWZg1VhVWq19G6bG/UifoSt102SW9+/UxJgFU88EZFAyxbdskVkOLOajCAZc0sDAmwak5KNJlo4ogJ8YVYL6yivCBwpme37jVVWAeDVGFNHHdDzc8Oa9s56HsXtLrSq4r3IEtv2zfmW0Ev+80MT9wA1pIQ22ur/RR4EABWigAsrvsaEcRq7AbAQnIEgNW41lVGdZKWLDFoFNYLABZiNAAWnFBPVMynhCXJT4ZKpG9z2qNO1L/ISiezIP3eBV0GSwKsZkNnKRpgOQoqa67DmdW0wQCWu6IT6QRN2BCLu4XdQVOnzosbxBrZ+bqA32nQaOnj1aslq7C6tW1X87OTR08OeM8B8+/zu05XWfv6z11l1+BgVa+PG7z6Kjud8rS6UPfoAqqvALBSDGD9jvkLPCAAYCE5QnKEddUg66qI+VQSxaHrsV4AsBCjAbDghO0u+H+K+ZSY1GoNS5bPyCXTGRotfV6PKqwuRulG1RllbaUbuY9ZoGiA5SypCtnPKxEAyzeWNqQLDUUC3NbtoSlTbok9xFr2GjmD9D+bMO6GWlVYP/kBrML0jCun/y1e7vd+01e8T1ant+bfLZ7sGFWvNQ06L7c44rd9cI7DFsa9UT8AFgSAlWIAi0utSp4+AABYSI6QHAFgNbZ11UrV8D32IulBOADrBQALMRoAC467n1DcJ4UlywtDJdQTbJaoE/aFTumE3ebJlu2DldVpsGIBlqu8Y811eItbNSjA8lVidSGjxRExxOLmjdcnj7spphCrf7PywPttNtPaNV/WVGFdqK7COnHiBOmrq6s4+Kr7XmXdB15p3K7Vk7d1z/rPWdu+pNcFbnU0CAJ9kBWf7YPvs/d1hK6WOyYIwt/AggCwUhBgcbWsTkzwwACAheQIyRHWVeLXFe/VdzFJYhEfZ2+sFwAsxGgALDiufyzwKu6TotVq/8SS5gNySTVP6l/JcEeVtL+a7pZ+X62eWoxZKAmwcnuMVCzA4qffXb6OzPIODQ6wLkMZe35Z0FP1wnFzq03skTXzhQ/qDbBm3PM4GYJVN82efaUK64CvCuvLL76o+fdKu91/O+LiJ9n1XKkusxeUx2YLaFEridM3DTGFVl9me+l19tl50uuk1oZw7ot6KjgQAFYKAyyuUXhgAMBCcoTkCOuqwdbV4CSKRxeqoRvWCwAWYjQAFhx7L1Xup0WtHh6yb5JeT+uiSOD5a9xBtpPVNIofMEkSYBX2naBYgOVt00d5AOvy2Kp6kS2rKek0uqhAVonZQuMHjar3qYUdvBkB753l8dJ3G771q8J6fOljNf/et6TsCgR74QNyZuRdObnS4oxJ43axebvdE/TaF7ui7/n2WbaXHnY7aKLNIoKwDJl1H9yaPU2aNPk9OBAAVooDLK7xeGgAwEJyhOQI66rB1tWEJIpJ51W+k12xXgCwEKMBsODY+Tjz3xX7aSlWFf+GJdAbQyXYC5y2qBL7biaD5Hvmd+gnCbBKBk1VdB+sy9velAawakBW655kyy6OuiKr0GiiMd370oyn/hUVwJo8dkrQ9110911+vbAmj59Q82+jBwyveX1ln2FXtg6yueYN62NSPVfZLei47Ox3fBlhv7d/ZXjoJrtVBLwGQYhqnmuuUa05rheEmbwqEiwoKaXkJuS3J+F8TsHDAwAWkiMkR1hXDaZbkigu8d5dbbBeALAQowGw4Jh5gvI/MRpNeagEm/fveT8z8v5As1iCL/We6cWtJQFW2XBln0Ro0BkVDbCuVIv1Jltus5rxRmq3VksDy1vS9MXLIgJYfCtigSHwdxbnF9DmjRtqqrBalpReOYHw7sfE1w69/TG/xvTWjPyYzYc1szDodQ4ym8Jaz6vYZ+Bmh5UqDfp6ASspa9XCDu212gzwoKTTFgV/Cd2SpHM6Ew8QAFhIjpAcYV01mBYlUWw6y9wC6wWfJcRoACy43n6D+VdJkSmw5PmpUMn1dSZjxADrWa9TupG7O1MSYFWMnq9ogGU0WZMCYNXe9mjPLye93hQVWDEyd8nKoRsnzQq7T9bIztcFfa/7Fy0SAdbXX3xOhuqtdhk6vW/r4HP+pw5y8Ma3RcZkHqp6S1akLWfrVGoNf5WdTne67NTGYAja2ysOPqMThG4qKJl0UMFfRNOSeF4nqpKnqTAAFpIjJEcAWI1pXV2l8p1AlSzx6TRzGdYLPkuI0QBYcNT+nvl/kyZL0Gg0f2WJ8+FQyfVdEfYJWpPtldxexRu5V46VbuSe0WGgYgGWufrUv2QBWFeavfcRm6EbogRZl7cXjujQjWY88qJ8FdbSl8imCTx5ryA3j7Zs3EhLH3roSgP1zGzxNUXtuvtX/jVtEbNrdxRUBr2ebI02aI83Xm01yWYhj0aTCGhV12d1anUpuFDSSMnHj9+Q5HPLj3f/BQ8VAFhIjpAcYV0lXL9hXplEMeokcxHWCz5LiNEAWHDEPsWclXRZgi5NMyicrYTvRLiVsEwn3VC8bMg0SYCV03WYciuwjNbkBFi1QVZe86i3FnJb2Frolp1Hk0ZOpBkr3g8KsXoXFgdvmH7XnTRm+Iia/3vkdQOox43zanqLiVVfVmfsKtDa9q25Z3U9wWbxW6/PeF3Uy2ysd1+rGPiorolODzakeP2Hwr+QhjWCOeYPn1vwcAGAheQIyRHWVcL1O+Z3kihOnWDOx3rBZwkxGgALjgj+J23hxFU6tebDUIk130q1LoKG17y/kGQ1T/cRkgArv9cYBQMsi6+PV7Oq5ARYly32yColg85QL9iSrtVR35LmNG327X4A66a5i4I38M/KFiuxfA3MBRo/+04yGmqtE964vbxT7KqvmlZKjv21DLe4Th/zOKkqxr2tmpeU0sMPPkjvvvMOffLxx/Tk8uU0ZOAgMun0YTZ3V78CPqR4XaPwL6V+jWSe/1vl25ePBw0ALCRHSI6wrhKr/1Qp+7Tduj7GnI31gs8SYjQAFhwWvCpJ6gxBn5Zm9W1fkk+sZ9vDP5VwnsMm+T7ZrbpLAqym/Scpt4n7ZYBV0jq5AVYtkOXIb15zXfUxb97OG79PnXmrCLFaOpyyP19iMlO+J8O/usubG9MTGfUSgK5Mr6eH3A4q18cWXJUVl9Drr71GFy9epGD6af9+mjxhYk0PMFmIpdGUgxEpWk6FfzE1pn5qvKnkSJXveF88dABgITlCcoR1lTj9mfmbJIpXR5i9WC/4LCFGA2DBkv6JuaBRZAg6tWZCqKTaLAj0UrorLIDFt2RJvY+nsFISYJUOuUmxwEdfDR4aDcCq2VrYl5zsmkw2d0xATo7eQGVWq+zP2AX/HlMcNnHoFKvG7XLXEuttgk3z8mn5smV04fwFCkerP1hNmR5vqPf9CoxI0eqt8C+nlo1wztOYX8eDBwAWkiMkR1hXCdXfmLclUcz6mdmF9YLPEmI0ABYc4A+Zr25MycGvtWnC+6GS9Vytjj7JCr2V8HPeyF3qJEJPliTAaj58TkLhjatZu/Aqelr1uLJ1rrEBrFp2V3YhS3o+6TW6hPZ+4k3m6z32ii6+rZEGS9zHy/t29e3Vm9568026cCE8cFVb3+/aRQU5uaG2EuaCEylW9yr8C8rZiOe+F/MhPITE3Z9XP1D+PyRHSI4AsFJ+XQnMPyRR/OKnBNuwXvBZQowGwIJFX2K+nfm3jS4rEJhY4vxLqOS9m8lA68OowsrVBt8qxattWowLfhJhxej5CYM1npa+0++MFge5yjrIgy727zUAq7jxAqzaVUyOggoymu1xh0H8d/CG67UrwjytepCreQdyNmtHzpIqcha1JmfTluKY7PnlZMttRracUrKk55HJ5iGD3pgQ0Na6RUu6/977aM+ePVRf7dixg9x2hwzAEpaDEylWXyn8i+p/Gvn8c6iyUOXbw48Hk9h5M/OM6odqJQnJEZIjrKuGl6UaDCVLPNvPbMJ6wWcJMRoAK8XNc5bGXRShE4S+4STyM+3WkACrs1G6SXjZ0BmSVVgZHQYkptqoootfA3FrZqF4Ul+ohuDu/OaNH2DxqrM2vcVtfY6mLUTIFy8oxOEgB1XWjHwymmzivWjgkwADmrLfdccdtG3bNoq1Vjz/vNzvPisIwt/AihSn3zOfV/AX1YkUuhf/x3wrQFa9oRWHgRkKvs9IjpAcYV0pQ+nMvyRRfNsbQyCP9YK5QYyOnwbjeSwuPQH5Z/PXKZERsMR5Raik3iBo6EmvUxZgjbGapfsG9ZA+iTC7y9AEAZo+AY2+OUBxV3QO+FneYLxmuxv7b6UCLE/rnuRp0Y1czTuRq1lbchTxqqVysVrJmtlUrFgye7LJ7M4ks8NDRqtbhFNGo1XceqfX6mt6fSXCBr0prnAsWufn5ND8uXNp44YNFE9dunSJqlq2khmLZhp4keJUqPAvrO9S8J78VeUrjT6BB5aQvsj8EfPEGFcnIDlCcgSAlRrrqinzqSSKebuZNVgv+CwhRis+Rjdh7sv8BPM+PK/Vq0n7FJXvJO/UUZMmTf7MkuedoZJ8j0ZDb2W4JQHWQqf0SYQ5VT0kAVbedaMTBnzshRWB4xM0ZMspFgHX5S1tHLTUQC6DKegWyFgDLP77PS27+bbSFbf2bZ3LLhZ7VFncWWSye8lkdYinCBp0BsVBoGSz3WyhSeMn0KeffCJ5kmA89Mbrr8uNaxf7SF4FZqQo3arwL663Uvje8GPfB6h8TSrxEOO/leZJ5n4qX9VasgnJEZIjrCtliR8Uci6JYuBO5muxXvBZQoxOqhjN+9iNYl5R/RyD5zl5b2EeyvzvKZsF6NLS0vkWplBJf6leR59lB2/qziu0pF7nLWohCbAK+4xPaNWSNT0/eA8ivUnstcR7LwVcd/+JUQMsb1Uv8lR2ERvI8/e255WRNaOQLJ4cXz8nk02shAJUSoyL8gvogfuX0NGjR6khxE8vzMnIlByf5lpNIZiRYvQHla8kV8lfYA/jNokyMs9T+baQpNpDDN/i8zLzaGZ7I7iXSI6QHGFdKU9dVb6KzmSJi1tV9Tt9C+sFc4MY3cB4grkP8wPMG1S+xuSpDq34oUb8YKk8PPZXSysI14cDADoaDbQuCMR6P9MjXe0isQ2Pu3jAjYnt9dS2L5kszoigR0bzdpIAi/eNcpd3ImcJr5oqI2tmAZmdGWKzcoAp5TjD46Fljz8uAqSG1sL586XHKghLEI0UoyFJ8GU2BrfJT7+u/mKfyfwJ84VG9vDCH+D4ttHHmIcxe1WNr98BkiMkR/FQW+a3FeZrk+yz2U+BcyjnRfWIj4hDmBvEaGXpT8wlzOOZn1L5KpBSAWrtYOa5YZWqMZ4qGBOIpVY/EQ4MGGExBwAsflKhWZA4ec5glgRYpddPT3jvKA6aIurdpNVTQadB4lbI9NIqcuUUkcXhIb1GBzikcOsFDU0YO5Z++eWXmMCnI4cP09q1a+mVl1+mB5c8QPcuWkQff/QRnTp5Muz3WL9uvdxphD/bbLZ/QzRShL5Jgi+2AtwmWfETGjszP6jyNTBPpgoCvmXnW+ZnmHl/vHJVqvU4gCAIgiAICq4/qny9avlWunuY32H+sREAK/7cxxvda3CLw9DVV1/9B5ZEfxsOGJjnsAVArKY6aaBTMXpeUIBVNnx2wgGWNasIcCcFbDOb6cknHqdtm7+jc+fORQWs9uzZQ0sfeZRGjxhJhbl5Ne/dtnUVvfbPV6N6X97MPTcrW64Kqx2iUYOreRJ8yXEY8x+4VRGJz1eOylddx8uweYPzYw18D3+oHgfvWzWLuYvK1wsCf2mDIAiCIAiKTPyPfbnM16l8fwB8hPk95l0q5VTmH2T+XOVrYj9O5asuwx8po5WuiU7PkugDIStbmBe57H4Aq5NRurl4s0FTggIsDrYSCa+cJVWNqnLKajSR1+mipnn5VFpUJIKVLh07Ue/rrqOhg4fQ9YMGi/9d19d16y7+LHfLigqxNxR/H16xpLRr5OCoW+fONGjAALph7FiaeuONoieMu4G6d+kq+br7Fi0S4RX3yRPHwwZMvJrq8aWPUYc2bQPmo0V5Oa3+4IN6V3JNmTxZctxatfo5RKIGFf+Lzo4kAFgbcKtiIn5wAm927mFupfL91Wumyle19Srzx8xfMW9S+ZoD87/uHWU+o/KVr/NKKX4i4mGVr/EoPwWL91/5WuXbxvIs833Mt1Q/pPSuflDRAlJBEARBEAQlTHxbMe+Px1sw8AMq+qt8p/jdwfwo8wvVz25fqHzbFHlv1QMqX09c/qx3tvrZj/8B8rTK90fQQ9XPht+rfNX+nzK/xryM+S7mGSpf24fWKt8fKPHH57hALLW6JJym7gZBoIfdjhqANcxilm6efd1IiW2ECym9Xf+4AStPi25kL6wkS3queIKfkmGUy2anyublIpQZPnQoTZ92E915++302KNL6aWVK2n1B6tp48aNtP/HH+n48eNx69F08sRJ2rljJ335xRfiqXkc5iyYN08cU1XLluI4o71Gfqqj2eIgs9VFFruHbPyERbP8+/E5kNOAvv2Cvm7ajTfWAKwjP/8c8rpPnz5Nd91xJ6W7PUHvzSMPPRSzHlrvvvOO3DWf4tWQiEQNpuWq5Cgzfgy3CoIgCIIgCIIgQKw0Te+wKoAEDS33OkWANcNulfy5vPb9JPtgZXYcFPtm7a16kMmZrhg4ZdTpqKigUIRTvIro1oX/oCeXLxdBxubvNtOxY8coGXT61CkRCH3+6Sf0zJNP0bw5N9Og/v3JZjIFXLPF7qL0ktZU2OV6sQKvcvT8oPe/aY8RsnM3ftw42TGt+fLLoK9r3aJFDcD66cd9su/B+1iVNC0K2kNr3Ogx9NNPP8V2Hk+fZnNmxjZC5am3Knn2yY/A7YIgCIIgCIIgCGLSpwnzwoEzDpbkv+B10T0u6UqazIpOkgArp+vQmAMsk82dcEhl0GjFrXx9evak6VOniRU7HFDt2LGDzp8/T41BfHvdZShU21UtWgbMR9mQaZL33O9Ex5E3y25d7Na5S8hx9epxXSA01Opo/ddfiePbs2un5Gt5I/Zgv7+qZSv67NNP4zaXg/oPkF5PacJSRKCEK13VsP2QIrUBtwyCIAiCIAiCIMinq1gyvSIceOPWaGmhwyb974XlkgAjr8eo2FZfte4Zd1DFq3V4f6nbb72VXn3ln2IV1dmzZ6mx6+SJE0EBFq/CqjtPpQMmhwWwuK0y1XK8B1Yovf3mW0Ff++xTT4nj275lc9Bm6jdNmRpYLZidQ8ueeIIuXrwY17l85KGH5dYZ30/9a4SghIlXvJ1MIni1CbcMgiAIgiAIgiColqpPJnwnHLBj10hX0djT8yThRUGvcTEAV/2pqP9ksSl882GzKKtFZ/KWVDG3ovTSKrECLLfqOsrvOICadhtGxb3GUEm/CVQ64Ebxf7n5VrfsVj3ImVVIeo3Wb/x8G9mzTz9N69auE6uQUlXHjx0LCrBumnJjvQAWv1eS2y+1upAVbPw0wHRXYNXdLbNm1Yzx3Dl/wMh7a/ltOaxsQc889XTUJxZGqm+/+SbEZ0pdggiUEE1Q+ZoxJtMxuwtw2yAIgiAIgiAIgupIq9X+SScIn9enaok37paCF037TYxZ9VV+z7FUOWZ+2OBEysW9x/qN/5233iaIA6xfggKsRXffVS+AxcGi3PrZ/f33IcfGTyas+7o+111XM8YTtRrf79q5i0YOHy42yl++bBnt3bs34XPJoZxbriG+INyJ6BNX8VNIHk8ycHXZebh9EARBEARBEARBQaTX6//CkuqNUUMsjYZajFkYHBYNuDGmWwizOg2msqEz6wWweP+m2uN/4rHHQK+Yfjl6JCjAev6Zp+sFsEr6TZRdP7zJeih98vHHAa/Lz8quGePhnw8pai45wOrRravcdW9A5IkbuLqH+UySwqufmH+F2whBEARBEARBECQFsa7RN2FJ9a5oIVbZ0BnB4cWgqTFv4p7BXNhnPLUYuzAqgMVPzKs99gXz5oFecYB1JDjAevfNf9ULYFWOmivbyJ1v3wylC+cvkNNqC+hXtvGb9eIY9+/bF9Y18i2Ea7/+mpY9/jjNuGk6jRk5ioYNuZ4G9usv/jfvm3XXHXfQyhdepK+/+oqO16rsikRnz5yh+TffIvuZ4Z85RJ6Y6LcqX9XS3cynkxRcXfZi3E4IgiAIgiAIgqAQ0jXR6VlivS8agMW35QWDF6XXT485wKqpxupyPRUPnEJlw2ZRRYRbC40GU83YR48YCXolA7DWfP5ZvQAWt8nilFw7/1iwMKzx9e/TN+C1b73xRvVJhLvkt0ceP07/mL8gaC+tUE39K5uX0+SJk8SG/seOHQv7RMdXX35Z/v0FoS+iTsS6ivm/mTOZJzK/znwiyaFVbVtxiyEIgiAIgiAIgsKQVqs16tKE3ZECrIIuQ4Jv1xs2K24Aq64zOw6knK7DKb/XWCrqP0mEZ+Ujb6YWYwPHZbF7asbeuUNH0CsZgLX1u01k0GqjAliVYxdSEftZsytDcu0MHTwkrPEtue/+gNcufeghcYw7tm6RfN3+H3+kZsXFYa1jt91BFWXNqWf3HnTD2LG0cP58WvrIo/T6a6/Rmi+/FN8r3Ib4WzZuJJvZLF2BpdYsQ8Sp0c3MK4P4FeYPVb6T+Q4wX2hEsKqu38YygCAIgiAIgiAIikAmtVoT6XbC3Da9gwKM5sPnJAxgyZ1imN15COVdN4qa9p1AJYOniicn1vRSyskBvWI6evhwUIDFneXxRgSweLN9Dq4yOw4S74E1s0By7XBgFI74lj65kwjPnw9+wuCBAwfo888+pw9Xfyj6tX++Sm+8/rr43/zkyW1bt9K+ffvo1KlTMZtL3pOLj6lj23Zyn5sfEW1qtKoRg6lw3QbLAIIgCIIgCIIgKEJpNBo1S7C3hwuwslp0DgoyKkbNVQDACrTZk10zdqNWJ/ZYSnUd+flnSYBVVqeCKRjAqhyzgJpdP4Pye46h9Pb9/ebbnlcmuXZMOn1Y83/27Fky6nT+1VuDBtWM8eTJE4qZS96Ti49p6uTJsp8bY5Mm1yDaAGAx71CheTsEQRAEQRAEQVB04sk1S7K/CwdgpZdWSVTiLFAkwLJmFvqN/4cffgDAkgFYbVq28puvnI4DxW2aTZkLet8gbt3klW5S8+0obiW7fnbu2BnWGHm1Vu3X8XFdHuPRI4cVM5e7d+0Ux7R86WOy161N05Yh0gBgMQ/HEoAgCIIgCIIgCKqHNBrNX3WC8HkogOXKbya5nSxDgQDLnu9fEcS3mAFgSQOsrh07+d/vsg4Rzbe7vJPs+nnn7XfCGuPYUaP9Xud1umrGeOCn/YqYx0uXLtH2LZslG+DXaeTeB1Em5QHWRubfYAlAEARBEARBEATVU86//vU/WLL9qlwi7sjIlwZYHQYoDmA5ivwrgla++CIAlgzA6turlz/AatYuovn2tu4pC3IeuH9JWGO87957A167/uuvxDHu3bNbEfPITyCsPXdFefnSFViCMBQRJuUBViVuPwRBEARBEARBUIxUrCr+jU6t+adUIm5xeJMKYLnK2vuN/77Fi1MeYP188KAkwBo+eIjffDlLqiKec52gkQQ5kydOCmuM/3rjjYDXvvv2W+IYd27fpsh57N+7DwAWAJaUX8WthyAIgiAIgiAIirG0TbQOyUbcRmtSASx3i25+4596440AWDIAa/yYMf4Aq6h1xHNu0JskQU6Xjp3CGuM369cHvPbZp56qGefFixdlX3/o0CFa9d579Pxzz9GDSx6ghfPn0523307333sfLXviCRGQbfj2Wzp69GjU8/jD7u/95m729BnS1WdpmkGILCkLsM4zm3HrIQiCIAiCIAiCYqzqpu7BE3GNJqkAlreNf1VMz+49sIVQZgvhTVNu9N8yWtQy4jk3WhySICfT4w1rjId/Phzw2vsWLaoZ55nTpwNew6HWSytXUoe27SjcUzW5s9MzaEDffnTXHXfQ6g8+oFOnToUc34ULFwLmbvHdd0tXYKnVPRBZUhZgTcFthyAIgiAIgiAIioOuvvrqP8gl/BUj5gQFWFmdBivyJEKDzlgz9qZ5+QBYMgBr7pw5fvfaXlgR8XybHemywOjIkSNhjdNutvi97uaZM2vGeeL48YCff+H5FdS9S1dqXdlCvM8umz0ikHXZVqOJ+vTsRc89+yydPHEy6Nh+OXokYO6WPfa45Hvq0zSdEFlSEmC9wXwVbjsEQRAEQRAEQVCcxJLuM1LJeLPBU5MKYJkszpqxG7U6OnfuHACWBMC647Zb/SuwCsojnm+LJ1cWEH21Zk1Y42xeUur3utEjRtaM88jhw+E3Wz91Stwq+OO+H2n399/Tpk2bxC2K4Xj79u1B35M3kq87d48++KA0wFKrPYgqKQewfmD+C245BEEQBEEQBEFQfAHWj1LJeHGfcUkFsMyuTL/xb9u2DQBLAmA9cN99fnNlyy2NeL6tmU1lAdaLK14Ia5yd2nfwe12v7j1qxnnwwE8NNn/nz50La+78AJZe/0dElZQCWBeYC3G7IQiCIAiCIAiC4g+wNkol44XdRyQVwKoLVN57910ALAmA9fijj/gDrJzIAZY9t1QWYN268B9hjXPwwIF+r2vRvHnNOH/c+0PDNcE/FLwJ/p233SZ1zT8ioqQcwMKpkxAEQRAEQRAEQQkCWB9LAYj8zoOCAqzMDgMVCbDs+eV+43986WMAWBIA6+nly/z7QWU1jXi+HQWVsgBr+NChYY1z0vgJ/g3g3Z6acX6/Yzv9cvQoHT92jE6ePEGnT52is2fOiNtDL164QJcuXYrL3PH33bl9W9C5mzxhvMQ1az5EREkpgDUGtxmCIAiCIAiCIChhAEvzTykAkdeub1CAld6uvyIBlrOkym/8s2fOBMCSAFgrV6zwB1jevMgBVnErWYDVqqIyrHHePHu23+t4/7ItmzZKjr2ut2/ZTDu3bRVh155du2jv7t2074c9tH/fXjqwf7+4DfHngwfF+Th65DAduwzETpwQ+2bxkw7PnTtL58+fF6GYr3n7Ucnf16FNW4kTCIXbEVFSBmBNxi2GIAiCIAiCIAhKoPRqYbkUgMhp0zMAXlWOXahIeMXtrujsN/5B/fsDYElAmDdfe9Vvrizu7Ijn21XWThZg8dMFL168GLy/1PlzdPjQIfp+5w6aPmVKwGu/+PTTsAFWIs3BmsNilTqBsAoRJSUA1kzcXgiCIAiCIAiCoARLlybcLwUgslt2DQBYFaPnKRZgeat6+Y2/vFlZSgOsX44ckQQx7779lt9cmZ0ZkQPDyi6yAIt73759ftvyjv/yS8DJfjfPnhXwOg7YlAiwXnphhdS1XtBqtX9CRGnUAOss82DcWgiCIAiCIAiCoAaQVq1ZLAUfMss7BACs5iNvUSzA4tZrdFeqigxGyQqgVAdYH69e7XevTTZX5MCwVY+QAOurNWvEaqtDBw/Qjm1bg47lH/PnB7zumSeXKxJgDRs8WKL6SvgM0aRRA6x9zLm4rRAEQRAEQRAEQQ0klnjPk4IP3pKqQIA1Yo6iAZbRbPO7hj179gBgBfHXa7707ztlskUOsNr0CQmwnnz8iZBQ6I7bbg143b333KM4eLX+66/IajJLXKt6NqJJowVYHzP/HbcUgiAIgiAIgiCoAcUS7zlS8MHTtDIAYDUbOlPRAMvkTPe7hvfefTd1AdZRaYC1Yf06v3kyGMxRVrxpZQHWgltuiQpg8W2FSgNYM6ZOlbxOfVqaFdGk0QEsvmXwZuZ/w+2EIAiCIAiCIAhqYGkFYbJUUu7KbxYAsIoHTVE0wLJmFPpdw0MPPJCyAOv4sV9kgYwfwNIZoppvg94kC7AmjBkbFcAK53Vy/nbdOrHK7KsvvxD/97sN39br/d57600y6w0S16n5EpGk0QEsPn4zbiMEQRAEQRAEQVASACxndlEAwGrab6KiAZYjv7nfNdw4aVIKA6xjslDGbbNfmStBE13Fm9UhC7D6XHddVACrXevW9OiDD/p5yeLFdPftd9DcOXNo6uTJNHr4cOrTsyd1bNuOmpc2o9zMTJktfgIZtFoqyM2jrh07iYBs+eOP0cZv1occ3+aNG6ht6yrp60zT9EYkaTQA6yBzX9w+CIIgCIIgCIKgJAJY9vTcAICV33O0ogGWq7St3zV06dgpZQHWyRMnZMFMXnaOf8+zNr3rvWWzrluWl8uOgVdGTZ04KWQvrXg4Kz2DRg0bRp999KHsGMcMHyH3PvubNGnye0SSpAdYHFzdxPzfuHUQBEEQBEEQBEEKlE6tGSGVnFtdmQEAK7vL9YoGWJ7Kbv5QxulKWYB16qQ8wCpvVuY/V616RDzfFm+ePCTyeINWND2x9FGxOstmNicEVqW73NS5fXuaMO4Gun/RIlr93rshK6+2freJJk8YL//eaZqRiCJJDbB2M49m/gNuGQRBEARBEARBkJIBVppmsFRybjLbqfnQGTXwqnLsQkpv30/RACu9bV9xO1zt6zh48GBKAqzTp07JApoObfyr1dyVXSKeb1t2sSzgMWi0tOrdd+hfr79GD95/P10/cKAIFeMJq5xWG3Xp0J5umnIjLXvscfri008j7nn19RefU6/uPUL9rm16vf53iCJJB7AuMX+o8m0V/C1uFQRBEARBEARBUBJIn6bpJJek81PmvMWtqOz66VQ2bJay4dXlxuIGi981fPrJJykJsM6cPi0LaXgFlF/T/rL2Ec+1Pb+8Qbb/BZyYaXfQ+LHj6OUXX6AtmzZG3ax9w7q1dOv8BeRxOkP9zkvaNG0ZIkhSAaxvmCczq3F7IAiCIAiCIAiCkkw6tbo0HEDAQZYjt4Q8LbspHmCZHR6/sS9ftiwlAdbZM2ci6u3kLG4dedP84lYNDq9yMjLplRdfjApYrf/6K/G1vDn84H79yVW7sb2s1XcjeigeYJ1j/oh5NrMdtwSCIAiCIAiCICiJZRAEd0TAQNCQxZtLnij6JSXK1vR8vzHPnjkzJQHWuXNnZeHNzJtu8psnR2Fl5E3zyzrUF0CdZV6jE4THdGr1HN5TSp+m6aK5VlOoS0tLD7BaeFXqvTLdHurRpSvdMGY0zZkxQ4RSl82rqmZMm0bjx4yhIQMHUvfOXSg/KzvaMb9js9n+DdFDcQDrPPPHzHOZy1XoawVBEARBEARBENR4ZDKZ/osl5BcjTeJ5RZY1o5C8rXsqDmDZc5v5jbVPz54pCbDOnz8nC7AW33Wn/6mTbN7q2zQ/TH+rU6tnGzSappGCIJ1Ody177fEGrPh6z/YX238icjQowLrIvJX5pWpY1ZPZw/zvmHYIgiAIgiAIgqBGLJaUb4g2oddrdGTLLqH0qt6KAVjOkir/k/C86SkJsC5cuCALsJYvfcxvnmxZTSOfb3bfw1wrZ3Rq9YMajcZV3/WqV6sHNAC4uqRPE+4QBAGQJDYAizdSP818hHk/8/fMm5nXM3/O/AbzUub5zGOZuzOXMJsBqiAIgiAIgiAIglJUekGYVd8EX68zkD2/jLxt+jQ4wOKn6dUd308//ZRyAOvixYuyAOu1V17xmyO+NTSc+fW26iFCQg4uzc6MsNZHLMCVP3RVz04QuDrJ/KRerfYiUkAQBEEQBEEQBEFQA6pJkyZ/Zkn6j7FI+A16EzkKKim9bd+Gg1htAquC3l+1KuUA1qVLl2QB1icfrvabI7Mr0x9UVfUid3lHcjRtIVZnmexeEVRGsy60Wm1arNeteIKmICxg7/+aLk3YHSNg9Qt7zw90avU/9BpNOSquIAiCIAiCIAiCIEhB0l6rzWDJ+/5YVa4YTBZyFrdqMJDFQVrt8dx3770puY1w+5bNkgBr07ff+N8zo0VsgG+yudn8GWNaxVSsKv5NvNcwh03MZq1a3VKv1gzUq9VTtGrNbcwP6QTh2drWq4VHmO/VC8JM/rM6tbqF/tprdextrkI0gCAIgiAIgiAIgiAFy9ikyTVigh/DLVhGk40cRYkHWSaby28co4aPSEmAtXPbVtkqLJfNHv9teILwDD5dEARBEARBEARBEATFVLq0tHRdmvC0r/F2jECW0SpuRUsUyLJ4cvx+f3lps5QEWN/v3CELsIry8uMMsNR7+MmB+FRBEARBEARBEARBEBQX6XS6/9MLwlidIKyP2dZCg4XshRVxb/Zuyyn1B2haHZ06eTLlANae73fJAqy2raviBa8ucghquvbaq/FJgiAIgiAIgiAIgiAoITIIQrZeLTxcfSobxeLUQmtmIXladIsLwHIUtQz4nWu//jrlANa+PXtkAVafnj1jDa6+1anVU41paVp8aiAIgiAIgiAIgiAIahBptdo/iVVZauGH2PRH0pDZmUHO0jYx3V7IT8+r+7ueWv5kygGs/fv2ygKs4YOHhAccBc0xm9G0Wa/Ryjb612g0f8WnBIIgCIIgCIIgCIIgRYif+KZXq4fr0oTdMdteaLSQLbuI3JVd6w2wvK0DK4umT52WcgDrwP79sgBr/Jgxwe+FRnuwICfvk/Fjxr3/ysqVmzdv3HCB//zDSx5YI3MP9+OTAUEQBEEQBEEQBEGQ4mSz2f5Nl6YZrFULO2J6eqHZQbbsEnJXdIoaYum1er/37NCmbcoBrEMHD8gCrOlTpvjN0YC+fd/74rNPD0n9/OpV78lV3q3BJwKCIAiCIAiCIAiCIMUqPT39t1pB6KdTq7fGuiG4wWASTxV0NK0kT8vuYQMso8Xh9z5mvYHOnDmTUgDr8M+HZAHW/Jtv8ZujSePHvy/381s2bbzIfu6sxImDq/FJgCAIgiAIgiAIgiBI8SpWFf9Gn6bpqVML38XpdDsy6I1kdqSTLbuYnEWtyF3eibxtegcALLMrK7CR+9q1KQWwfjl6RBZg3X37HREBLG7eCyton6w04TN8AiAIgiAIgiAIgiAISib9Sp+m6aJXC2vjBbKCnWxoNNnIZPeQxZ1NRrMt4GceffiRlAJYx4/9IgujHlpyf8QAq3lxyWqJe7ARyx6CIAiCIAiCIAiCoGTUVVq1upVOLXycKJAl53Gjx6QUwDp54oQsjFr++GMRA6yxI0etkthCuAfLHYIgCIIgCIIgCIKgpJZeEIp0amEF84WGAlilRUUpBbBOnz4lC6OeffLJiAHW8scfXycxv2fYbf41VjoEQRAEQRAEQRAEQUkvjUaj1gnCAp1aONQQEOvwz4dTBmCdPXtWFkatXLEiYoD17bp1J3Vq9flgc6ttojVghUMQBEEQBEEQBEEQ1GjUpEmT3+sEoa9OrXk7kVVZq957L2UA1oXz52Vh1GuvvOI3N0MHD14VCmCJjdxN5k1B+5AJQlusbAiCIAiCIAiCIAiCGqUEQfibLk0zUqfWfKhTC5fiCbDuvP32lAFYly5dkgVRb73xht/c9O3V671wAFariooPJADWjVjNEARBEARBEARBEAQ1emm12jRdmmawThCe1anVB2MNsPr17pNSfbB2btsqCaI+en+V39x069QprAqsmdOnBz2JUKtWP4cVDEEQBEEQBEEQBEFQykl/7bU6rSB016cJ86qbwK+rBltSlVp8O+JJKYDldbro4sWLKQOwdu/aKQmiPl692m9u2lS2/CAcgPXma69ul5jfvVixEARBEARBEARBEARBV/SrtLS0/+HbD41paVpeuWUymf6L/4NeoymXq8LauHFjygCsvXv2SIKodV+t8ZuXiubNPwsHYG3ZtPGiXtD8Emxu2f0QsDQhCIIgCIIgCIIgCIJCSK/X/06nVh+XAliPPbo0ZQDWTz/ukz5RcO1av3kpLS5eGw7A4vY4XV8HnV9B6IYVCEEQBEEQBEEQBEEQFIZ0auFFKYA1/PqhKQOwDh04IAui/ABWYdON4QKsTu3arwreB0uzCKsPgiAIgiAIgiAIgiAoDOkEYYgUwMr0eMUT+lJBRw4flgVRJp2+Zl7ysrN3hguw5s6e/WHQkwjVwlqsPgiCIAiCIAiCIAiCoDAknmYo0wdr65YtKQGwjh87JguinFZbLbDn2R8uwHr9lVe2SsztRTb3f8IKhCAIgiAIgiAIgiAICkM6QVgvBbCWPfFESgCs06dPyYKoLI+3Zk5cNvvRcAHWxm/Wn+awSqIPViVWHwRBEARBEARBEARBUBjSpwnzpADW6BEjUwJgnT9/XhZE5WVm1cyJ1WA8Ey7AErcfav9/e3ceI2V5B3A8xqSNNmnSpgnJdpn3msUqsooGKaZGFMV4oKINWCQgige0comgVttoNYVopU1RjBqjxkVsPGJFW9PWA9RixYp4FQQUcDmK3Ogiu/TpDunhmnlxFpCF4fNJfoFsCLvzzO+vb959Jlte/nyTG2wfAAAAQAXSQvqDvIDV67ieB8xF7osXLsiNUKf07v3/+6viJLQnYPXofszcnPN9wvYBAAAAVObgYhSvzYtYHyz54IAIWB8uWZwboc7o27fNmcx/4/VNlQas0/r0mZ1ztkutHgAAAECFilHckBewHm6YfkAErMZlS3Mj1LlnndXmTF6eNWtFpQFrwA/PeyHvbF3kDgAAAFChNIoG5UWWH48YcUAErNUrV+RGqEEDBrY5kz/OnPl+pQFr1MiRuQGrLooOt30AAAAAFaitrf12FsUt5SJL9271oaWlpeoD1to1a3Ij1NDBg9ucySPTG+ZXGrAmjh//Yu4TWIVCH9sHAAAAUKEsivLuagqvz51b9QFr08aNuRHqiuHD25zHPXdNe22PBKwoGmTzAAAAACqUxvE1eaHlN1OmVH3Aamr6NDdCjR8zps153DZp0pw9ErDieJjNAwAAAKhQWpt2ywst55/bv+oD1vaWltwI9fPrr29zHj+79rqKAtaCd99p+dHAgc/nnWsWxxfYPAAAAIB2yKJ4abnQ0iXNwvr166s+Yi1Z9H7ZEHXrpEltzuOq0WPn7ixaNTz44Jv9z+73Ql2Srs6NV62TdE5OsHUAAAAA7VCM4jvzYsszM5+u+oD10dKlZaPUXVOntjmLyy+9ZF7p6/945+3PXnt1zselS90njBv34qm9T5pdl6RrdhatPjctpcvzbR0AAABAO6RRdGZecLl24sSqD1irV64oG7Aa7n+gzVnUJem21j8/rTBU5c1zNg4AAACgnWpraw/JCzMn9Dq+6gPWurUflw1YTz7+WNjNWPXF+awujnvaOAAAAIBdUIyip/LCy8IFC6o6YH2yZXPZgDX7+ef2aMBKC/FomwYAAACwi9IoujgvvEy7446qDljNzc1lA9Z7b7+1p+LVJ8VCMtiWAQAAAOyGLjVdvlO6YLxcgDnvnHMP2E8i7F5fvxvhKmpOo+TeJEkiGwYAAACwB5QuGC8XYuqSNKxetaqqA1bj8mVlA9apJ/dp9z1XaSF+MSvEo5Ik6WSrAAAAAPagrJBcmRdmpjc0VHXAWvPP1WUD1qABA78sWDW2zhPFKLouLaSn1NTUHGqTAAAAAL4ixe8Wa7Mo/le5UDNsyNCqDlibNmwoG7CuHDkiP14VkkttDQAAAMBeVizEr5aLNYfXdQlbtmypynjV1PRpWL70w7IBa/Itt+R/qmAUDbIxAAAAAHtZWogn5gWbZ2Y+XVXhatu2bWHVihVlw9V/Z0bDQzu7pL2/jQEAAADYy9I07ZIXbMaOGl014Wr1qpVh8cIFO41XpfnrS7PzA1YcD7UxAAAAAB0gi6K3ygWbo4/sFpqbm/fbcLW1qSmsWrmionD1+ak/omvOHVjxKNsCAAAA0AFKn6iX99TRjOkPh61bt+5X4WrL5s2hcdnSdkWrz0+/08/IewJrsm0BAAAA6ABZlnXOonh7XsTqetj3wpALLwzT7rwzzJs3L7S0tOyTvya49uM14cPFi3c5XJVm4XvvhmFDhuQ9gTXDtgAAAAB0kCyK/pR/eXnb6d6tPoy47PLw4P0PhPlvzu+wJ7S2b98eNm3csFtPW5Xmldmzw7SpU8Nlwy4Ox9QftbPX/opNAQAAAOggxUIyuNKA9cXpkmXh9L59w7gxY8K9d98dXn7ppbB+/fqvJFqVnv4qRauVjR+FxQsXtjtWzX/j7+GJRx8Nt02aHIZfdFHo1aNHe15ro00BAAAA6CD1nTp9I4viTbsascrNCb2OD4MGXhDGjxsXfn377eGRh2eE2bNmhUWLFoWmpqZ2/XrghnXrQuPyZRX9CuBrc+aEPz/7bPjd9Olhyq9uC1ePGRsGDRgYju/5/d19TX+wKQAAAAAdqBjF9+3JgPVlc9wxx4ZTep8Uzjmr3447tq649LJw1dix4fprrg2/uPHGcOvkyeGXN98cbrnppvDTCRPDdRMm/G/GjR4Vrhw5Ilw8ZGjo3+/scPKJJ4Zjjzo6FOPkK/t5i3F8mi0BAAAA6EDFOD5xbwas/WlKcc+GAAAAAHS8g9IoXiJYtZ00jn9fLBa/bj0AAAAA9gFZlPwki+JPhKsdsz2L48ldu3b9ms0AAAAA2IfU1NQcmkbR+cUoeSiL4tUHaLz6S10c97QNAAAAAPu+g5IkqU/jeEwWxY9lhXhZFUerlVkU/TYrFI71tgMAAADsx5Ik6ZRG0ZlpIZ6YFeL7szj+WxbFG/eTSNXSOo07fuY4frJYiKcUo2R41jk70jsLAAAAUOWKxeI3i4XCEcUk6ZvF8dAsSm7ICvG0YhQ99Z/I9U7rfNA667Ioat79GBVtLv1fOy6ej+P5rX9/oXUeb/36PaW7q1q//9Wt3/uSYufk7LRz2uOwzp1rWn/Mg71TAAAAAFSk9Ml+hULhW10KhbSSaVUo/fva2tpDnB4AAAAAAAAAAAAAAAAAAAAAAAAAAAAAAAAAAAAAAAAAAAAAAAAAAAAAAAAAAAAAAAAAAAAAAACwH/s3vMp/58Dn3NgAAAAASUVORK5CYII=;" parent="t97eaOo3kyGEYDDg0i4q-18" vertex="1">
          <mxGeometry x="50" y="35" width="93.68" height="30.13" as="geometry" />
        </mxCell>
        <mxCell id="t97eaOo3kyGEYDDg0i4q-45" value="" style="endArrow=classic;html=1;rounded=0;dashed=1;" parent="t97eaOo3kyGEYDDg0i4q-18" target="t97eaOo3kyGEYDDg0i4q-27" edge="1">
          <mxGeometry width="50" height="50" relative="1" as="geometry">
            <mxPoint x="159" y="55" as="sourcePoint" />
            <mxPoint x="209" y="5" as="targetPoint" />
          </mxGeometry>
        </mxCell>
        <mxCell id="t97eaOo3kyGEYDDg0i4q-46" value="Send over&amp;nbsp;" style="edgeLabel;html=1;align=center;verticalAlign=middle;resizable=0;points=[];" parent="t97eaOo3kyGEYDDg0i4q-45" vertex="1" connectable="0">
          <mxGeometry x="-0.0063" y="1" relative="1" as="geometry">
            <mxPoint as="offset" />
          </mxGeometry>
        </mxCell>
        <mxCell id="t97eaOo3kyGEYDDg0i4q-39" value="Internet Gateway" style="sketch=0;outlineConnect=0;fontColor=#232F3E;gradientColor=none;fillColor=#8C4FFF;strokeColor=none;dashed=0;verticalLabelPosition=bottom;verticalAlign=top;align=center;html=1;fontSize=12;fontStyle=0;aspect=fixed;pointerEvents=1;shape=mxgraph.aws4.internet_gateway;" parent="t97eaOo3kyGEYDDg0i4q-31" vertex="1">
          <mxGeometry x="409" y="-11" width="57" height="57" as="geometry" />
        </mxCell>
        <mxCell id="t97eaOo3kyGEYDDg0i4q-44" value="" style="sketch=0;outlineConnect=0;fontColor=#232F3E;gradientColor=none;fillColor=#ED7100;strokeColor=none;dashed=0;verticalLabelPosition=bottom;verticalAlign=top;align=center;html=1;fontSize=12;fontStyle=0;aspect=fixed;pointerEvents=1;shape=mxgraph.aws4.instance_with_cloudwatch2;" parent="t97eaOo3kyGEYDDg0i4q-31" vertex="1">
          <mxGeometry x="649" y="129" width="38" height="38" as="geometry" />
        </mxCell>
        <mxCell id="t97eaOo3kyGEYDDg0i4q-47" value="" style="sketch=0;outlineConnect=0;fontColor=#232F3E;gradientColor=none;fillColor=#8C4FFF;strokeColor=none;dashed=0;verticalLabelPosition=bottom;verticalAlign=top;align=center;html=1;fontSize=12;fontStyle=0;aspect=fixed;pointerEvents=1;shape=mxgraph.aws4.route_table;" parent="t97eaOo3kyGEYDDg0i4q-31" vertex="1">
          <mxGeometry x="409" y="149" width="33.5" height="32.64" as="geometry" />
        </mxCell>
        <mxCell id="t97eaOo3kyGEYDDg0i4q-19" value="d5_instance_2&lt;br&gt;" style="points=[[0,0],[0.25,0],[0.5,0],[0.75,0],[1,0],[1,0.25],[1,0.5],[1,0.75],[1,1],[0.75,1],[0.5,1],[0.25,1],[0,1],[0,0.75],[0,0.5],[0,0.25]];outlineConnect=0;gradientColor=none;html=1;whiteSpace=wrap;fontSize=12;fontStyle=0;container=1;pointerEvents=0;collapsible=0;recursiveResize=0;shape=mxgraph.aws4.group;grIcon=mxgraph.aws4.group_ec2_instance_contents;strokeColor=#D86613;fillColor=none;verticalAlign=top;align=left;spacingLeft=30;fontColor=#D86613;dashed=0;" parent="1" vertex="1">
          <mxGeometry x="1330" y="300" width="180" height="120" as="geometry" />
        </mxCell>
        <mxCell id="t97eaOo3kyGEYDDg0i4q-27" value="port 22, 8080,8000" style="rounded=1;arcSize=10;dashed=1;strokeColor=#ff0000;fillColor=none;gradientColor=none;dashPattern=8 4;strokeWidth=2;verticalAlign=top;" parent="t97eaOo3kyGEYDDg0i4q-19" vertex="1">
          <mxGeometry x="-14" y="-26" width="224" height="166" as="geometry" />
        </mxCell>
        <mxCell id="t97eaOo3kyGEYDDg0i4q-25" value="" style="shape=image;verticalLabelPosition=bottom;labelBackgroundColor=default;verticalAlign=top;aspect=fixed;imageAspect=0;image=data:image/png,iVBORw0KGgoAAAANSUhEUgAAAeEAAABpCAMAAAA6AGs9AAAAzFBMVEX///9NTU1JmEjj4+NJSUnu7u5CQkJGRkbn5+fr6+tKSko5OTnv7+8+Pj7z8/M8PDxycnKxsbGSkpKKiopcXFxElkP4+PjT09NAlD83kTZBlUA1NTWenp7c3Nw7kzq+vr5nZ2fIyMheXl5TnVLy9/LCwsJ+fn7E28To8eh2dnZTU1Obm5vY59hipGG71buxz7GsrKyCtIFvqm7Q4tCnyaePu46exJ52rnWOu418sXsThhAtjSsoKCgjIyNlpWSzy7PH1MbY4Ni1yrXQ2tDIgip3AAAUwElEQVR4nO1dCXviuLJlMTbYMWYnZjFLAmHJQvbum3v79cz8///0vEkqyZIsAyaTDueb+WaCjS18XKWq0pFUKBDcPN5fF874k3H9/p+rlxX30N3NidtyRj64vfr4uLvnHLhy7x743J/xxXDfdT3vLUHmXbd76Xrvrw83z7e3q9Xq7M6/MB663qV793ZLffjeLfnoDi49z41Qunt8uTmb9dfEfdfzLXbw+kw++jEosfCt2nMHj+cO+kvixfVtduB6r8iSX5MMxzy73Wfppc74d2L1K+DYJ7kbkcyxYYyPt89ubYDaeLZYLGb9cf2zW/JV8HzlhvwN3MGPm9WVmOBSyXv83KbWF625bdm27sN2LGO6nfU+t0VfBDdXXsTgwHNlBH8yxZPpUDfMIoBp2MP17BOb9HVwX/Lk1CK4n+aod7quFTnQ7M3ks9r0pfDgXSpR/PE54dZE13n0RpZsz8uf0qivhtcw5Eq34k+ogfQajpDfkOPhDpxdL8/OQRgXqzsVM+7enbxhZcMgbBpBqGXZBs2xvpk21ut1Y9oxLcv578XxG1Hvz/4AT/FTxYq9U3fFfYuEV5rV7vsG2uu3LCrmKpqmFsAMP3WOH2G3g/dq0z/6dU+MG6V46+O0JczxEBjwvII+rswZMwYwjt2G3saIeoOvHtQ9KzF8Wj99YQPmpvDIlBtbhzh2I6bobRqOj33p00LNhkveywnbNAc8GpT37dlcdn1Tmx+5DTMc6GnTI1/6xLhXzYpPF0/vQJZkL+hjE0EGpTWO3Iglecus6pGvfVo8qOXEpcHPU7WobgHTTDjfIh1taUE50zAMfXnkVoDb6Iv00//FeFNkuOTepl/sKGjBPGnEHh1RwZa27C8mu1GrvU6ceCBAd6A3j3zt00I2sEShe3WaBkETLtqJKKdMFUKO7pwxgK/Qv3Y0/ajKcMl7OEmDmrCntZLHmYQpr2YsyX2crx1MPyrVLSM/fZJgawp6QF6EvKYSJjuvZpBYOhkLfC1kYPgkSTHlpA1O/ER3xFZu5WicsllfO9BivLTnyQj3fuTfnhnMeI1t8gTKixetWl4NqejRq+S08rrDiQBFWt3S/f2TTBCgMFR8vbq9vX2+3VuSu4MmmgylmVeg6OTGcKHesHTdtnbpZ/67AbOlQUDLg5TiV9F1rp8f3t6vXIKPq9d98qs2ZFjnPN4+xbBVSZ5xNJQnzT9AMvRCGPaiCRHSDNn7lRyDWN28vZdc1xswHn7glrKH3w0theExzfDXZyBvPICqZfyRhOBAYfuDmObq+eH1znO9S1Hv7V1mrWd3YM3KSGU4t1j6zwEZW8JkpJSqB8EMmLe3H+9XHz63rOEmOO5mk9VvKIY5kRbFsLk5/AlUmu3pptPYZpP31We7dmPuf689SpOXVCbb9Xwzb7Sb6Yn1oj3frHf8C453S/8yy1HG9PwWd7s43e19yEkLZ8CkUovhchy7GLQNt5MnUP2wtgZHttNGhCmt9xjjz4O8Z4L/CgcU+n48ZWimqRm2vYUuf4TPSz7vXnNq2UbwNf97hm1Nm+LOYjKNbuCfqTtGKzGKEd9nGgSVM802/BP1/waXa6MGRHW7ycbSo8s4GXWIiM4BUc1eqefIKui6Gbpjqh/mFSXpdAoG20tdizCkw6++FX9uBwXmph3/ZZV9S1xb4H66Duy4ha/GMtzb2owGVNNtQV18YdrUqYa1ZGLDdnQf3X+ZR7GIJXpvG0bcgEDcMN7Y5NU37XmWAPMxDqyAjEO5Vq0K90k5IKJiaZ5ygxo/tPu8rzIBNrb6cAgB59NOuTBzmBookPfhARC2qDJhv5R8OxDqU8dkTzSGdHARt9p3V01U7IkK4fhdN33uh8yQmpVFXFQK+YR29qI63qSM7kA1c9qlFTSompbDeVbKDFd2QCyEvoofv4BhsQbUSnQpY77c257C9x0x3Krh1kQJAvFmhUZS+GBl6I2vf3147geMeRV1H5ng8uamc0Cnu5xhHejG6X46I8Nmg6cmGCJT5DNcK4qlYvqUbulsmDDguNkaeHERw1tccI/7JvxDN1POPU07S564unmmTr9NmeiyH8WKek2KYS1ZmIbHLUrsmpHhIv/5o46By3BNF5AWfZUaKJklPQS+s04oRq0m0qX4tSavMveevJq9Mq7zYLjkqk2AWspHFqCNMz8yK8N8oPF+HsN1Q0aw3yAQ2o/FBAecYZNqJww0vmFDrDqMTjtEy50LwyXvXeXefTi4lKxMA/1U0aKzon0ZNumpb3GKzWNYIvWMQELqnvxlMHCWwISWfmYVH0oyTF+RVyxQxnGzJUKxkhXTj5EZWigD/i2mk96LYcPROhuHUh1EtsFheER91U9vHdv/h6LyfygAWlMjKHpwIhV32U221T40Y9RsI4E2w7DuFDsmFcabamRyIZ1RfACUEmPavWm0CAAURHQ2dt2HYSssQdR3INuM3XSS4SpsmK63ZtVer1frj4q44zAMNJY8A2+i4Swn42q135zCSRtOnWm1/1s7ge+uxwfoyoDRDD6utkEkf8jI6V1ORqwmE2nTpgKrHsAy9EQ1JDvDpo5Mrko+jQP0JMPgkZvUoOIksk5tSIaSgUe12tgJjOeJ20CGbSrooJIGnGBNyKvDy8BV8ZQXw90nldt36DIQnjrU34CnsU58LTvDNqkhku4/VsAnGB6TZ2t06AigF+Qz9pSEPhMSD9J9SRscuKBbzY6kAYahIyNS1EM0oO95MVxyVeYi102KYtPpjCaLybYDCkQWR3mRmWEbPnxSQopCrQTDJMjXkvKxtUOl7nPcUlYDRBxUHEQShpm8ATDsgB9Epn3w9BGqyI9hNU3uBVNXMI1A9074NWyeg8qcD1NEkWpoFMGwDPewCZsap9gwgp+ReFBPsEDIN+hWm1P6RMIwTSV+04wD9EX5MaxY2+qtkwVdwq/V5tZzsjJMz2Wo4RgmevIsw+QNSK8J49IrZ3STsB+pdHGrWZMkDNPGjX/AIQz/yo9hrDNIwWxjc5NP07CWglQ/K8MO/XXi/cI/WYax6WjJCIAFJoc3IQZn9JG+AbeardA2mCpm4uccwnBe2VIAT7FAXZgly7Ga7pgjYY6QkWGWKaw94DOMfYqdPqxD3ATnIG5OxBxuNXtd8prQEVUVOZtDGM6npoWg3IzwNxrRWlqB7NFY72SVuowMs15xKmX4gnTDqe0mHHBrx/hKBtVqVjaKGWam9tSPwHA+dWkEVSOuhzP+rd14Nmk2m5NZ6oJ4GRkWekUuw8Q3cnQnDOgbJoBfpfDKbTZmT7SH+Tm9I3jp448P01BqRNkIfmGWke6sDDPx+FLK8Ax/LV1AvUDn8h06sdoy1WrmNMIwE1ceHmm95mHCQDbiqmjzFuHgqp1FkZTOcHC1pujxk6A2/JNheCIyfQ7ILbjD9FjDEB5WYJg5cDDDTzmM/5eu3shrozL/aRR2VtnWbmgJejQRw2PB17kMC02fAygU4v02PsOsMFjI8IH58PVVHi7au4FzKdInmy8jUrJVbbapDAe5C3n8+TOcyYbZuJvE0syBwxheKYtkM+GyAJPsbsooYh2tqqTQ5wHgJ+fQklXMcFgJExqYnOFFBi892asfFjLMyhHx5/sw/JxPFD0IJi2ugBFLh5guDPwb0uNWgB1lGwQz6oHvyTCJpdP9yozqFhLAA+B0LC300hpzAGd1ezD8kKqF3w9eGFuRWqh8rksDTL/PolQRxVATymnuyTDOcRUWlijLM1a6PEosmjkNqmkpHMDwW155cGSzQODXlbSiBgfa7SbIEnv1SrU87vdnIcZVJosgjpSuFRJOa4W9GSa8KIgckQ1zlw8Q1bSEsfTxGH7MrdARE0qEBbJBRHrJLN0y5/POJihYWj4cx8ZwrM1yAl4A4kjp7htHYGFiuS/D2LcqdMS4puFwOmIyNhT6+xMy/JhHlhQRHKdHZMpbVyLKg6stRb/QNAUDTaahW0vc6WLnyGhwSfkv+GtfhnEvr7CuB475OC69Jhpbyp3h/AjGyo6eUqy15I4pCaENUThGRnCpsLSHiI8GYPdlGIz58kSOVH1yjF26k8itiNCQGR/Om+HX/AguldCw/6NKrLXOxnAg84ldNR4dourB2KCiyHxfhoEI0EqmxK0hNUWRzJHVmfEEotdkNR45Myxd2yEm5XLQ3TNZRhYLkjGx1mPJeulUaJse/bCgpg0HwTHvezMM4oPE8jxt2w8UQJ8LhCQaRfGIaCXj2uqJGL5NT5MuX15e3+9KwWZqDDzxGgD4u/F9yHniutYoM8NorgEQ4mxQabpMxD+REHpvhgsa1E/CgDqWUA5BpkzeBtMhkVl9TYR4Ca1lvgwnSekGRELiXDz7tHd9fb2KcBvg+eYhTZyJsiOyRshAuOZLX77BAxeR3yQdcdG0R0Fhq7wlEuVYUbM/wwvQMEPfxhHexaKB7qETT90Ek2/sTjMUZfdbUNCOhkdOw/Ab2wlffjzdr65voZrHlc7kZ5y8x1wQrZgI6lqe8FobsURLBLMTfhM6eMPRDRs+0rhz3p9hejaGf/1OozE1HTCVAXhquEa2qTu2EfwLvo4leidhmBnx73rdt6jjBISUPKkOljZi7/6GodztseeJU+KylZ3iaDptWTYbLC7vHsAwXLs+fPSaxrSUyPRrVlEGrYNOPAnD1Ih/1wV7igPeLqWzQ+klmnz7ZChGa0iQqcmS4YeymTI/kENfZBKSKA11hwcwLJswGvEGpJULKcU2jr9OwjBct8O9gyEQME250plavyescDDROYqsQKwlqf6NHP70eSFisXFdtEsA2S/iEIYLOyltpgEzppHk3CGJu0/BMHTSjJwZrugh7YipSeWRedIZNnpByPpdl9JpaoulGT81Qw8KlJblxEXLYGWb5DOLixx9gZWZeL+IgxiWUqxptLZESLEJtUmnYPhZPDYP/beUEdhjlwaRQ6dV12jPJvDOSFu1C4WW1qa9W/TH1YtegHqtOu5PRsuilfDGaC7xhEuxSWYoHcZwYSIMEvQp65Sa/GUeDAOObp6CYWJWCRkkXNFDKr6hgrU4/e3RKdRHFL0949Tbk+i1xhs9eNe3AnF0dWcwHGPFxmKY9O9GkVznQIYL5Q63J9CGnHHjsZYMKEyrQb0Jp2AYG2qSQ4o4qZuGLvkymRuVSLD1gikW9+yt4O03Ddl6My36QZMx4ercoTk2qFVymroZgV0loYUO6PSfiYUmmlpiOoZhrfkbumwZb6PZG6bk2TbQfZivNuIDGqsACLaJC6Cuj8BxMMeo4OwH6bg9jKWxP7+nKEZvyP1HbNwi0WW/GL76hnxZMHpGPhz1n0XL0AWvv2bYVpuisrnpRCgynGzRgQ39ZzGp0140LDueKRcudWduhRv21EeaE50anGk1EiXtFr4Pc2DZQWAOoI83yjaMGeZEtzALkkbTkGGyIwQVbQ3QAuSrOzescwr8fjvq6lJXjJqbAoaDpSRbjY3u6J31KJ/1g3v9XXtatB1902g1U4QowXqURnDmdvFJG6xiL80pM61U3TTFMOnOn+DyemTI8PbtV6nb7fL2cJrFa7OnL0Qyg0bMlzWeEQJvquVyDj4pFj08PsNUrq2yFHEbpRjpYpkezEby2w7gDwCuVvDGe6hEV+ymqZAMFjivqTUyU9uyxUochbWE4Dq2mZaI+27AS0xzbRTOFhcP+VEvwgcUcEA/nyqFr+BsVmWTI6AVOMZC038uCDsDzlFonWI3DRNnZn1DQL68tl2AY8Mqi7/DhYqOve/hHwXCIXfiJ1VgFl0DbJB5yQ4p3KooOyJgv6u0JSxg+IvvTZg3CAM8Iy68k65U6GbJpj6cnAqsQy9fLp5sp6WUzQPNXibp/PcDiZcHXJUriYeFbpbUoHkvAR5KTJkdTvZwUKrIkQ30zENWAPwGAKWnAa9YDIMlwSXIrDPuPsU/4+MD+a5rZIV/JRsmqppDlpb6FqAGiDkCKvIKCNz0dYofxn5a3hEThlW2nQW7tpyz4RRQlSuPszIhno8icNOYQdGyhuj7vKIKAVg8mreKDQM8W+Ww1bS/Byg17UfSTsmuTHwjxEUT0YggctPyUItom1XyYWDC5zgrFSsgeeZNDMQM8ynCobRIQYlGMGRjwgVIWnqoBWYPZJpm/F1xfYVI4q5L+BO7aW5tGUXjQnkdypfl0h24WiezAHwCVbAM77liqYR4hZbuL97BN7FKIAA2YVE2hNx4SlULLBybtrggUVVzphGdwUU0QdzjzgokSp8PznEcSgunFKKqpniqQwi4g7hoG7IIZElE7lTAM7h49gZdTpgVgKhledEwKVqJLo0YTlukBe56INncuUcINtIXEj0Do/fYZQkONY49oOX6GX8EgPkXFzRUGYZGXHREEVTfJARPM/3C74iYpXqIXu+iUuOggmf+ev9Xq9IoV6solL58qZbL5eDD8EuVi+ia/jugyjDcxyDYXIyzem+h0iaK1uRuD2cUEJ8XFxUKNfRfDi6wIs+rsgz7dKIxZO93wDAPf2MrDwmXgNrHw7Q3TUbb1G8D+SJvM4DvCkxrAhUGPIb/wjWr90qC4GoN8e+WBQxXMcOv8RnVWsU3b15L15SG0tSt+XYxvvBP7dX6zbYBZvBp7I5L3xPIARNkZ7jygtOhv5MmXK2iMOyqlsrwC3NGtXbBChDbzGwQ09BtK1yIx9ZBIGY6jSy78P6hSLDLoViB4Qtclx7UOAwjC+8+iRgu//bQG8I9o0ZZM3+HX4Z2vcjro78Z+PzuwTB20oM3jpOu/hMd7rpvVRHD6Areb8EJ1OBQfTmUc6zZxbODDrAXwxyK/8ZqzL94Tvof1/P8VPrutSxkuPoUnON5H38JjjNdcrltCeeXarqzPpexEJK98D4M+xQGC/H4RlrhMRzyWo38t4DhcvV3gH94BFcrvKkA9ebUsg2G5WAKiU4thHdGAJTu+nTux3Ct+vvl9fHx8SX8fylEDJc59h3E07LUqTcbrbWhRVY51KetyXmgUIY4FQbMKjJcq5FDcoYlFGNe/fBZyiyNyjhcqrQ/rp2HkDKBlLJilrnEcsw5G7fVoL4VVrdSKh1nnASk1pzst7GJM/8NHUHs/1GV8szmSfD/q63fIJXTygEAAAAASUVORK5CYII=;" parent="t97eaOo3kyGEYDDg0i4q-19" vertex="1">
          <mxGeometry x="14.5" y="26.509999999999984" width="151" height="32.97" as="geometry" />
        </mxCell>
        <mxCell id="t97eaOo3kyGEYDDg0i4q-24" value="" style="shape=image;verticalLabelPosition=bottom;labelBackgroundColor=default;verticalAlign=top;aspect=fixed;imageAspect=0;image=data:image/png,iVBORw0KGgoAAAANSUhEUgAAAWcAAACMCAMAAACXkphKAAAAhFBMVEX///8AAADc3NyampqlpaX8/Pz09PTw8PD39/fs7Ozm5ub5+fnv7++Wlpbh4eHBwcHT09OsrKzHx8d/f3+1tbVsbGyvr69OTk6NjY3S0tJISEh5eXmhoaFzc3NZWVmFhYVBQUFVVVVjY2M3NzcREREiIiIuLi45OTkbGxsnJycODg4dHR1e731vAAAbm0lEQVR4nO1dh3ajOhBFNBswHQwYU4y78///9zSiCRAYEyfZ3Zc5Z7OJMUJcRqM7RYLjfuVXfuVXfuUvEztNC/OnO/HPy+p0VzjlHPx0P/51SdAa/1SR/dMd+cflkMqWoRjI/+mOsGT1kxf3bOmNrenBDoFkb2zzTRIFCCk/dXHzhNDuje1pqCA4/3EzoZpCt8KfubhCLo7kNzZpkRbRG1t8i2Rlt5IfubheXhwZ72xUufx5OIvVjaL4+68tNRd/L86cAk16b23yUyILj+ZO3e++uBGiVtT3tk1uKwjDMEkL/Q3t8aa1mflVWTV4i6c/MQvqRr97evau9MXfjLOAEDH7H2+6M7ns5GVXJEkcu1mWhSD4/8x14zhJEr8I8supvZ+iOXd179woesdjny9p9+LvZTsYZoQf44fEme+xiA56VVo0k96R/ad784Lw/X69EWeteYalOr/BUEunfn+fidOcG/eOiJ/uzSsdP34Zztbgnt9gEaVw0Oq0UPO60H1I28/35hUxu5bjbf5oB+bqaV5N7dPtrt2XcO44uB6N9LfTIING+m04dxSPU+ygQtzdO3MZw4hEdMtXpx6B0nqlqHzkmGJ2oa7cFepWf8BNFb4AZy6n0AAslFYRj5+7R4Nq2WJ+gz9Uhy/jvfqJcEA7R7zP7xYpNIhPYFIj/nM3SekFP/KVyrk+9D/n39SFZaJ8Ac4VBys8BTcP0/6OAv5zwf/1c5y50icpBp837sKPhLc+3o/zHrf2YZu677tiDEATLbyVl3mE5mdCsMFznEuXZhj7Dn8UZ//9OIP7dWtpY6Gjox5p1Pz4CUche44zec4M18j7UZybjn+eeFXSPLlKUpvQDGrIo8vioNV+Bs4cHB5S9oZv/gjOjZa9BWeZF88UnufExHBAspBbrTuxHH2h8Wjn2AmcIdQ7DOb/LM51+PkdOMsdKBOPNwwDFBkcAymXP+ijKFzEpmfhvEIs29QQjh/BuWFKn8dZbkHc7U3PLXHdRQ9g0RL+rTr4cdmlvl8cLoXzvNGezMKZc/Jg+BD/GZzbic7f077KGeUl2TulmZd5rcWw0CObgosh83Bmyj+DM7Ea8bYfoAJ5ZLvQIYwGAmlakZZnwKHjS+GGvx/n9aebctDZtVhhtXvo1EqsYmC5zGz+ICLMv8bfj/Mb+LPpM3Q5EBVONni+jPpo+kHXag1unf7ZhvoXZy5igOyba07O7j5Tac36W4LiznVdfnFuPbVKDgKBwgjhvhhZBBHlafVoMk6caaX/9zh3kgZp6BlgkWWe0yLm19dmTu535ZETL/zMefj/jnMn11mGhp0tl6MLq1k+hKBSXRYk2+l83P5+nD8V569M7THzSCheIOTFM7RQ7/kLsiX6jNtV51Y1vAPnHynfeQ/OJF+UEbCIaYY4UUJlljVuzTtiFlSVFB+eFSwrgJrGWY4mssn/AM4QojkqnOFhegER4gSMsyWWOqsIdJz/Eu8dbLI369cVEmQSZ3D8x4tB/wGcBVISo2NcZU4iSSqirFKWcDwVW3okZnuVZanCSZwhwjxeX/wP4BxDUQT27kpusTaz+laojPq5Z5KTRasqJnEGX3S8VOQPwfkzdTIu3Pa+tcdrh0SLeJrsWVwk5FTWLnvB225lEud0EsRXcJZUc6uHoWjOmZ9XphD7aZAWiSuY/Ag/fQvONnjOLqoYHUGXU7aNWQ6Sw25gN7NFZfWTOMPH4x78bJxVkdKPczgd+JE7oUmQq8sqeWDgLCaCbUaGqigbWV5rmiZhme4Z5ONItAL8Z7jwR8kscp/9DHM8BhatEprCmZ9Wlwbn6bqvbR+3Sb7NrkZjmMQhzgbzVMQoiWgFK4CcoVuIjbDf8QxJrH9gMz2kSv5Ec+MyVRdPLjyuEA3OExODrCOGjA4A48ZGKh1+dYhzxD4XPRmTxR5dbOZFh5734cF710Urj1qcm1bXimpYjrcnsZLH+KkzcBYY3QcZsdKjSA2KoZh2Yzd2OjtUUZ/DqJzVOd5iKJiGXJFH+Xhr40LVOgVBfr33L3ocP/UpzmaztGIfOR5dNTksuqEbPAuRInEab7fADW16gzP1zBRH6Nb6lzJVXev1vluk+bWyoUNDqiDRt9B5orlRERn9omWi3OkZzm09RKVylA1hkt7KuaV4E18jPdRIFs4gW6rzH4ltGU+y0/37xTZNC0ZWKKgoTbxlmbJnODMsYy0Nzsw6c60tNW3oQqs8LAtdGcmu9lXPZhhOH8NZaq6RsCsze9JqwyWE4J2e8VxRQmnI+B89kmTQdHFRpuwZzuwRTmQa53YAU8A1CR+WwlSFKj2C4410YwznOmyfzYyXmlQ/VfJ0zKDuM2bKaYct7wWgNUsisRTO7UI1SibI4iTOlN2jHr860Wx17NSff8oeDr4+gnN1P+nsVVha21GMrwMk9LyrOh0WMjdoSFoUsGtxdjhJwtx+Lcsq73i1WizFuWUanaO1ljOGSa1Yg3k+YWjtGM7VZPtKJACz13qKTg5XIJaPR8Vywy7Xr+zyFH0ZlVH+rOWzcWblIpvh2DXwCfNTInWl31ATgQMNfBuB1e8D+eT6kisuoiYyVzQuVTm1a2nHilX4LsprjPuD2ukzONfDsXd+jQ5Dn2s2MmRhfHDYD7Scoc+byzPVYMnAjYzNiLRpeArn0Hyr1uclcbMJv9v7DM6cAZSs6A+xWmkZODfAzauJGOJc9eflVaN1Q9dr5/yDHQmHDqQa6Zn0SnlMI1PxjRMbkFqmcWbLBM7tzDkrIDbAubJUry+yq5ldIUswIAgblNd4fH043LajKcRgqItWFU7hrM/E+YXnWxsHxjChFrqeZozMvn2uAlALbGfr2WDznMqEtWn4plLSzQFZjhZt6zOFM2TP5vgpL+A8RWMQJeenatnDuVgMMxjos0SGkd90zOHOJ2W1vfTYPIBuT8X/RuVZ/HmO3/0Czg2DYhzrhfaEaXegg7Nar+xflCOFRrAHdRLBdJEdv3i1iK4wUViMycK9LbjGJM7J5F4xS3Cu4xWsZimPoRR3ytmgcW43BVgUg4exgJ3RkAy2VPJ47rB3kWmM+CPbJfvNTNcVmFNzf4Pz/Bm+AYe54cIwLFqMhyiapqJObmCJQtcYNGvPcjWASKXEBnq7JJD0jjqZeTivrX0bWmJvQdPGGhoJxpAeCW0zItWzbqSKB4OjkikpUo8YbEtoLx5BSRL8L6+EJQ/ze3BWvbhb/Dqy1Q/PyKf47MKBsRTCgk1XYBIsmkEBJi0PuAyU2WiC0NhBFGGush0nnV/13MrX4yw57jBCNUpBB1WyaCS+PYbzEmU7IAHV8VQy8VuNCc6iElQZ5nA8R0aekSxZr/kOnKf8Cqe/+vEJzt09HygV60sX57DN1iywHHtk6k7lQoEai1CFynNgJ3ZKo70FSTdgap8t2HjrS/VZEig74NvRyqrTYlOPJhokyFk0gsbZ1egC29fdNR7tOL/m7zZpi8tuHPhouq7X8Tmf4Cxx3DV/+QpfinNLiHNR7X407VpHhz7Qw9Bri/OD4EAtD37dfOK7d7Q6CZFAZofLC26FqSaPotq118t0m36ZSk6PydfZDadJ6VI8uI5vPJut+P5eVwP3t8W5ctmoxODLJXc+yjmjXN+7C7D5xTgfwDhEoXyO8yrz6pR3ehbNBTVQX4ZzM38f6E7NxZnjlO6MOPCFGpybSak1Ny9XWGBCGVml4cg/kMcZBSnvCjEvEksVBwmI7U85dcGI+SqcY/bBGp05LqRM7ys2mN2EQb/brU9e3iFSA57hVAnKArfo8LpLuI8D6JeWCfO/DGoX8AN5PTL6RTjvR+64ts/zOspT1Rh9WzDEmdp74eVQPOYSan0/d+yt+uR/EMVEQu29mrDeW9K49PVI0jtwHk7wrWr18iC1NZmrEMlo9xg4U5u2vHo3JmhEGfML+QM2awly4c8CFdhZ4egaEA205bXWua/CuWGz/QE8jrMZM6NGTe6ubxIbnCnHnNp44MWpCrwUiYqvaPgWjmi/w/a6/1VZVp3XwZq1zwlbJnBuGu17TvXkNsAZgnUsmtCMjDk40wGS22vVLBkQ59Zv9cgF7pLiDGNGMi+/7hG2sa434rxpGu3jWeM86CeQKmbuJh/pXkPOOylIauo8vrTzi4HQqR2GxDGCoT4SGj2+vPtX6xYvx3kwuzflMINHUN/JgNeREDIriVIbjr4daBSkm+qlNja8vgQ0NhEelTrDD/J8RJs7m8GFL4dG2zDacpwHetjq8713pH6sef+U0jYygqDV3DYo0mw0t5uqosgdOr5iOkyUnKSW35zJ8/VM9vaJ1qsJMqpbL3PvNosxONS2ao6ckmFlU6Jto4zRSCfqMNqAOzaK2xsadAz79soe3OgaBW3/NB4GzEVBV/aXJ/LTLKGiMS+nfNrwxSD6QMXcKH3ounjlpFMbwHpTqz6edQf71bWtgvQrtDtpxhd4tID4Ij7UJ2IzpYl5wJHZeaiC8WvFjJ2U3KtzKFWS3u8IXYRcruKRrT2z3L4GojFC5w40NR0aqDNVtd636p3Nu4rZRYcy8rW2tr/2RHIAlAzKiB4c5kt1IutukuOsRy9YtO7t9MwYC1KWnOv5RKU+9LeWLEmSHAn1nnL96V3qKK3vdJWre1eB7Vj8HO1zkUYNuOqGRBblUHltfnHBxmKt0bmnrj3DqhnhIEeSZtv2bhiZPpCss280PqeZttfsE0rZdZlDVAy+cQr8NusiM1aczHjHi4L01tE51zVrAbHEoU2vo7A+8GCeuYsdI23RyFPqwcougbTXZj3DvdblA51JcqI7veQ4c3EUopevsVa4zYDER03dQw6zYGnCioN/5u7oISctLEgS5oZoJu7r6Yb7oyv1KDvdXyhQb0PW7s7e7aja3/W/lrzPrD5GvkhBybi7GZioSO+9HuJilowHHm2gtCWTgoz5zowWuVp/Tpf8cEgPh0OQX5oc08ez2MAGjQhtBlV6wX9MZehL2MWhF2Ht00G+Ox4WddPz6e2SBwfo/vHUIUx9u3WZxVp9JPf3pDqaTYHlpmidJamYWzGpmA6v9e5VWquW48xwWLxQt03HUtfNul5JUqyo5yRttm6a7/xs22vRnFjmLUee7iZpkAdpHHpMsiDb+t7DvVemFhXz8cHPhC3upKGsn6w+bkRFfjVUz+3086ijgIKFmoovGHwLsle/UkqM+JJJ3psVdbU/FFnIaZ0im73j2q/MExn795W5qyIEd5EzRIJ5CiymjSOANfnkayj+xxJij6jWYPeG3RZHITa5zjc01GcPjGqiaPlXJgWTC6Mm0YETIJVMOR4Jzp6Ph9Zl9iSuEP+kF+j9ZeKhCzCiI1Hqe+VKVDHYHsFwsA/yazmWSo4th4t9qjJEeofAiiJUZqMbTccktpjYZuBXJgW7OBZYjioUTUh543MNYprBt7/j8p8RFxPjNq5wOQGHl+vs2W1L7dekypzy57wbWWZ7l3PSNyOnfq1IwCqaRXapEUNP6chV41oqN4jjvPf9tEtlJbDi2mvxfHp6qsw89evFBCibYNWNKKxElYa0KmziafAxWPj/I2KeWGXixnEkH0SL+O1vNqzEh/oNKopCbmBHTPaDhFzpAogI5T/Syb7w7HL8W/78VO+H+KmGULGhI3cPk4Afrrc+MdTt5GeBr/4z7y/vicHG+TKjptP6KT/AgZJnREuxgjDjkcdGpYBKj1ogHnb7IwIdP47zknnKRQeqsuUB0dqMTI25wwlHmt5tHYjG/wGk46dxDhct3bwghzIcsUnC0j4kf89bjp74IPhvLlyH+7oYvME7ku2Ywlp2yMuhMFuIIU+Fcd5ykdfJiWz1vXMucfbcEL5sGbypcIpjkISpmWUkul/jvNnuyetwZTvF/8Qy8u84nCqG+Au8EFbTparH5W+8ySm2QJQsRLlnv74BjIo+qHQuVu2DhxmHp5J0XEbTTf9M0vvf44BbD/RwOLI/tSSgkwMmTvBIFYSKAogTXJtUi4oSvShT2KubbwYApguTDKf5KMZfC3amTwK9Vsk3XOS6pAAB32QC95ziM3coj6EKwC9jlvA9G9kiukvc2ke7uHKTVzk6p6NrPSfEw2cfapyPe6Eoc7t5mYFP2xY1MBoeOn/+dTlzREU5B+lZFS7Mw3CyCeWR8JGDBljVMUSZZB8tsrYhhx+kViYldH8LVfsxJN5ysoidmJwEaBTZ0QwrJzydHZ53JI+QPrWkfle4rgWnbLHtlGxCxdQHIpdbsHCTI93gOblyuElcwyDbZJg58iOvAENdiQIXCNHlbe9BnJQECh50YDz7nCvdpChFBxlDQexzU3Gul0PstAPKt4feXyL4FcjRyYQCg5hTRHTzKpyNskZGhJu1iS/GE7TvJIRTkGbJ5z7+1cnJ1u85IQQhDKfVvF1TGHKFpiuVrgyT4+JeRLCAhQ+vV9oa4cfOfEPF20XBM7SGTYRWbofloxT55IWqapk9T2qci3LpFOBsouAUiJvqYwPbGg5QzC9HgeQPid2wy/N5mOTtcr4hPs6F4OySwk0TcD6iA4pLLdsRnPeg5ctxlqGGrk6cH6q08R7lGuf5qNDxj0NLZYD1nV6p5lssGTLC0ECiR1bs+E1tglHhXGct/bKQtsS5rQZUsJLeTfL9cz2fW3DqtgTKgKFS4wynMXBuhvJbcMaPXafry9JQd4mX4ttWXQPRth2jKFi04dqrImO3VIMqWnK3dskxNbke9w2XF8tVZ4+A1MyQj8j0HSKfICdVpc5qZTdg5udgYFrQKmjQitDVGmd4KA5cNCstsawxcXae1aQwRIfJt4a02oAb8uBx+4rTvLHK5BF8h8NCoj4Oysu/LijjI7CQPLzMwdg1qTTpgQLHOaCzqWJo8oi3q92QPqqSti06O7x3DKExSMe5qJDxuAQQbajjkwPyCMtAlF/ZZ49MlQIfuTeNq2pYdGhwjXZrjScHX7+lAtrVyiD/KSHo+hjunWo065M+aqsMtdM5Vcj2dUJywfdq7MAq3gt5ae0e6/iN0iYF/53yBUowjRBxr5PKrEW1ETGv5YZsEbrdLqDFmMheq1FyrZRG8tE930Os+OJx4vl6LtacginfFS5UoPvFxl++wXMSy2ksXxSFyMFy9bcuxnJp14TemukvRfp1yaLnRUKFslq3qfeQ1/jvzar/JUrKD6G6pf0NxMaWoOKp5X+aVB+jf8pS9bsEF5bKq18X2ekdPJ5eQd+jqqG5KNbef6B7c3ci2Scl+R6C95VifyKofl/mGu/Qh9oB+v5AhhMgKJRROC190GtAlDId8NdnwZfjLBVLaUcKPrXdBpUy7GTv1xYUU+6qPEveMufyLULBn5FjWSz24niNseglPkRi9ACHtFvHfMfu/g09bE0294JNxzsUHYhJ/MRpkTbf4KdLwrLJYpO3s+Y3iog+wJdiv3Hk4gu253SJMy+k0y+u1zArDxbz+rkSPi+wZovlGKr1Ld5tV5wywEy43LWE2+9uR9Rf10H28hjd6BCcx4e76PUgr8gm+aK8X5x/SbPYFlzQUefJ4qasBHiXod32UMPMeAMFIYMJ08xVPPHrCeAX5aOUd7zLe0TouoJzGZg+6dXaEN1hTbIlmtf9IDBdwfwNScXoi5iP94UqUkVIb6DOvSVQQcGM8tcLRHZ256gXEsvzPN3/eVmCMz9BGNRl5v41adfVdNdBBsnhhFC48Qb3JIV5VeJ7DZulDlU27PQFI2/gH/GjODPIRDltayeX9XH562W4W6nUu/IbbqtidnYBJTN02UztHxJLoAjc2tyLDnF3JUfUt1UoJNCdTbuF6ifyid7udCzfeZfFnH4/lftPrbBlO1ADJ8NUaEdwdtDa2eVwA+H9RjZohyIl/eMcU767fYFdxclquMuteToK5kWHGkRy7APPrFoGeKupLmUnlG8MCHfw9UWPC3JXfTEBrYu19tFZYb3wDJMS5SBVtXlHsaIbtDPZmHlQKKVdPVrML3ALPiJVBN9JBgbvYgp5ISAIkFyqMZHu7kaxiWcalpumwoB0VT6FOCrsLipYWVvvo30gWSYLuEUUR06twxC3tltuaCMfjplEo1TYkjUjb9bOxLgMvF4KTtq9IyWNMcydsFjxAWKK5aAYlPuIMuOjWSQsi6y1muRBXVxYyhtdIajtmZ4t6ro9vSlcubB8T8LOH+T3AGb/FKKXfhPPjx8lTqCZAnK5jcJJ5cELBMlDQvjiJny+9vGHBbCmTnWCk2jcqo1z1r96ZORqJbZn8jMBdPfw3MRZKwifirFDieUn2hjSWHmO9z0EZH1MBVFeFXZI1r48Id+bprd3C2oN5PnUM/mTnli5GnVN7iYgy79EOAEdsB960etTS0ydym6QTmxLY03SJjoJ8fPddR/5hXzWm+usFmelTrWWFjIn8dmCwEoc9QDJ9g5lbzAcpPM3pPNutlGx3b3d0UAgLw5q5gvVCztcsxzNkAKjakk2vHNCh3I7Buz8PHTP4fnIO04HytVq1S+JsAen8h5VWNB5oGhNtfq8xNksmbpe4uxAXqrEWWrTWWs9D25Hro8zn1wObS2pUvVMGsH5jo7COwM72F9xI9vlZSHrLZ89lFb7YKGVhVS3QNdyQ9VUdDzi33wEhzwP0kQX7S28n/XcPqirXxxKYj6Fs1QNywfwwhpnA9Lcna+Vj7qDs11m7R0wGSXOcnMlHgL1/gDnEJ8p0zjrVR8I7xjg/BbT3BE8wwRkqSnsBhy2LriAaiYH+Mki8tIAHVI0tZZ+KJNFZCkBgiTqKpy3YDcKYmtXdQ2FTxR6X9kNgvOqnPZSwEUntslrli8X8HcKdsOgnzIEJDc0zpU9H+K8BYjFchTp76SsJlZGHZRiLWKSpXjuZQDXGQhdFt3DQmPvzTwi0/El+YhiLyQAYsLhybACOpThLYS7OGh8+RVUEF1ydEqh+GgXAYPAPGHvBWRNOXZkYzts1U9Auz30VoSRIOxrqIHOHFBba3XDx3TSkCmBqcLkVb4gR+PkgsT3fPQRF++uWTcwYdp5YHojP7DxfL4Rz13AYOYDs7EdPoMR2SVi9LRq3czishbDz/aCif1LIQOL4GUh5Q6v9TRUuQDrlqNvsY2DzzZinJVjRUdiXOhUmEv0dUUmxXZGXNSElFOyxMPnt5VkbiHI3CbRBVflfF3cm5yb6a7DecJWDHHHnTDzviCbBFsopVilOG0Pb78Wn73LcVJS7/sWieiv7yj8w2KFd3SOPUVSLTELZisupcK6Z9ox2n1rWF3/1Mvlf0g2ZoxnvXMQbi1VXkXmPnRjN9xGZjP7Mba3KSWod+D55tTt36fPtVi2Wy44LDK73bBqrSjV5GulyN12QS6eeH5fKOHfnSre8KYYFjmQ6FNQxCEmyZ6HZ4gkbQ3Kx84XTENRf1Khtufd9fL9+b+3i7Re8Y5nh3FxuMOqi0ue+kmmb81I+Z4q6SfyRyzE+5Vf+ZVfYch/Pl56/JU+cXMAAAAASUVORK5CYII=;" parent="t97eaOo3kyGEYDDg0i4q-19" vertex="1">
          <mxGeometry x="96.5" y="80" width="69" height="26.91" as="geometry" />
        </mxCell>
        <mxCell id="t97eaOo3kyGEYDDg0i4q-23" value="" style="shape=image;verticalLabelPosition=bottom;labelBackgroundColor=default;verticalAlign=top;aspect=fixed;imageAspect=0;image=data:image/jpeg,/9j/4AAQSkZJRgABAQAAAQABAAD/2wCEAAkGBxEQEA8RDw8RDw8OEQ4PEBAQEBARDg4OFhIYFxcSFhYZHyohGRsmHxcUIjMiJiwtMDAwGCE1OjUuOSovMC8BCgoKDw4PGxERGzkfISQvLy0tNC0vLy8tLy8vLS8yLy0vLy0tLy0vLS8vLy8tLzEvLy8vLS8vLy8vLy8vLy8vL//AABEIAOsA1gMBIgACEQEDEQH/xAAcAAEAAgMBAQEAAAAAAAAAAAAAAQIEBQcGAwj/xABKEAACAQMAAwoHDAgGAwAAAAAAAQIDBBEFITEGEjJBUVJhcYGRBxMUk6Gx0hUWIkJTVGJydLPR4RczNIKSosHwIyQ1c6OyQ2Nk/8QAGwEBAAIDAQEAAAAAAAAAAAAAAAECAwQFBgf/xAA0EQACAQICBgkDBAMBAAAAAAAAAQIDEQQhBRIxUWGRFDJBcYGhscHhExXwIlKi0SMz8UL/2gAMAwEAAhEDEQA/AO4gAAAAAAAAHyuK8KcXOpKMIR1uUmlFLrZac1FOUnhRTbb2JLazk26PTk7uq3lqlBvxdPiS5zXOfozgzUaLqPcjDWrKmt7PWaR3eUYaqFOVZ86T8XDsysvuR5+73bXk+DKnSX0IJvHXPJ5tsvUtqkY76VKpGHOlCSh3tYOhHD049l+858sRUl227jMr6fu58K6rfuzlBd0cGHUvKsuFWqS+tUm/Wz4NlWzNqpbF5Ixaze1+bLSk3tbZCqNbJNdTaKtlWwQZMNI148GvWj9WpUj6mZlDdPe0+DdVf38VP+6Zp2yGVcIvaiynLf5nr7DwhXMGvGwp1o8erxdR9q1fyntdA7p7e8+DTk41sZdGpqnjjceKS6u3Bxlkxm4tSi3GUWnGUW1KMlsaa2Mw1MNCWzIzQxM47c/zefoIHjtw26l3UfE12vKKaypfLU1q32OctWV055cexObODi7M6UJqSugACpYAAAAAAAAAAAAAAAAAA0e7O4dOxrtbZKFPsnNRl6Gzk7OneEJ/5J/7lL1nMGdLBr9Hic3GdfwPfbgdCU/Fq6qRU5ylJUsrKpxi8OSXObT18i6We1ks6nrT1NcTR5fwfaQhUtVSyvGUHNSjxuMpOSl1a2uw9UaWIbdR3/EbuHSVNWOX7vNCQt6kKtKKjTrb7MVqjCqsbORNPZxYZ5Vs9v4TNIRlKlQi05U99UqY+K2sRj14y+7lPDNnRoNumrnNrpKo0g2VbDZRmYxBsqyWVYJDIbDZVsgGRo2/lb1qVaHCpTU8c5fGj1NZXad7pVFOMZReYzSlF8qaymfnlnd9zUs2Vm3tdtb/AHcTSxiVk/A3sG9qNmADRN0AAAAAAAAAAAAAAAAAA8z4Qv2J/wC7S9bOXNnU93dCdS0cacJ1JeMpvewjKcsZ24Ws509DXXzW48zV9k6WEa+n4nOxcW6mS7DFtbqpSmqlOcoTjslF4fV0roNvV3ZX0o73x2OJyjTpxm+3GrswYD0LdfNbjzFX2Sr0Ld/NLjzNX2TNJQlm7PkYI/UWSuuZgzm225NylJtttttt7W3xso2Z70Ld/NLnzFX2SHoS7+aXPmKvsl9Zbyv05bvI1zZDM6ehrlJt2tdJJtt0aiSS2tve6ka9sJp7A01tDZDZLZVsEBso2GyrYJDZ3bcv+w2f2a3+6icHbO8blv2Gy+zW/wB3E08b1V3m5hNrNqADQN4AAAAAAAAAAGl3Q6fp2cE5fDqTT3lNPDf0m+KJMYuTsiJSUVdm3nJRTcmopa228JLpZprndVZU3h14yf8A64yqLvimvSc30tpitcyzVqNrOY01qpQ6o/1eX0mvZvQwa2yfI0Z41/8Alczp73cWfOqeakV9/NnzqvmmcwbKtmTodPiY+l1OB1H392XOqeaZHv7sudU81I5c2VbHQ6fEdLqcDqfv8sudV80yPf7Zc6r5pnKmyrZHRKfEnpdTgdX9/wBZc6r5qRHv/sedV81I5QyrHRKfEdLqcDqOkN3NlOlVhGVTfTp1IRzSklvnFpHLQ2VbMtOlGn1TFUqyntDZRslsq2ZChDZVslsq2AQ2d53LvFhZv/5bd/8AFE4Kd43M/wCn2n2Wh90jSxvVTNzB9Zmf5bD+0PLYGuB5BaUr8OXydn6ETY+WQ5X3M+0Jp7GmagRm08p4aLw0rUT/AFxTXDJ+bZDoLsZugY1pcb5a9q2mSdunUjUipRzTNZpp2YABcgxNI3kaFKdWfBpxcnyvkiulvC7TkGkr6derOpUeZzeeiK4oroR7Twk3jUKNFP8AWSlUn9WOqKfa2/3TwLOlhKdo62/0Obi6l5au71DKtktlWzbNQhsq2S2Q2AQ2Q2GyrZBIbKMMqwSGQw2Q2AGyjYbKtkEhsq2GyrYAbKhgAHeNzP8Ap9p9lofdI4Od53ORxYWie1WlvnzUTRx3U5+huYPrMoRkEZPn/Yd8EZGSCpYvSqb2SkuLb08puU+NGhybawqb6C6Mr+/QdfRFa0pU325r39uRr4iGSkZQAO8ahy3d7c7+9muKlCnSXdv3/wB/QecbM/Tlbf3VxLlrVcfVU2l6EjXNnapq0EuBxajvNviGyrYbIbLlA2VbDZVsgkNlGyWyrBIZVsMNgENlWyWyjZAIbKtktlWwSGyrYbIAAAS73qS42+QgGTo2xlcVqVCHCqzjTX0U9supLL7DvldKFLex1JRjCK5EljHceR8Hu5OVsvKbiOK9SO9p03to03tb5Jv0LVxtHpL2vvpYWyPp6ThaXxihTdnvS73/AF+bTq4Gg1m/xGPkjIyRk8YdgEZBUqSSZ2ip65x6EzXmVo6WKiXLvvVn+hs4Cpq4iHfbnl7lK0bwZuQAevOccLrT30pPnSk+95Pm2WrR3spLmuS7ngo2dw4YbKthsq2AGyjZLZRgBshkpNtJJttpJJNtt6kkuNnR9y24WEFGrexVSo8ONF66dP6/Pl0bF07THUqxpq7MlOm5uyPC6O0Lc3OuhQnUjz8KMP45YXpN7T8Hd7JZcqMOiVSef5Ys6fO4hH4K4tSS2LoPi758UV3nHraYpwla6XNnRp4BWzz8jnL8G958rbecq+wV/Rte/K23nK3sHSPLpc31jy6XN9Zh++U9/wDFmT7et3mc2/RrefK23nKvsFX4NL35W285W9g6X5dLm+seXS5vrH3ynv8A4sdAW7zOZ/ozvflbbzlb2B+jO9+VtvOVvYOl+Xy5vrHl8ub6yPvtPf8AxZPQFu8znVr4MLhv/FuKMFy01Oq+5qJ7DQG461smppOrVj/5auG4fVWyPXt6TZyvpcSS7zGq1pS4Tb/vkNevpyLVo3fkv78jJTwKi729zKu7zPwYbON/gYORkg87XrzrS1p/C7joQgoqyGSAQa5cZIBGStywPtZy/wASHWvTqPhk+ln+sh9ZesvRf+SHevUiSyZ6EAHuDknFNO0t5c3MObWq4+rv216MGvbPRbv7beX1V8VWFKqv4d4/TBnnGzs03eKfA41RWk1xIbKtktlGXKBlWGSottKKzKTSS5ZPUkAe98GugU83lWOcOUKCezK1Sq+uK6pdB7i7uPix7WLK2jb0KdOPBowjBdLSxl9b19phHk9L4yXVi9vp8/2d/CUFGPd6gAHnTeABGQCSMkEZIuTYnJGSMkZK3JsSVyMkFbkgjIIKFgQCMlSRkjIyRkrckZMjRyzVh0Z9CZi5NjoWGZSlyau1v8jYwMNfEU48U+WfsUrPVg2bgAHtjlHgvCjZ/Bt66XBc6Mv3lvo+qXec+bO26c0crm3q0Xq8ZH4Mn8Wa1xl2NI4ncUpU5ShOLjOEnCUXtjJPDR0sJO8NXcc3FwtPW3nzbIYZVm0awbMzQizdWqex3FBdnjImE2Zugv2u0+0W/wB5ErLYy0Osjt99wH2GuNjf8A1x4TSf+7wXqz0lHqgAg5xmGSMjJXJVsmxOSMkEZK3JsSRkgjJW5YEAgo2SkSRkjJGSpIyRkZIyVbLDJGSSCrZJBvdF0t7TWdsvhPt/LBp7Shv5xjxPX1I9Kd3QlC8pVn2fpXvy2eLNTFzyUQAD0hoA8Xu33KO4zXt0vHpYnDUlWilqafOWzpXUj2gLwm4O6KTgpqzPz9VhKEnGcXCcXiUZJxlF8jT1oo2dx0poS3ul/j0YVGlhT1xqJcinHDS7TQ1fB1ZyeVO4guSNSLX80Wzeji4tZ5GjLCT7HfyOVNmZoF/5u0+02/3sTo36N7P5W5/jpewfS28H1rTnTqRqV99TqQqxTlT3u+hJSSfwNmoPFU2mvYRw0008uZ6e/wCB3GtybLSHANZk8ZpT/f4L3O7R6oIyMkHMM4yQRkgq2SSQTBZaXKbP3Oh095sYfB1a6bhbLe/gpOpGG01RBtfc6HLLvQ9zYfT7/wAjO9EYjhz+CqxEPxGpyRk23uZD6fevwHuZDln3r8CPs+I4c/gnpNP8RqMlcm49y6fLLvX4D3Lp8s+/8iv2fE8OfwT0mn+I02SDde5VP6XevwHuTT5Zd6/Aj7NieHP4J6VTNKTCLbSSy3sS2s3K0VT6X14/AyaNvCHBil/UvS0JWb/XJJcM36W8fIrLFxtkrny0daeLjr4T29XIZgB6WjSjSgoQySNGUnJ3YABkKgAAAAAAAAGLpHgPrRq8m00h+rfYarJ5vSz/AM/gvc3cP1RkjIyVOWZySCAVuWCeNm1H18qqc9958clckxqzj1W13Nr0DintPv5XU577yPK6nPfefDISbeEm29iWtsdIq/vfNjUjuPt5ZU577x5ZU+UfeJWNVLO87mm+4xialTEQ67ku9yXqTGMHss+R9/LKnyj7ze2zbhBvW3FNvleDzZ6S0/V0/qQ9R1dCVJznPWbeS2tvt4s1sXFKKsu0+wAPRmiAAAAAAAAAAAAAAAAAAYmkf1b60ak3dzDfQlHja/M0bPN6Yi1VUuxr0fyjdwzvFoZIBGTkXNoEZGSMlWyRkjJGSMlGybE5NvoiklBT+NPOvkw8Y9BpjbaIrre+Le1N46U9f4nS0Q4LErW3O3fl52vYwYpPUyNoafTNBJxmtWeF0viNwaTS1ypNRi8qOW3xZ5Dt6YcFhpKfh3/8vfhc1MMn9RWMA9JbcCH1Ieo87SpuclFbW/7Z6aMcJJbEkl1HP0DB3nPsyXjtM+MeSRYAHozRAAAAAAAAAAAAAAAAAABrr6zzmcFr+MuU2IMOIw8K0NSfynvX5weRaE3F3R5tlcm9uLSE9q18qNfV0ZNcFqfoPM4jRdem/wBK11w28tvK5vwxEJbcjBIyXqUZR4UWuvPrPmcud4u0lZ8TYWewnJAIKXLAA+tO2qS4MG+n82TCDqO0Vrdyv6Bu23Iq682sOTa5G9RSEW2kllvYltNjR0TJ8OSS5Fr9JsqFtGC+CscvG2dehonEVneq9VcXd8uzx2cTVniYRyjmY+j7LxazLXN9yRngHpqNGFGChBWSNCc3J3YABlKgAAAAAAAAAAAAAAAAAAAAAAAA+U6MXtin2ZPqA1fJgx/IqfMQ8jp8xesyAYvoUv2Lkv6La8t584U1HYkupJH0AMqyVioAAAAAAAAAAAAAAAAAAAAAAAAAAABDKMAvkrvz5sqwD6+MHjD4sgA+3jB4w+AAMjxg8YfAlAH335bJ8EWQB9gfNF0ASAAAAAAAAAAAD//Z;" parent="t97eaOo3kyGEYDDg0i4q-19" vertex="1">
          <mxGeometry x="40" y="74.78999999999999" width="34" height="37.34" as="geometry" />
        </mxCell>
        <mxCell id="t97eaOo3kyGEYDDg0i4q-38" value="" style="shape=image;html=1;verticalAlign=top;verticalLabelPosition=bottom;labelBackgroundColor=#ffffff;imageAspect=0;aspect=fixed;image=https://cdn1.iconfinder.com/data/icons/picons-social/57/github_rounded-128.png" parent="1" vertex="1">
          <mxGeometry x="1230" y="-90" width="58" height="58" as="geometry" />
        </mxCell>
        <mxCell id="t97eaOo3kyGEYDDg0i4q-41" value="" style="endArrow=classic;html=1;rounded=0;dashed=1;" parent="1" target="t97eaOo3kyGEYDDg0i4q-22" edge="1">
          <mxGeometry width="50" height="50" relative="1" as="geometry">
            <mxPoint x="1240" y="-36" as="sourcePoint" />
            <mxPoint x="1290" y="-86" as="targetPoint" />
          </mxGeometry>
        </mxCell>
        <mxCell id="t97eaOo3kyGEYDDg0i4q-42" value="Jenkins pulling from Git" style="edgeLabel;html=1;align=center;verticalAlign=middle;resizable=0;points=[];" parent="t97eaOo3kyGEYDDg0i4q-41" vertex="1" connectable="0">
          <mxGeometry x="-0.4356" y="3" relative="1" as="geometry">
            <mxPoint y="-1" as="offset" />
          </mxGeometry>
        </mxCell>
        <mxCell id="t97eaOo3kyGEYDDg0i4q-43" value="" style="sketch=0;outlineConnect=0;fontColor=#232F3E;gradientColor=none;fillColor=#ED7100;strokeColor=none;dashed=0;verticalLabelPosition=bottom;verticalAlign=top;align=center;html=1;fontSize=12;fontStyle=0;aspect=fixed;pointerEvents=1;shape=mxgraph.aws4.instance_with_cloudwatch2;" parent="1" vertex="1">
          <mxGeometry x="920" y="280" width="38" height="38" as="geometry" />
        </mxCell>
        <mxCell id="t97eaOo3kyGEYDDg0i4q-52" style="edgeStyle=orthogonalEdgeStyle;rounded=0;orthogonalLoop=1;jettySize=auto;html=1;dashed=1;" parent="1" source="t97eaOo3kyGEYDDg0i4q-49" target="t97eaOo3kyGEYDDg0i4q-22" edge="1">
          <mxGeometry relative="1" as="geometry">
            <Array as="points">
              <mxPoint x="1000" y="305" />
            </Array>
          </mxGeometry>
        </mxCell>
        <mxCell id="t97eaOo3kyGEYDDg0i4q-53" value="Port 8080" style="edgeLabel;html=1;align=center;verticalAlign=middle;resizable=0;points=[];" parent="t97eaOo3kyGEYDDg0i4q-52" vertex="1" connectable="0">
          <mxGeometry x="-0.4415" y="1" relative="1" as="geometry">
            <mxPoint as="offset" />
          </mxGeometry>
        </mxCell>
        <mxCell id="t97eaOo3kyGEYDDg0i4q-49" value="DevOps" style="points=[[0.35,0,0],[0.98,0.51,0],[1,0.71,0],[0.67,1,0],[0,0.795,0],[0,0.65,0]];verticalLabelPosition=bottom;sketch=0;html=1;verticalAlign=top;aspect=fixed;align=center;pointerEvents=1;shape=mxgraph.cisco19.user;fillColor=#005073;strokeColor=none;" parent="1" vertex="1">
          <mxGeometry x="980" y="580" width="50" height="50" as="geometry" />
        </mxCell>
        <mxCell id="t97eaOo3kyGEYDDg0i4q-55" style="edgeStyle=orthogonalEdgeStyle;rounded=0;orthogonalLoop=1;jettySize=auto;html=1;dashed=1;" parent="1" source="t97eaOo3kyGEYDDg0i4q-50" target="t97eaOo3kyGEYDDg0i4q-25" edge="1">
          <mxGeometry relative="1" as="geometry" />
        </mxCell>
        <mxCell id="t97eaOo3kyGEYDDg0i4q-56" value="Port: 8000" style="edgeLabel;html=1;align=center;verticalAlign=middle;resizable=0;points=[];" parent="t97eaOo3kyGEYDDg0i4q-55" vertex="1" connectable="0">
          <mxGeometry x="-0.1338" relative="1" as="geometry">
            <mxPoint as="offset" />
          </mxGeometry>
        </mxCell>
        <mxCell id="t97eaOo3kyGEYDDg0i4q-50" value="User" style="points=[[0.35,0,0],[0.98,0.51,0],[1,0.71,0],[0.67,1,0],[0,0.795,0],[0,0.65,0]];verticalLabelPosition=bottom;sketch=0;html=1;verticalAlign=top;aspect=fixed;align=center;pointerEvents=1;shape=mxgraph.cisco19.user;fillColor=#005073;strokeColor=none;" parent="1" vertex="1">
          <mxGeometry x="1740" y="318" width="50" height="50" as="geometry" />
        </mxCell>
      </root>
    </mxGraphModel>
  </diagram>
</mxfile>
